<?xml version="1.0" encoding="UTF-8" standalone="no"?>
<!DOCTYPE svg PUBLIC "-//W3C//DTD SVG 1.1//EN"
 "http://www.w3.org/Graphics/SVG/1.1/DTD/svg11.dtd">
<!-- Generated by graphviz version 3.0.0 (20220226.1711)
 -->
<!-- Title: dependencies Pages: 1 -->
<svg width="168pt" height="247pt"
 viewBox="0.00 0.00 168.00 246.80" xmlns="http://www.w3.org/2000/svg" xmlns:xlink="http://www.w3.org/1999/xlink">
<g id="graph0" class="graph" transform="scale(1 1) rotate(0) translate(4 242.8)">
<title>dependencies</title>
<polygon fill="white" stroke="transparent" points="-4,4 -4,-242.8 164,-242.8 164,4 -4,4"/>
<text text-anchor="middle" x="80" y="-8.2" font-family="sans-serif" font-size="14.00">dependencies</text>
<g id="clust1" class="cluster">
<title>cluster_DiceModule</title>
<polygon fill="none" stroke="black" stroke-dasharray="1,5" points="8,-32.8 8,-230.8 152,-230.8 152,-32.8 8,-32.8"/>
</g>
<g id="clust2" class="cluster">
<title>cluster_DiceModule_declarations</title>
<polygon fill="none" stroke="black" points="18,-40.8 18,-92.8 142,-92.8 142,-40.8 18,-40.8"/>
</g>
<g id="clust5" class="cluster">
<title>cluster_DiceModule_exports</title>
<polygon fill="none" stroke="black" points="16,-170.8 16,-222.8 144,-222.8 144,-170.8 16,-170.8"/>
</g>
<!-- DiceComponent -->
<g id="node1" class="node">
<title>DiceComponent</title>
<polygon fill="#ffffb3" stroke="black" points="133.76,-84.8 26.24,-84.8 26.24,-48.8 133.76,-48.8 133.76,-84.8"/>
<text text-anchor="middle" x="80" y="-62.6" font-family="Times,serif" font-size="14.00">DiceComponent</text>
</g>
<!-- DiceModule -->
<g id="node2" class="node">
<title>DiceModule</title>
<polygon fill="#8dd3c7" stroke="black" points="122.98,-149.8 119.98,-153.8 98.98,-153.8 95.98,-149.8 37.02,-149.8 37.02,-113.8 122.98,-113.8 122.98,-149.8"/>
<text text-anchor="middle" x="80" y="-127.6" font-family="Times,serif" font-size="14.00">DiceModule</text>
</g>
<!-- DiceComponent&#45;&gt;DiceModule -->
<g id="edge1" class="edge">
<title>DiceComponent&#45;&gt;DiceModule</title>
<path fill="none" stroke="black" d="M80,-84.91C80,-84.91 80,-103.79 80,-103.79"/>
<polygon fill="black" stroke="black" points="76.5,-103.79 80,-113.79 83.5,-103.79 76.5,-103.79"/>
</g>
<!-- DiceComponent  -->
<g id="node3" class="node">
<title>DiceComponent </title>
<polygon fill="#fb8072" stroke="black" points="135.76,-214.8 24.24,-214.8 24.24,-178.8 135.76,-178.8 135.76,-214.8"/>
<text text-anchor="middle" x="80" y="-192.6" font-family="Times,serif" font-size="14.00">DiceComponent </text>
</g>
<!-- DiceModule&#45;&gt;DiceComponent  -->
<g id="edge2" class="edge">
<title>DiceModule&#45;&gt;DiceComponent </title>
<path fill="none" stroke="black" stroke-dasharray="5,2" d="M80,-149.91C80,-149.91 80,-168.79 80,-168.79"/>
<polygon fill="black" stroke="black" points="76.5,-168.79 80,-178.79 83.5,-168.79 76.5,-168.79"/>
</g>
</g>
</svg>
