<?xml version="1.0" encoding="UTF-8" standalone="no"?>
<!DOCTYPE svg PUBLIC "-//W3C//DTD SVG 1.1//EN"
 "http://www.w3.org/Graphics/SVG/1.1/DTD/svg11.dtd">
<!-- Generated by graphviz version 3.0.0 (20220226.1711)
 -->
<!-- Title: dependencies Pages: 1 -->
<svg width="439pt" height="247pt"
 viewBox="0.00 0.00 439.00 246.80" xmlns="http://www.w3.org/2000/svg" xmlns:xlink="http://www.w3.org/1999/xlink">
<g id="graph0" class="graph" transform="scale(1 1) rotate(0) translate(4 242.8)">
<title>dependencies</title>
<polygon fill="white" stroke="transparent" points="-4,4 -4,-242.8 435,-242.8 435,4 -4,4"/>
<text text-anchor="middle" x="215.5" y="-8.2" font-family="sans-serif" font-size="14.00">dependencies</text>
<g id="clust1" class="cluster">
<title>cluster_UiCardModule</title>
<polygon fill="none" stroke="black" stroke-dasharray="1,5" points="8,-32.8 8,-230.8 423,-230.8 423,-32.8 8,-32.8"/>
</g>
<g id="clust5" class="cluster">
<title>cluster_UiCardModule_exports</title>
<polygon fill="none" stroke="black" points="79,-170.8 79,-222.8 353,-222.8 353,-170.8 79,-170.8"/>
</g>
<g id="clust2" class="cluster">
<title>cluster_UiCardModule_declarations</title>
<polygon fill="none" stroke="black" points="291,-40.8 291,-92.8 415,-92.8 415,-40.8 291,-40.8"/>
</g>
<g id="clust4" class="cluster">
<title>cluster_UiCardModule_imports</title>
<polygon fill="none" stroke="black" points="16,-40.8 16,-92.8 283,-92.8 283,-40.8 16,-40.8"/>
</g>
<!-- CardComponent -->
<g id="node1" class="node">
<title>CardComponent</title>
<polygon fill="#ffffb3" stroke="black" points="407.05,-84.8 298.95,-84.8 298.95,-48.8 407.05,-48.8 407.05,-84.8"/>
<text text-anchor="middle" x="353" y="-62.6" font-family="Times,serif" font-size="14.00">CardComponent</text>
</g>
<!-- UiCardModule -->
<g id="node2" class="node">
<title>UiCardModule</title>
<polygon fill="#8dd3c7" stroke="black" points="267.27,-149.8 264.27,-153.8 243.27,-153.8 240.27,-149.8 166.73,-149.8 166.73,-113.8 267.27,-113.8 267.27,-149.8"/>
<text text-anchor="middle" x="217" y="-127.6" font-family="Times,serif" font-size="14.00">UiCardModule</text>
</g>
<!-- CardComponent&#45;&gt;UiCardModule -->
<g id="edge1" class="edge">
<title>CardComponent&#45;&gt;UiCardModule</title>
<path fill="none" stroke="black" d="M321.62,-84.91C321.62,-104.14 321.62,-131.8 321.62,-131.8 321.62,-131.8 277.47,-131.8 277.47,-131.8"/>
<polygon fill="black" stroke="black" points="277.47,-128.3 267.47,-131.8 277.47,-135.3 277.47,-128.3"/>
</g>
<!-- CardBackModule  -->
<g id="node5" class="node">
<title>CardBackModule </title>
<polygon fill="#fb8072" stroke="black" points="344.53,-214.8 225.47,-214.8 225.47,-178.8 344.53,-178.8 344.53,-214.8"/>
<text text-anchor="middle" x="285" y="-192.6" font-family="Times,serif" font-size="14.00">CardBackModule </text>
</g>
<!-- UiCardModule&#45;&gt;CardBackModule  -->
<g id="edge4" class="edge">
<title>UiCardModule&#45;&gt;CardBackModule </title>
<path fill="none" stroke="black" stroke-dasharray="5,2" d="M246.43,-149.91C246.43,-149.91 246.43,-168.79 246.43,-168.79"/>
<polygon fill="black" stroke="black" points="242.93,-168.79 246.43,-178.79 249.93,-168.79 242.93,-168.79"/>
</g>
<!-- CardFrontModule  -->
<g id="node6" class="node">
<title>CardFrontModule </title>
<polygon fill="#fb8072" stroke="black" points="207.1,-214.8 86.9,-214.8 86.9,-178.8 207.1,-178.8 207.1,-214.8"/>
<text text-anchor="middle" x="147" y="-192.6" font-family="Times,serif" font-size="14.00">CardFrontModule </text>
</g>
<!-- UiCardModule&#45;&gt;CardFrontModule  -->
<g id="edge5" class="edge">
<title>UiCardModule&#45;&gt;CardFrontModule </title>
<path fill="none" stroke="black" stroke-dasharray="5,2" d="M186.96,-149.91C186.96,-149.91 186.96,-168.79 186.96,-168.79"/>
<polygon fill="black" stroke="black" points="183.46,-168.79 186.96,-178.79 190.46,-168.79 183.46,-168.79"/>
</g>
<!-- CardBackModule -->
<g id="node3" class="node">
<title>CardBackModule</title>
<polygon fill="#8dd3c7" stroke="black" points="274.53,-84.8 271.53,-88.8 250.53,-88.8 247.53,-84.8 159.47,-84.8 159.47,-48.8 274.53,-48.8 274.53,-84.8"/>
<text text-anchor="middle" x="217" y="-62.6" font-family="Times,serif" font-size="14.00">CardBackModule</text>
</g>
<!-- CardBackModule&#45;&gt;UiCardModule -->
<g id="edge2" class="edge">
<title>CardBackModule&#45;&gt;UiCardModule</title>
<path fill="none" stroke="black" d="M217,-84.91C217,-84.91 217,-103.79 217,-103.79"/>
<polygon fill="black" stroke="black" points="213.5,-103.79 217,-113.79 220.5,-103.79 213.5,-103.79"/>
</g>
<!-- CardFrontModule -->
<g id="node4" class="node">
<title>CardFrontModule</title>
<polygon fill="#8dd3c7" stroke="black" points="141.6,-84.8 138.6,-88.8 117.6,-88.8 114.6,-84.8 24.4,-84.8 24.4,-48.8 141.6,-48.8 141.6,-84.8"/>
<text text-anchor="middle" x="83" y="-62.6" font-family="Times,serif" font-size="14.00">CardFrontModule</text>
</g>
<!-- CardFrontModule&#45;&gt;UiCardModule -->
<g id="edge3" class="edge">
<title>CardFrontModule&#45;&gt;UiCardModule</title>
<path fill="none" stroke="black" d="M114.12,-84.91C114.12,-104.14 114.12,-131.8 114.12,-131.8 114.12,-131.8 156.47,-131.8 156.47,-131.8"/>
<polygon fill="black" stroke="black" points="156.47,-135.3 166.47,-131.8 156.47,-128.3 156.47,-135.3"/>
</g>
</g>
</svg>
