<?xml version="1.0" encoding="UTF-8" standalone="no"?>
<!DOCTYPE svg PUBLIC "-//W3C//DTD SVG 1.1//EN"
 "http://www.w3.org/Graphics/SVG/1.1/DTD/svg11.dtd">
<!-- Generated by graphviz version 3.0.0 (20220226.1711)
 -->
<!-- Title: dependencies Pages: 1 -->
<svg width="304pt" height="247pt"
 viewBox="0.00 0.00 304.00 246.80" xmlns="http://www.w3.org/2000/svg" xmlns:xlink="http://www.w3.org/1999/xlink">
<g id="graph0" class="graph" transform="scale(1 1) rotate(0) translate(4 242.8)">
<title>dependencies</title>
<polygon fill="white" stroke="transparent" points="-4,4 -4,-242.8 300,-242.8 300,4 -4,4"/>
<text text-anchor="middle" x="148" y="-8.2" font-family="sans-serif" font-size="14.00">dependencies</text>
<g id="clust1" class="cluster">
<title>cluster_UiCardModule</title>
<polygon fill="none" stroke="black" stroke-dasharray="1,5" points="8,-32.8 8,-230.8 288,-230.8 288,-32.8 8,-32.8"/>
</g>
<g id="clust2" class="cluster">
<title>cluster_UiCardModule_declarations</title>
<polygon fill="none" stroke="black" points="156,-40.8 156,-92.8 280,-92.8 280,-40.8 156,-40.8"/>
</g>
<g id="clust4" class="cluster">
<title>cluster_UiCardModule_imports</title>
<polygon fill="none" stroke="black" points="16,-40.8 16,-92.8 148,-92.8 148,-40.8 16,-40.8"/>
</g>
<g id="clust5" class="cluster">
<title>cluster_UiCardModule_exports</title>
<polygon fill="none" stroke="black" points="80,-170.8 80,-222.8 216,-222.8 216,-170.8 80,-170.8"/>
</g>
<!-- CardComponent -->
<g id="node1" class="node">
<title>CardComponent</title>
<polygon fill="#ffffb3" stroke="black" points="272.05,-84.8 163.95,-84.8 163.95,-48.8 272.05,-48.8 272.05,-84.8"/>
<text text-anchor="middle" x="218" y="-62.6" font-family="Times,serif" font-size="14.00">CardComponent</text>
</g>
<!-- UiCardModule -->
<g id="node2" class="node">
<title>UiCardModule</title>
<polygon fill="#8dd3c7" stroke="black" points="198.27,-149.8 195.27,-153.8 174.27,-153.8 171.27,-149.8 97.73,-149.8 97.73,-113.8 198.27,-113.8 198.27,-149.8"/>
<text text-anchor="middle" x="148" y="-127.6" font-family="Times,serif" font-size="14.00">UiCardModule</text>
</g>
<!-- CardComponent&#45;&gt;UiCardModule -->
<g id="edge1" class="edge">
<title>CardComponent&#45;&gt;UiCardModule</title>
<path fill="none" stroke="black" d="M181.06,-84.91C181.06,-84.91 181.06,-103.79 181.06,-103.79"/>
<polygon fill="black" stroke="black" points="177.56,-103.79 181.06,-113.79 184.56,-103.79 177.56,-103.79"/>
</g>
<!-- CardBackModule  -->
<g id="node4" class="node">
<title>CardBackModule </title>
<polygon fill="#fb8072" stroke="black" points="207.53,-214.8 88.47,-214.8 88.47,-178.8 207.53,-178.8 207.53,-214.8"/>
<text text-anchor="middle" x="148" y="-192.6" font-family="Times,serif" font-size="14.00">CardBackModule </text>
</g>
<!-- UiCardModule&#45;&gt;CardBackModule  -->
<g id="edge3" class="edge">
<title>UiCardModule&#45;&gt;CardBackModule </title>
<path fill="none" stroke="black" stroke-dasharray="5,2" d="M148,-149.91C148,-149.91 148,-168.79 148,-168.79"/>
<polygon fill="black" stroke="black" points="144.5,-168.79 148,-178.79 151.5,-168.79 144.5,-168.79"/>
</g>
<!-- CardBackModule -->
<g id="node3" class="node">
<title>CardBackModule</title>
<polygon fill="#8dd3c7" stroke="black" points="139.53,-84.8 136.53,-88.8 115.53,-88.8 112.53,-84.8 24.47,-84.8 24.47,-48.8 139.53,-48.8 139.53,-84.8"/>
<text text-anchor="middle" x="82" y="-62.6" font-family="Times,serif" font-size="14.00">CardBackModule</text>
</g>
<!-- CardBackModule&#45;&gt;UiCardModule -->
<g id="edge2" class="edge">
<title>CardBackModule&#45;&gt;UiCardModule</title>
<path fill="none" stroke="black" d="M118.69,-84.91C118.69,-84.91 118.69,-103.79 118.69,-103.79"/>
<polygon fill="black" stroke="black" points="115.19,-103.79 118.69,-113.79 122.19,-103.79 115.19,-103.79"/>
</g>
</g>
</svg>
