<?xml version="1.0" encoding="UTF-8" standalone="no"?>
<!DOCTYPE svg PUBLIC "-//W3C//DTD SVG 1.1//EN"
 "http://www.w3.org/Graphics/SVG/1.1/DTD/svg11.dtd">
<!-- Generated by graphviz version 3.0.0 (20220226.1711)
 -->
<!-- Title: dependencies Pages: 1 -->
<svg width="164pt" height="174pt"
 viewBox="0.00 0.00 164.00 173.80" xmlns="http://www.w3.org/2000/svg" xmlns:xlink="http://www.w3.org/1999/xlink">
<g id="graph0" class="graph" transform="scale(1 1) rotate(0) translate(4 169.8)">
<title>dependencies</title>
<polygon fill="white" stroke="transparent" points="-4,4 -4,-169.8 160,-169.8 160,4 -4,4"/>
<text text-anchor="middle" x="78" y="-8.2" font-family="sans-serif" font-size="14.00">dependencies</text>
<g id="clust1" class="cluster">
<title>cluster_UiCardModule</title>
<polygon fill="none" stroke="black" stroke-dasharray="1,5" points="8,-32.8 8,-157.8 148,-157.8 148,-32.8 8,-32.8"/>
</g>
<g id="clust2" class="cluster">
<title>cluster_UiCardModule_declarations</title>
<polygon fill="none" stroke="black" points="16,-40.8 16,-92.8 140,-92.8 140,-40.8 16,-40.8"/>
</g>
<!-- CardComponent -->
<g id="node1" class="node">
<title>CardComponent</title>
<polygon fill="#ffffb3" stroke="black" points="132.05,-84.8 23.95,-84.8 23.95,-48.8 132.05,-48.8 132.05,-84.8"/>
<text text-anchor="middle" x="78" y="-62.6" font-family="Times,serif" font-size="14.00">CardComponent</text>
</g>
<!-- UiCardModule -->
<g id="node2" class="node">
<title>UiCardModule</title>
<polygon fill="#8dd3c7" stroke="black" points="128.27,-149.8 125.27,-153.8 104.27,-153.8 101.27,-149.8 27.73,-149.8 27.73,-113.8 128.27,-113.8 128.27,-149.8"/>
<text text-anchor="middle" x="78" y="-127.6" font-family="Times,serif" font-size="14.00">UiCardModule</text>
</g>
<!-- CardComponent&#45;&gt;UiCardModule -->
<g id="edge1" class="edge">
<title>CardComponent&#45;&gt;UiCardModule</title>
<path fill="none" stroke="black" d="M78,-84.91C78,-84.91 78,-103.79 78,-103.79"/>
<polygon fill="black" stroke="black" points="74.5,-103.79 78,-113.79 81.5,-103.79 74.5,-103.79"/>
</g>
</g>
</svg>
