<?xml version="1.0" encoding="UTF-8" standalone="no"?>
<!DOCTYPE svg PUBLIC "-//W3C//DTD SVG 1.1//EN"
 "http://www.w3.org/Graphics/SVG/1.1/DTD/svg11.dtd">
<!-- Generated by graphviz version 3.0.0 (20220226.1711)
 -->
<!-- Title: dependencies Pages: 1 -->
<svg width="314pt" height="247pt"
 viewBox="0.00 0.00 314.00 246.80" xmlns="http://www.w3.org/2000/svg" xmlns:xlink="http://www.w3.org/1999/xlink">
<g id="graph0" class="graph" transform="scale(1 1) rotate(0) translate(4 242.8)">
<title>dependencies</title>
<polygon fill="white" stroke="transparent" points="-4,4 -4,-242.8 310,-242.8 310,4 -4,4"/>
<text text-anchor="middle" x="153" y="-8.2" font-family="sans-serif" font-size="14.00">dependencies</text>
<g id="clust1" class="cluster">
<title>cluster_UiCardModule</title>
<polygon fill="none" stroke="black" stroke-dasharray="1,5" points="8,-32.8 8,-230.8 298,-230.8 298,-32.8 8,-32.8"/>
</g>
<g id="clust4" class="cluster">
<title>cluster_UiCardModule_exports</title>
<polygon fill="none" stroke="black" points="16,-170.8 16,-222.8 290,-222.8 290,-170.8 16,-170.8"/>
</g>
<g id="clust3" class="cluster">
<title>cluster_UiCardModule_imports</title>
<polygon fill="none" stroke="black" points="20,-40.8 20,-92.8 287,-92.8 287,-40.8 20,-40.8"/>
</g>
<!-- CardBackModule -->
<g id="node1" class="node">
<title>CardBackModule</title>
<polygon fill="#8dd3c7" stroke="black" points="278.53,-84.8 275.53,-88.8 254.53,-88.8 251.53,-84.8 163.47,-84.8 163.47,-48.8 278.53,-48.8 278.53,-84.8"/>
<text text-anchor="middle" x="221" y="-62.6" font-family="Times,serif" font-size="14.00">CardBackModule</text>
</g>
<!-- UiCardModule -->
<g id="node3" class="node">
<title>UiCardModule</title>
<polygon fill="#8dd3c7" stroke="black" points="137.27,-149.8 134.27,-153.8 113.27,-153.8 110.27,-149.8 36.73,-149.8 36.73,-113.8 137.27,-113.8 137.27,-149.8"/>
<text text-anchor="middle" x="87" y="-127.6" font-family="Times,serif" font-size="14.00">UiCardModule</text>
</g>
<!-- CardBackModule&#45;&gt;UiCardModule -->
<g id="edge1" class="edge">
<title>CardBackModule&#45;&gt;UiCardModule</title>
<path fill="none" stroke="black" d="M240.26,-84.82C240.26,-102.17 240.26,-125.8 240.26,-125.8 240.26,-125.8 147.61,-125.8 147.61,-125.8"/>
<polygon fill="black" stroke="black" points="147.61,-122.3 137.61,-125.8 147.61,-129.3 147.61,-122.3"/>
</g>
<!-- CardFrontModule -->
<g id="node2" class="node">
<title>CardFrontModule</title>
<polygon fill="#8dd3c7" stroke="black" points="145.6,-84.8 142.6,-88.8 121.6,-88.8 118.6,-84.8 28.4,-84.8 28.4,-48.8 145.6,-48.8 145.6,-84.8"/>
<text text-anchor="middle" x="87" y="-62.6" font-family="Times,serif" font-size="14.00">CardFrontModule</text>
</g>
<!-- CardFrontModule&#45;&gt;UiCardModule -->
<g id="edge2" class="edge">
<title>CardFrontModule&#45;&gt;UiCardModule</title>
<path fill="none" stroke="black" d="M87,-84.91C87,-84.91 87,-103.79 87,-103.79"/>
<polygon fill="black" stroke="black" points="83.5,-103.79 87,-113.79 90.5,-103.79 83.5,-103.79"/>
</g>
<!-- CardBackModule  -->
<g id="node4" class="node">
<title>CardBackModule </title>
<polygon fill="#fb8072" stroke="black" points="281.53,-214.8 162.47,-214.8 162.47,-178.8 281.53,-178.8 281.53,-214.8"/>
<text text-anchor="middle" x="222" y="-192.6" font-family="Times,serif" font-size="14.00">CardBackModule </text>
</g>
<!-- UiCardModule&#45;&gt;CardBackModule  -->
<g id="edge3" class="edge">
<title>UiCardModule&#45;&gt;CardBackModule </title>
<path fill="none" stroke="black" stroke-dasharray="5,2" d="M137.33,-137.8C168.16,-137.8 201.74,-137.8 201.74,-137.8 201.74,-137.8 201.74,-168.78 201.74,-168.78"/>
<polygon fill="black" stroke="black" points="198.24,-168.78 201.74,-178.78 205.24,-168.78 198.24,-168.78"/>
</g>
<!-- CardFrontModule  -->
<g id="node5" class="node">
<title>CardFrontModule </title>
<polygon fill="#fb8072" stroke="black" points="144.1,-214.8 23.9,-214.8 23.9,-178.8 144.1,-178.8 144.1,-214.8"/>
<text text-anchor="middle" x="84" y="-192.6" font-family="Times,serif" font-size="14.00">CardFrontModule </text>
</g>
<!-- UiCardModule&#45;&gt;CardFrontModule  -->
<g id="edge4" class="edge">
<title>UiCardModule&#45;&gt;CardFrontModule </title>
<path fill="none" stroke="black" stroke-dasharray="5,2" d="M87,-149.91C87,-149.91 87,-168.79 87,-168.79"/>
<polygon fill="black" stroke="black" points="83.5,-168.79 87,-178.79 90.5,-168.79 83.5,-168.79"/>
</g>
</g>
</svg>
