<?xml version="1.0" encoding="UTF-8" standalone="no"?>
<!DOCTYPE svg PUBLIC "-//W3C//DTD SVG 1.1//EN"
 "http://www.w3.org/Graphics/SVG/1.1/DTD/svg11.dtd">
<!-- Generated by graphviz version 2.47.0 (20210316.0004)
 -->
<!-- Title: dependencies Pages: 1 -->
<svg width="504pt" height="284pt"
 viewBox="0.00 0.00 504.00 284.00" xmlns="http://www.w3.org/2000/svg" xmlns:xlink="http://www.w3.org/1999/xlink">
<g id="graph0" class="graph" transform="scale(1 1) rotate(0) translate(4 280)">
<title>dependencies</title>
<polygon fill="white" stroke="transparent" points="-4,4 -4,-280 500,-280 500,4 -4,4"/>
<text text-anchor="start" x="227.01" y="-42.4" font-family="Times-12" font-weight="bold" font-size="14.00">Legend</text>
<polygon fill="#ffffb3" stroke="transparent" points="14,-10 14,-30 34,-30 34,-10 14,-10"/>
<text text-anchor="start" x="37.63" y="-15.4" font-family="Times-12" font-size="14.00"> &#160;Declarations</text>
<polygon fill="#8dd3c7" stroke="transparent" points="127,-10 127,-30 147,-30 147,-10 127,-10"/>
<text text-anchor="start" x="150.73" y="-15.4" font-family="Times-12" font-size="14.00"> &#160;Module</text>
<polygon fill="#80b1d3" stroke="transparent" points="213,-10 213,-30 233,-30 233,-10 213,-10"/>
<text text-anchor="start" x="236.78" y="-15.4" font-family="Times-12" font-size="14.00"> &#160;Bootstrap</text>
<polygon fill="#fdb462" stroke="transparent" points="310,-10 310,-30 330,-30 330,-10 310,-10"/>
<text text-anchor="start" x="333.67" y="-15.4" font-family="Times-12" font-size="14.00"> &#160;Providers</text>
<polygon fill="#fb8072" stroke="transparent" points="406,-10 406,-30 426,-30 426,-10 406,-10"/>
<text text-anchor="start" x="429.73" y="-15.4" font-family="Times-12" font-size="14.00"> &#160;Exports</text>
<g id="clust1" class="cluster">
<title>cluster_UiCardModule</title>
<polygon fill="none" stroke="black" stroke-dasharray="1,5" points="103,-70 103,-268 393,-268 393,-70 103,-70"/>
</g>
<g id="clust3" class="cluster">
<title>cluster_UiCardModule_imports</title>
<polygon fill="none" stroke="black" points="115,-78 115,-130 382,-130 382,-78 115,-78"/>
</g>
<g id="clust4" class="cluster">
<title>cluster_UiCardModule_exports</title>
<polygon fill="none" stroke="black" points="111,-208 111,-260 385,-260 385,-208 111,-208"/>
</g>
<!-- CardBackModule -->
<g id="node1" class="node">
<title>CardBackModule</title>
<polygon fill="#8dd3c7" stroke="black" points="373.53,-122 370.53,-126 349.53,-126 346.53,-122 258.47,-122 258.47,-86 373.53,-86 373.53,-122"/>
<text text-anchor="middle" x="316" y="-99.8" font-family="Times,serif" font-size="14.00">CardBackModule</text>
</g>
<!-- UiCardModule -->
<g id="node3" class="node">
<title>UiCardModule</title>
<polygon fill="#8dd3c7" stroke="black" points="232.26,-187 229.26,-191 208.26,-191 205.26,-187 131.74,-187 131.74,-151 232.26,-151 232.26,-187"/>
<text text-anchor="middle" x="182" y="-164.8" font-family="Times,serif" font-size="14.00">UiCardModule</text>
</g>
<!-- CardBackModule&#45;&gt;UiCardModule -->
<g id="edge1" class="edge">
<title>CardBackModule&#45;&gt;UiCardModule</title>
<path fill="none" stroke="black" d="M335.25,-122.02C335.25,-139.37 335.25,-163 335.25,-163 335.25,-163 242.61,-163 242.61,-163"/>
<polygon fill="black" stroke="black" points="242.61,-159.5 232.61,-163 242.61,-166.5 242.61,-159.5"/>
</g>
<!-- CardFrontModule -->
<g id="node2" class="node">
<title>CardFrontModule</title>
<polygon fill="#8dd3c7" stroke="black" points="240.6,-122 237.6,-126 216.6,-126 213.6,-122 123.4,-122 123.4,-86 240.6,-86 240.6,-122"/>
<text text-anchor="middle" x="182" y="-99.8" font-family="Times,serif" font-size="14.00">CardFrontModule</text>
</g>
<!-- CardFrontModule&#45;&gt;UiCardModule -->
<g id="edge2" class="edge">
<title>CardFrontModule&#45;&gt;UiCardModule</title>
<path fill="none" stroke="black" d="M182,-122.11C182,-122.11 182,-140.99 182,-140.99"/>
<polygon fill="black" stroke="black" points="178.5,-140.99 182,-150.99 185.5,-140.99 178.5,-140.99"/>
</g>
<!-- CardBackModule  -->
<g id="node4" class="node">
<title>CardBackModule </title>
<polygon fill="#fb8072" stroke="black" points="376.53,-252 257.47,-252 257.47,-216 376.53,-216 376.53,-252"/>
<text text-anchor="middle" x="317" y="-229.8" font-family="Times,serif" font-size="14.00">CardBackModule </text>
</g>
<!-- UiCardModule&#45;&gt;CardBackModule  -->
<g id="edge3" class="edge">
<title>UiCardModule&#45;&gt;CardBackModule </title>
<path fill="none" stroke="black" stroke-dasharray="5,2" d="M232.33,-175C263.16,-175 296.75,-175 296.75,-175 296.75,-175 296.75,-205.98 296.75,-205.98"/>
<polygon fill="black" stroke="black" points="293.25,-205.98 296.75,-215.98 300.25,-205.98 293.25,-205.98"/>
</g>
<!-- CardFrontModule  -->
<g id="node5" class="node">
<title>CardFrontModule </title>
<polygon fill="#fb8072" stroke="black" points="239.1,-252 118.9,-252 118.9,-216 239.1,-216 239.1,-252"/>
<text text-anchor="middle" x="179" y="-229.8" font-family="Times,serif" font-size="14.00">CardFrontModule </text>
</g>
<!-- UiCardModule&#45;&gt;CardFrontModule  -->
<g id="edge4" class="edge">
<title>UiCardModule&#45;&gt;CardFrontModule </title>
<path fill="none" stroke="black" stroke-dasharray="5,2" d="M182,-187.11C182,-187.11 182,-205.99 182,-205.99"/>
<polygon fill="black" stroke="black" points="178.5,-205.99 182,-215.99 185.5,-205.99 178.5,-205.99"/>
</g>
</g>
</svg>
