<?xml version="1.0" encoding="UTF-8" standalone="no"?>
<!DOCTYPE svg PUBLIC "-//W3C//DTD SVG 1.1//EN"
 "http://www.w3.org/Graphics/SVG/1.1/DTD/svg11.dtd">
<!-- Generated by graphviz version 3.0.0 (20220226.1711)
 -->
<!-- Title: dependencies Pages: 1 -->
<svg width="288pt" height="247pt"
 viewBox="0.00 0.00 288.00 246.80" xmlns="http://www.w3.org/2000/svg" xmlns:xlink="http://www.w3.org/1999/xlink">
<g id="graph0" class="graph" transform="scale(1 1) rotate(0) translate(4 242.8)">
<title>dependencies</title>
<polygon fill="white" stroke="transparent" points="-4,4 -4,-242.8 284,-242.8 284,4 -4,4"/>
<text text-anchor="middle" x="140" y="-8.2" font-family="sans-serif" font-size="14.00">dependencies</text>
<g id="clust1" class="cluster">
<title>cluster_PilesModule</title>
<polygon fill="none" stroke="black" stroke-dasharray="1,5" points="8,-32.8 8,-230.8 272,-230.8 272,-32.8 8,-32.8"/>
</g>
<g id="clust2" class="cluster">
<title>cluster_PilesModule_declarations</title>
<polygon fill="none" stroke="black" points="140,-40.8 140,-92.8 264,-92.8 264,-40.8 140,-40.8"/>
</g>
<g id="clust4" class="cluster">
<title>cluster_PilesModule_imports</title>
<polygon fill="none" stroke="black" points="16,-40.8 16,-92.8 132,-92.8 132,-40.8 16,-40.8"/>
</g>
<g id="clust5" class="cluster">
<title>cluster_PilesModule_exports</title>
<polygon fill="none" stroke="black" points="76,-170.8 76,-222.8 204,-222.8 204,-170.8 76,-170.8"/>
</g>
<!-- PilesComponent -->
<g id="node1" class="node">
<title>PilesComponent</title>
<polygon fill="#ffffb3" stroke="black" points="256.06,-84.8 147.94,-84.8 147.94,-48.8 256.06,-48.8 256.06,-84.8"/>
<text text-anchor="middle" x="202" y="-62.6" font-family="Times,serif" font-size="14.00">PilesComponent</text>
</g>
<!-- PilesModule -->
<g id="node2" class="node">
<title>PilesModule</title>
<polygon fill="#8dd3c7" stroke="black" points="183.28,-149.8 180.28,-153.8 159.28,-153.8 156.28,-149.8 96.72,-149.8 96.72,-113.8 183.28,-113.8 183.28,-149.8"/>
<text text-anchor="middle" x="140" y="-127.6" font-family="Times,serif" font-size="14.00">PilesModule</text>
</g>
<!-- PilesComponent&#45;&gt;PilesModule -->
<g id="edge1" class="edge">
<title>PilesComponent&#45;&gt;PilesModule</title>
<path fill="none" stroke="black" d="M165.56,-84.91C165.56,-84.91 165.56,-103.79 165.56,-103.79"/>
<polygon fill="black" stroke="black" points="162.06,-103.79 165.56,-113.79 169.06,-103.79 162.06,-103.79"/>
</g>
<!-- PilesComponent  -->
<g id="node4" class="node">
<title>PilesComponent </title>
<polygon fill="#fb8072" stroke="black" points="196.06,-214.8 83.94,-214.8 83.94,-178.8 196.06,-178.8 196.06,-214.8"/>
<text text-anchor="middle" x="140" y="-192.6" font-family="Times,serif" font-size="14.00">PilesComponent </text>
</g>
<!-- PilesModule&#45;&gt;PilesComponent  -->
<g id="edge3" class="edge">
<title>PilesModule&#45;&gt;PilesComponent </title>
<path fill="none" stroke="black" stroke-dasharray="5,2" d="M140,-149.91C140,-149.91 140,-168.79 140,-168.79"/>
<polygon fill="black" stroke="black" points="136.5,-168.79 140,-178.79 143.5,-168.79 136.5,-168.79"/>
</g>
<!-- UiCardModule -->
<g id="node3" class="node">
<title>UiCardModule</title>
<polygon fill="#8dd3c7" stroke="black" points="124.27,-84.8 121.27,-88.8 100.27,-88.8 97.27,-84.8 23.73,-84.8 23.73,-48.8 124.27,-48.8 124.27,-84.8"/>
<text text-anchor="middle" x="74" y="-62.6" font-family="Times,serif" font-size="14.00">UiCardModule</text>
</g>
<!-- UiCardModule&#45;&gt;PilesModule -->
<g id="edge2" class="edge">
<title>UiCardModule&#45;&gt;PilesModule</title>
<path fill="none" stroke="black" d="M110.5,-84.91C110.5,-84.91 110.5,-103.79 110.5,-103.79"/>
<polygon fill="black" stroke="black" points="107,-103.79 110.5,-113.79 114,-103.79 107,-103.79"/>
</g>
</g>
</svg>
