<?xml version="1.0" encoding="UTF-8" standalone="no"?>
<!DOCTYPE svg PUBLIC "-//W3C//DTD SVG 1.1//EN"
 "http://www.w3.org/Graphics/SVG/1.1/DTD/svg11.dtd">
<!-- Generated by graphviz version 2.47.0 (20210316.0004)
 -->
<!-- Title: dependencies Pages: 1 -->
<svg width="504pt" height="284pt"
 viewBox="0.00 0.00 504.00 284.00" xmlns="http://www.w3.org/2000/svg" xmlns:xlink="http://www.w3.org/1999/xlink">
<g id="graph0" class="graph" transform="scale(1 1) rotate(0) translate(4 280)">
<title>dependencies</title>
<polygon fill="white" stroke="transparent" points="-4,4 -4,-280 500,-280 500,4 -4,4"/>
<text text-anchor="start" x="227.01" y="-42.4" font-family="Times-12" font-weight="bold" font-size="14.00">Legend</text>
<polygon fill="#ffffb3" stroke="transparent" points="14,-10 14,-30 34,-30 34,-10 14,-10"/>
<text text-anchor="start" x="37.63" y="-15.4" font-family="Times-12" font-size="14.00"> &#160;Declarations</text>
<polygon fill="#8dd3c7" stroke="transparent" points="127,-10 127,-30 147,-30 147,-10 127,-10"/>
<text text-anchor="start" x="150.73" y="-15.4" font-family="Times-12" font-size="14.00"> &#160;Module</text>
<polygon fill="#80b1d3" stroke="transparent" points="213,-10 213,-30 233,-30 233,-10 213,-10"/>
<text text-anchor="start" x="236.78" y="-15.4" font-family="Times-12" font-size="14.00"> &#160;Bootstrap</text>
<polygon fill="#fdb462" stroke="transparent" points="310,-10 310,-30 330,-30 330,-10 310,-10"/>
<text text-anchor="start" x="333.67" y="-15.4" font-family="Times-12" font-size="14.00"> &#160;Providers</text>
<polygon fill="#fb8072" stroke="transparent" points="406,-10 406,-30 426,-30 426,-10 406,-10"/>
<text text-anchor="start" x="429.73" y="-15.4" font-family="Times-12" font-size="14.00"> &#160;Exports</text>
<g id="clust1" class="cluster">
<title>cluster_PilesModule</title>
<polygon fill="none" stroke="black" stroke-dasharray="1,5" points="116,-70 116,-268 380,-268 380,-70 116,-70"/>
</g>
<g id="clust4" class="cluster">
<title>cluster_PilesModule_imports</title>
<polygon fill="none" stroke="black" points="256,-78 256,-130 372,-130 372,-78 256,-78"/>
</g>
<g id="clust5" class="cluster">
<title>cluster_PilesModule_exports</title>
<polygon fill="none" stroke="black" points="184,-208 184,-260 312,-260 312,-208 184,-208"/>
</g>
<g id="clust2" class="cluster">
<title>cluster_PilesModule_declarations</title>
<polygon fill="none" stroke="black" points="124,-78 124,-130 248,-130 248,-78 124,-78"/>
</g>
<!-- PilesComponent -->
<g id="node1" class="node">
<title>PilesComponent</title>
<polygon fill="#ffffb3" stroke="black" points="240.06,-122 131.94,-122 131.94,-86 240.06,-86 240.06,-122"/>
<text text-anchor="middle" x="186" y="-99.8" font-family="Times,serif" font-size="14.00">PilesComponent</text>
</g>
<!-- PilesModule -->
<g id="node2" class="node">
<title>PilesModule</title>
<polygon fill="#8dd3c7" stroke="black" points="291.27,-187 288.27,-191 267.27,-191 264.27,-187 204.73,-187 204.73,-151 291.27,-151 291.27,-187"/>
<text text-anchor="middle" x="248" y="-164.8" font-family="Times,serif" font-size="14.00">PilesModule</text>
</g>
<!-- PilesComponent&#45;&gt;PilesModule -->
<g id="edge1" class="edge">
<title>PilesComponent&#45;&gt;PilesModule</title>
<path fill="none" stroke="black" d="M222.45,-122.11C222.45,-122.11 222.45,-140.99 222.45,-140.99"/>
<polygon fill="black" stroke="black" points="218.95,-140.99 222.45,-150.99 225.95,-140.99 218.95,-140.99"/>
</g>
<!-- PilesComponent  -->
<g id="node4" class="node">
<title>PilesComponent </title>
<polygon fill="#fb8072" stroke="black" points="304.06,-252 191.94,-252 191.94,-216 304.06,-216 304.06,-252"/>
<text text-anchor="middle" x="248" y="-229.8" font-family="Times,serif" font-size="14.00">PilesComponent </text>
</g>
<!-- PilesModule&#45;&gt;PilesComponent  -->
<g id="edge3" class="edge">
<title>PilesModule&#45;&gt;PilesComponent </title>
<path fill="none" stroke="black" stroke-dasharray="5,2" d="M248,-187.11C248,-187.11 248,-205.99 248,-205.99"/>
<polygon fill="black" stroke="black" points="244.5,-205.99 248,-215.99 251.5,-205.99 244.5,-205.99"/>
</g>
<!-- UiCardModule -->
<g id="node3" class="node">
<title>UiCardModule</title>
<polygon fill="#8dd3c7" stroke="black" points="364.26,-122 361.26,-126 340.26,-126 337.26,-122 263.74,-122 263.74,-86 364.26,-86 364.26,-122"/>
<text text-anchor="middle" x="314" y="-99.8" font-family="Times,serif" font-size="14.00">UiCardModule</text>
</g>
<!-- UiCardModule&#45;&gt;PilesModule -->
<g id="edge2" class="edge">
<title>UiCardModule&#45;&gt;PilesModule</title>
<path fill="none" stroke="black" d="M277.5,-122.11C277.5,-122.11 277.5,-140.99 277.5,-140.99"/>
<polygon fill="black" stroke="black" points="274,-140.99 277.5,-150.99 281,-140.99 274,-140.99"/>
</g>
</g>
</svg>
