<?xml version="1.0" encoding="UTF-8" standalone="no"?>
<!DOCTYPE svg PUBLIC "-//W3C//DTD SVG 1.1//EN"
 "http://www.w3.org/Graphics/SVG/1.1/DTD/svg11.dtd">
<!-- Generated by graphviz version 3.0.0 (20220226.1711)
 -->
<!-- Title: dependencies Pages: 1 -->
<svg width="196pt" height="247pt"
 viewBox="0.00 0.00 196.00 246.80" xmlns="http://www.w3.org/2000/svg" xmlns:xlink="http://www.w3.org/1999/xlink">
<g id="graph0" class="graph" transform="scale(1 1) rotate(0) translate(4 242.8)">
<title>dependencies</title>
<polygon fill="white" stroke="transparent" points="-4,4 -4,-242.8 192,-242.8 192,4 -4,4"/>
<text text-anchor="middle" x="94" y="-8.2" font-family="sans-serif" font-size="14.00">dependencies</text>
<g id="clust1" class="cluster">
<title>cluster_CardBackModule</title>
<polygon fill="none" stroke="black" stroke-dasharray="1,5" points="8,-32.8 8,-230.8 180,-230.8 180,-32.8 8,-32.8"/>
</g>
<g id="clust2" class="cluster">
<title>cluster_CardBackModule_declarations</title>
<polygon fill="none" stroke="black" points="17,-40.8 17,-92.8 171,-92.8 171,-40.8 17,-40.8"/>
</g>
<g id="clust5" class="cluster">
<title>cluster_CardBackModule_exports</title>
<polygon fill="none" stroke="black" points="16,-170.8 16,-222.8 172,-222.8 172,-170.8 16,-170.8"/>
</g>
<!-- CardBackComponent -->
<g id="node1" class="node">
<title>CardBackComponent</title>
<polygon fill="#ffffb3" stroke="black" points="162.81,-84.8 25.19,-84.8 25.19,-48.8 162.81,-48.8 162.81,-84.8"/>
<text text-anchor="middle" x="94" y="-62.6" font-family="Times,serif" font-size="14.00">CardBackComponent</text>
</g>
<!-- CardBackModule -->
<g id="node2" class="node">
<title>CardBackModule</title>
<polygon fill="#8dd3c7" stroke="black" points="151.53,-149.8 148.53,-153.8 127.53,-153.8 124.53,-149.8 36.47,-149.8 36.47,-113.8 151.53,-113.8 151.53,-149.8"/>
<text text-anchor="middle" x="94" y="-127.6" font-family="Times,serif" font-size="14.00">CardBackModule</text>
</g>
<!-- CardBackComponent&#45;&gt;CardBackModule -->
<g id="edge1" class="edge">
<title>CardBackComponent&#45;&gt;CardBackModule</title>
<path fill="none" stroke="black" d="M94,-84.91C94,-84.91 94,-103.79 94,-103.79"/>
<polygon fill="black" stroke="black" points="90.5,-103.79 94,-113.79 97.5,-103.79 90.5,-103.79"/>
</g>
<!-- CardBackComponent  -->
<g id="node3" class="node">
<title>CardBackComponent </title>
<polygon fill="#fb8072" stroke="black" points="164.31,-214.8 23.69,-214.8 23.69,-178.8 164.31,-178.8 164.31,-214.8"/>
<text text-anchor="middle" x="94" y="-192.6" font-family="Times,serif" font-size="14.00">CardBackComponent </text>
</g>
<!-- CardBackModule&#45;&gt;CardBackComponent  -->
<g id="edge2" class="edge">
<title>CardBackModule&#45;&gt;CardBackComponent </title>
<path fill="none" stroke="black" stroke-dasharray="5,2" d="M94,-149.91C94,-149.91 94,-168.79 94,-168.79"/>
<polygon fill="black" stroke="black" points="90.5,-168.79 94,-178.79 97.5,-168.79 90.5,-168.79"/>
</g>
</g>
</svg>
