<?xml version="1.0" encoding="UTF-8" standalone="no"?>
<!DOCTYPE svg PUBLIC "-//W3C//DTD SVG 1.1//EN"
 "http://www.w3.org/Graphics/SVG/1.1/DTD/svg11.dtd">
<!-- Generated by graphviz version 3.0.0 (20220226.1711)
 -->
<!-- Title: dependencies Pages: 1 -->
<svg width="1706pt" height="174pt"
 viewBox="0.00 0.00 1706.00 173.80" xmlns="http://www.w3.org/2000/svg" xmlns:xlink="http://www.w3.org/1999/xlink">
<g id="graph0" class="graph" transform="scale(1 1) rotate(0) translate(4 169.8)">
<title>dependencies</title>
<polygon fill="white" stroke="transparent" points="-4,4 -4,-169.8 1702,-169.8 1702,4 -4,4"/>
<text text-anchor="middle" x="849" y="-8.2" font-family="sans-serif" font-size="14.00">dependencies</text>
<g id="clust1" class="cluster">
<title>cluster_DataAccessGameModule</title>
<polygon fill="none" stroke="black" stroke-dasharray="1,5" points="8,-32.8 8,-157.8 1690,-157.8 1690,-32.8 8,-32.8"/>
</g>
<g id="clust6" class="cluster">
<title>cluster_DataAccessGameModule_providers</title>
<polygon fill="none" stroke="black" points="16,-40.8 16,-92.8 1682,-92.8 1682,-40.8 16,-40.8"/>
</g>
<!-- DiscardPileCardsFacade -->
<g id="node1" class="node">
<title>DiscardPileCardsFacade</title>
<ellipse fill="#fdb462" stroke="black" cx="1568" cy="-66.8" rx="105.93" ry="18"/>
<text text-anchor="middle" x="1568" y="-62.6" font-family="Times,serif" font-size="14.00">DiscardPileCardsFacade</text>
</g>
<!-- DataAccessGameModule -->
<g id="node9" class="node">
<title>DataAccessGameModule</title>
<polygon fill="#8dd3c7" stroke="black" points="886.56,-149.8 883.56,-153.8 862.56,-153.8 859.56,-149.8 727.44,-149.8 727.44,-113.8 886.56,-113.8 886.56,-149.8"/>
<text text-anchor="middle" x="807" y="-127.6" font-family="Times,serif" font-size="14.00">DataAccessGameModule</text>
</g>
<!-- DiscardPileCardsFacade&#45;&gt;DataAccessGameModule -->
<g id="edge1" class="edge">
<title>DiscardPileCardsFacade&#45;&gt;DataAccessGameModule</title>
<path fill="none" stroke="black" d="M1568,-85.09C1568,-107.01 1568,-140.8 1568,-140.8 1568,-140.8 896.64,-140.8 896.64,-140.8"/>
<polygon fill="black" stroke="black" points="896.64,-137.3 886.64,-140.8 896.64,-144.3 896.64,-137.3"/>
</g>
<!-- DomainsCardsFacade -->
<g id="node2" class="node">
<title>DomainsCardsFacade</title>
<ellipse fill="#fdb462" stroke="black" cx="1348" cy="-66.8" rx="95.56" ry="18"/>
<text text-anchor="middle" x="1348" y="-62.6" font-family="Times,serif" font-size="14.00">DomainsCardsFacade</text>
</g>
<!-- DomainsCardsFacade&#45;&gt;DataAccessGameModule -->
<g id="edge2" class="edge">
<title>DomainsCardsFacade&#45;&gt;DataAccessGameModule</title>
<path fill="none" stroke="black" d="M1348,-84.91C1348,-104.14 1348,-131.8 1348,-131.8 1348,-131.8 896.54,-131.8 896.54,-131.8"/>
<polygon fill="black" stroke="black" points="896.54,-128.3 886.54,-131.8 896.54,-135.3 896.54,-128.3"/>
</g>
<!-- EventsPileCardsFacade -->
<g id="node3" class="node">
<title>EventsPileCardsFacade</title>
<ellipse fill="#fdb462" stroke="black" cx="1132" cy="-66.8" rx="102.43" ry="18"/>
<text text-anchor="middle" x="1132" y="-62.6" font-family="Times,serif" font-size="14.00">EventsPileCardsFacade</text>
</g>
<!-- EventsPileCardsFacade&#45;&gt;DataAccessGameModule -->
<g id="edge3" class="edge">
<title>EventsPileCardsFacade&#45;&gt;DataAccessGameModule</title>
<path fill="none" stroke="black" d="M1132,-84.83C1132,-101.2 1132,-122.8 1132,-122.8 1132,-122.8 896.92,-122.8 896.92,-122.8"/>
<polygon fill="black" stroke="black" points="896.92,-119.3 886.92,-122.8 896.92,-126.3 896.92,-119.3"/>
</g>
<!-- FaceUpPilesCardsFacade -->
<g id="node4" class="node">
<title>FaceUpPilesCardsFacade</title>
<ellipse fill="#fdb462" stroke="black" cx="902" cy="-66.8" rx="109.95" ry="18"/>
<text text-anchor="middle" x="902" y="-62.6" font-family="Times,serif" font-size="14.00">FaceUpPilesCardsFacade</text>
</g>
<!-- FaceUpPilesCardsFacade&#45;&gt;DataAccessGameModule -->
<g id="edge4" class="edge">
<title>FaceUpPilesCardsFacade&#45;&gt;DataAccessGameModule</title>
<path fill="none" stroke="black" d="M839.4,-81.88C839.4,-81.88 839.4,-103.56 839.4,-103.56"/>
<polygon fill="black" stroke="black" points="835.9,-103.56 839.4,-113.56 842.9,-103.56 835.9,-103.56"/>
</g>
<!-- GameFacade -->
<g id="node5" class="node">
<title>GameFacade</title>
<ellipse fill="#fdb462" stroke="black" cx="713" cy="-66.8" rx="61.38" ry="18"/>
<text text-anchor="middle" x="713" y="-62.6" font-family="Times,serif" font-size="14.00">GameFacade</text>
</g>
<!-- GameFacade&#45;&gt;DataAccessGameModule -->
<g id="edge5" class="edge">
<title>GameFacade&#45;&gt;DataAccessGameModule</title>
<path fill="none" stroke="black" d="M750.96,-81.23C750.96,-81.23 750.96,-103.69 750.96,-103.69"/>
<polygon fill="black" stroke="black" points="747.46,-103.69 750.96,-113.69 754.46,-103.69 747.46,-103.69"/>
</g>
<!-- HandsCardsFacade -->
<g id="node6" class="node">
<title>HandsCardsFacade</title>
<ellipse fill="#fdb462" stroke="black" cx="548" cy="-66.8" rx="85.67" ry="18"/>
<text text-anchor="middle" x="548" y="-62.6" font-family="Times,serif" font-size="14.00">HandsCardsFacade</text>
</g>
<!-- HandsCardsFacade&#45;&gt;DataAccessGameModule -->
<g id="edge6" class="edge">
<title>HandsCardsFacade&#45;&gt;DataAccessGameModule</title>
<path fill="none" stroke="black" d="M548,-84.83C548,-101.2 548,-122.8 548,-122.8 548,-122.8 717.18,-122.8 717.18,-122.8"/>
<polygon fill="black" stroke="black" points="717.18,-126.3 727.18,-122.8 717.18,-119.3 717.18,-126.3"/>
</g>
<!-- LandsPileCardsFacade -->
<g id="node7" class="node">
<title>LandsPileCardsFacade</title>
<ellipse fill="#fdb462" stroke="black" cx="345" cy="-66.8" rx="99.57" ry="18"/>
<text text-anchor="middle" x="345" y="-62.6" font-family="Times,serif" font-size="14.00">LandsPileCardsFacade</text>
</g>
<!-- LandsPileCardsFacade&#45;&gt;DataAccessGameModule -->
<g id="edge7" class="edge">
<title>LandsPileCardsFacade&#45;&gt;DataAccessGameModule</title>
<path fill="none" stroke="black" d="M345,-84.91C345,-104.14 345,-131.8 345,-131.8 345,-131.8 717.32,-131.8 717.32,-131.8"/>
<polygon fill="black" stroke="black" points="717.32,-135.3 727.32,-131.8 717.32,-128.3 717.32,-135.3"/>
</g>
<!-- StockPilesCardsFacade -->
<g id="node8" class="node">
<title>StockPilesCardsFacade</title>
<ellipse fill="#fdb462" stroke="black" cx="126" cy="-66.8" rx="101.88" ry="18"/>
<text text-anchor="middle" x="126" y="-62.6" font-family="Times,serif" font-size="14.00">StockPilesCardsFacade</text>
</g>
<!-- StockPilesCardsFacade&#45;&gt;DataAccessGameModule -->
<g id="edge8" class="edge">
<title>StockPilesCardsFacade&#45;&gt;DataAccessGameModule</title>
<path fill="none" stroke="black" d="M126,-85.09C126,-107.01 126,-140.8 126,-140.8 126,-140.8 717.21,-140.8 717.21,-140.8"/>
<polygon fill="black" stroke="black" points="717.21,-144.3 727.21,-140.8 717.21,-137.3 717.21,-144.3"/>
</g>
</g>
</svg>
