<?xml version="1.0" encoding="UTF-8" standalone="no"?>
<!DOCTYPE svg PUBLIC "-//W3C//DTD SVG 1.1//EN"
 "http://www.w3.org/Graphics/SVG/1.1/DTD/svg11.dtd">
<!-- Generated by graphviz version 3.0.0 (20220226.1711)
 -->
<!-- Title: dependencies Pages: 1 -->
<svg width="1763pt" height="174pt"
 viewBox="0.00 0.00 1763.00 173.80" xmlns="http://www.w3.org/2000/svg" xmlns:xlink="http://www.w3.org/1999/xlink">
<g id="graph0" class="graph" transform="scale(1 1) rotate(0) translate(4 169.8)">
<title>dependencies</title>
<polygon fill="white" stroke="transparent" points="-4,4 -4,-169.8 1759,-169.8 1759,4 -4,4"/>
<text text-anchor="middle" x="877.5" y="-8.2" font-family="sans-serif" font-size="14.00">dependencies</text>
<g id="clust1" class="cluster">
<title>cluster_DataAccessGameModule</title>
<polygon fill="none" stroke="black" stroke-dasharray="1,5" points="8,-32.8 8,-157.8 1747,-157.8 1747,-32.8 8,-32.8"/>
</g>
<g id="clust6" class="cluster">
<title>cluster_DataAccessGameModule_providers</title>
<polygon fill="none" stroke="black" points="16,-40.8 16,-92.8 1739,-92.8 1739,-40.8 16,-40.8"/>
</g>
<!-- AgglomerationPilesCardsFacade -->
<g id="node1" class="node">
<title>AgglomerationPilesCardsFacade</title>
<ellipse fill="#fdb462" stroke="black" cx="1593" cy="-66.8" rx="138.31" ry="18"/>
<text text-anchor="middle" x="1593" y="-62.6" font-family="Times,serif" font-size="14.00">AgglomerationPilesCardsFacade</text>
</g>
<!-- DataAccessGameModule -->
<g id="node9" class="node">
<title>DataAccessGameModule</title>
<polygon fill="#8dd3c7" stroke="black" points="883.56,-149.8 880.56,-153.8 859.56,-153.8 856.56,-149.8 724.44,-149.8 724.44,-113.8 883.56,-113.8 883.56,-149.8"/>
<text text-anchor="middle" x="804" y="-127.6" font-family="Times,serif" font-size="14.00">DataAccessGameModule</text>
</g>
<!-- AgglomerationPilesCardsFacade&#45;&gt;DataAccessGameModule -->
<g id="edge1" class="edge">
<title>AgglomerationPilesCardsFacade&#45;&gt;DataAccessGameModule</title>
<path fill="none" stroke="black" d="M1593,-85.09C1593,-107.01 1593,-140.8 1593,-140.8 1593,-140.8 893.63,-140.8 893.63,-140.8"/>
<polygon fill="black" stroke="black" points="893.63,-137.3 883.63,-140.8 893.63,-144.3 893.63,-137.3"/>
</g>
<!-- DiscardPileCardsFacade -->
<g id="node2" class="node">
<title>DiscardPileCardsFacade</title>
<ellipse fill="#fdb462" stroke="black" cx="1331" cy="-66.8" rx="105.93" ry="18"/>
<text text-anchor="middle" x="1331" y="-62.6" font-family="Times,serif" font-size="14.00">DiscardPileCardsFacade</text>
</g>
<!-- DiscardPileCardsFacade&#45;&gt;DataAccessGameModule -->
<g id="edge2" class="edge">
<title>DiscardPileCardsFacade&#45;&gt;DataAccessGameModule</title>
<path fill="none" stroke="black" d="M1331,-84.91C1331,-104.14 1331,-131.8 1331,-131.8 1331,-131.8 893.75,-131.8 893.75,-131.8"/>
<polygon fill="black" stroke="black" points="893.75,-128.3 883.75,-131.8 893.75,-135.3 893.75,-128.3"/>
</g>
<!-- DomainsCardsFacade -->
<g id="node3" class="node">
<title>DomainsCardsFacade</title>
<ellipse fill="#fdb462" stroke="black" cx="1111" cy="-66.8" rx="95.56" ry="18"/>
<text text-anchor="middle" x="1111" y="-62.6" font-family="Times,serif" font-size="14.00">DomainsCardsFacade</text>
</g>
<!-- DomainsCardsFacade&#45;&gt;DataAccessGameModule -->
<g id="edge3" class="edge">
<title>DomainsCardsFacade&#45;&gt;DataAccessGameModule</title>
<path fill="none" stroke="black" d="M1111,-84.83C1111,-101.2 1111,-122.8 1111,-122.8 1111,-122.8 893.86,-122.8 893.86,-122.8"/>
<polygon fill="black" stroke="black" points="893.86,-119.3 883.86,-122.8 893.86,-126.3 893.86,-119.3"/>
</g>
<!-- EventsPileCardsFacade -->
<g id="node4" class="node">
<title>EventsPileCardsFacade</title>
<ellipse fill="#fdb462" stroke="black" cx="895" cy="-66.8" rx="102.43" ry="18"/>
<text text-anchor="middle" x="895" y="-62.6" font-family="Times,serif" font-size="14.00">EventsPileCardsFacade</text>
</g>
<!-- EventsPileCardsFacade&#45;&gt;DataAccessGameModule -->
<g id="edge4" class="edge">
<title>EventsPileCardsFacade&#45;&gt;DataAccessGameModule</title>
<path fill="none" stroke="black" d="M838.16,-81.88C838.16,-81.88 838.16,-103.56 838.16,-103.56"/>
<polygon fill="black" stroke="black" points="834.66,-103.56 838.16,-113.56 841.66,-103.56 834.66,-103.56"/>
</g>
<!-- GameFacade -->
<g id="node5" class="node">
<title>GameFacade</title>
<ellipse fill="#fdb462" stroke="black" cx="713" cy="-66.8" rx="61.38" ry="18"/>
<text text-anchor="middle" x="713" y="-62.6" font-family="Times,serif" font-size="14.00">GameFacade</text>
</g>
<!-- GameFacade&#45;&gt;DataAccessGameModule -->
<g id="edge5" class="edge">
<title>GameFacade&#45;&gt;DataAccessGameModule</title>
<path fill="none" stroke="black" d="M749.46,-81.55C749.46,-81.55 749.46,-103.39 749.46,-103.39"/>
<polygon fill="black" stroke="black" points="745.96,-103.39 749.46,-113.39 752.96,-103.39 745.96,-103.39"/>
</g>
<!-- HandsCardsFacade -->
<g id="node6" class="node">
<title>HandsCardsFacade</title>
<ellipse fill="#fdb462" stroke="black" cx="548" cy="-66.8" rx="85.67" ry="18"/>
<text text-anchor="middle" x="548" y="-62.6" font-family="Times,serif" font-size="14.00">HandsCardsFacade</text>
</g>
<!-- HandsCardsFacade&#45;&gt;DataAccessGameModule -->
<g id="edge6" class="edge">
<title>HandsCardsFacade&#45;&gt;DataAccessGameModule</title>
<path fill="none" stroke="black" d="M548,-84.83C548,-101.2 548,-122.8 548,-122.8 548,-122.8 714.4,-122.8 714.4,-122.8"/>
<polygon fill="black" stroke="black" points="714.4,-126.3 724.4,-122.8 714.4,-119.3 714.4,-126.3"/>
</g>
<!-- LandsPileCardsFacade -->
<g id="node7" class="node">
<title>LandsPileCardsFacade</title>
<ellipse fill="#fdb462" stroke="black" cx="345" cy="-66.8" rx="99.57" ry="18"/>
<text text-anchor="middle" x="345" y="-62.6" font-family="Times,serif" font-size="14.00">LandsPileCardsFacade</text>
</g>
<!-- LandsPileCardsFacade&#45;&gt;DataAccessGameModule -->
<g id="edge7" class="edge">
<title>LandsPileCardsFacade&#45;&gt;DataAccessGameModule</title>
<path fill="none" stroke="black" d="M345,-84.91C345,-104.14 345,-131.8 345,-131.8 345,-131.8 714.31,-131.8 714.31,-131.8"/>
<polygon fill="black" stroke="black" points="714.31,-135.3 724.31,-131.8 714.31,-128.3 714.31,-135.3"/>
</g>
<!-- StockPilesCardsFacade -->
<g id="node8" class="node">
<title>StockPilesCardsFacade</title>
<ellipse fill="#fdb462" stroke="black" cx="126" cy="-66.8" rx="101.88" ry="18"/>
<text text-anchor="middle" x="126" y="-62.6" font-family="Times,serif" font-size="14.00">StockPilesCardsFacade</text>
</g>
<!-- StockPilesCardsFacade&#45;&gt;DataAccessGameModule -->
<g id="edge8" class="edge">
<title>StockPilesCardsFacade&#45;&gt;DataAccessGameModule</title>
<path fill="none" stroke="black" d="M126,-85.09C126,-107.01 126,-140.8 126,-140.8 126,-140.8 714.23,-140.8 714.23,-140.8"/>
<polygon fill="black" stroke="black" points="714.23,-144.3 724.23,-140.8 714.23,-137.3 714.23,-144.3"/>
</g>
</g>
</svg>
