<?xml version="1.0" encoding="UTF-8" standalone="no"?>
<!DOCTYPE svg PUBLIC "-//W3C//DTD SVG 1.1//EN"
 "http://www.w3.org/Graphics/SVG/1.1/DTD/svg11.dtd">
<!-- Generated by graphviz version 2.47.0 (20210316.0004)
 -->
<!-- Title: dependencies Pages: 1 -->
<svg width="1763pt" height="211pt"
 viewBox="0.00 0.00 1763.00 211.00" xmlns="http://www.w3.org/2000/svg" xmlns:xlink="http://www.w3.org/1999/xlink">
<g id="graph0" class="graph" transform="scale(1 1) rotate(0) translate(4 207)">
<title>dependencies</title>
<polygon fill="white" stroke="transparent" points="-4,4 -4,-207 1759,-207 1759,4 -4,4"/>
<text text-anchor="start" x="856.51" y="-42.4" font-family="Times-12" font-weight="bold" font-size="14.00">Legend</text>
<polygon fill="#ffffb3" stroke="transparent" points="643.5,-10 643.5,-30 663.5,-30 663.5,-10 643.5,-10"/>
<text text-anchor="start" x="667.13" y="-15.4" font-family="Times-12" font-size="14.00"> &#160;Declarations</text>
<polygon fill="#8dd3c7" stroke="transparent" points="756.5,-10 756.5,-30 776.5,-30 776.5,-10 756.5,-10"/>
<text text-anchor="start" x="780.23" y="-15.4" font-family="Times-12" font-size="14.00"> &#160;Module</text>
<polygon fill="#80b1d3" stroke="transparent" points="842.5,-10 842.5,-30 862.5,-30 862.5,-10 842.5,-10"/>
<text text-anchor="start" x="866.28" y="-15.4" font-family="Times-12" font-size="14.00"> &#160;Bootstrap</text>
<polygon fill="#fdb462" stroke="transparent" points="939.5,-10 939.5,-30 959.5,-30 959.5,-10 939.5,-10"/>
<text text-anchor="start" x="963.17" y="-15.4" font-family="Times-12" font-size="14.00"> &#160;Providers</text>
<polygon fill="#fb8072" stroke="transparent" points="1035.5,-10 1035.5,-30 1055.5,-30 1055.5,-10 1035.5,-10"/>
<text text-anchor="start" x="1059.23" y="-15.4" font-family="Times-12" font-size="14.00"> &#160;Exports</text>
<g id="clust1" class="cluster">
<title>cluster_DataAccessGameModule</title>
<polygon fill="none" stroke="black" stroke-dasharray="1,5" points="8,-70 8,-195 1747,-195 1747,-70 8,-70"/>
</g>
<g id="clust6" class="cluster">
<title>cluster_DataAccessGameModule_providers</title>
<polygon fill="none" stroke="black" points="16,-78 16,-130 1739,-130 1739,-78 16,-78"/>
</g>
<!-- AgglomerationPilesCardsFacade -->
<g id="node1" class="node">
<title>AgglomerationPilesCardsFacade</title>
<ellipse fill="#fdb462" stroke="black" cx="1593" cy="-104" rx="138.3" ry="18"/>
<text text-anchor="middle" x="1593" y="-99.8" font-family="Times,serif" font-size="14.00">AgglomerationPilesCardsFacade</text>
</g>
<!-- DataAccessGameModule -->
<g id="node9" class="node">
<title>DataAccessGameModule</title>
<polygon fill="#8dd3c7" stroke="black" points="883.54,-187 880.54,-191 859.54,-191 856.54,-187 724.46,-187 724.46,-151 883.54,-151 883.54,-187"/>
<text text-anchor="middle" x="804" y="-164.8" font-family="Times,serif" font-size="14.00">DataAccessGameModule</text>
</g>
<!-- AgglomerationPilesCardsFacade&#45;&gt;DataAccessGameModule -->
<g id="edge1" class="edge">
<title>AgglomerationPilesCardsFacade&#45;&gt;DataAccessGameModule</title>
<path fill="none" stroke="black" d="M1593,-122.29C1593,-144.21 1593,-178 1593,-178 1593,-178 893.63,-178 893.63,-178"/>
<polygon fill="black" stroke="black" points="893.63,-174.5 883.63,-178 893.63,-181.5 893.63,-174.5"/>
</g>
<!-- DiscardPileCardsFacade -->
<g id="node2" class="node">
<title>DiscardPileCardsFacade</title>
<ellipse fill="#fdb462" stroke="black" cx="1331" cy="-104" rx="105.91" ry="18"/>
<text text-anchor="middle" x="1331" y="-99.8" font-family="Times,serif" font-size="14.00">DiscardPileCardsFacade</text>
</g>
<!-- DiscardPileCardsFacade&#45;&gt;DataAccessGameModule -->
<g id="edge2" class="edge">
<title>DiscardPileCardsFacade&#45;&gt;DataAccessGameModule</title>
<path fill="none" stroke="black" d="M1331,-122.11C1331,-141.34 1331,-169 1331,-169 1331,-169 893.75,-169 893.75,-169"/>
<polygon fill="black" stroke="black" points="893.75,-165.5 883.75,-169 893.75,-172.5 893.75,-165.5"/>
</g>
<!-- DomainsCardsFacade -->
<g id="node3" class="node">
<title>DomainsCardsFacade</title>
<ellipse fill="#fdb462" stroke="black" cx="1111" cy="-104" rx="95.55" ry="18"/>
<text text-anchor="middle" x="1111" y="-99.8" font-family="Times,serif" font-size="14.00">DomainsCardsFacade</text>
</g>
<!-- DomainsCardsFacade&#45;&gt;DataAccessGameModule -->
<g id="edge3" class="edge">
<title>DomainsCardsFacade&#45;&gt;DataAccessGameModule</title>
<path fill="none" stroke="black" d="M1111,-122.03C1111,-138.4 1111,-160 1111,-160 1111,-160 893.86,-160 893.86,-160"/>
<polygon fill="black" stroke="black" points="893.86,-156.5 883.86,-160 893.86,-163.5 893.86,-156.5"/>
</g>
<!-- EventsPileCardsFacade -->
<g id="node4" class="node">
<title>EventsPileCardsFacade</title>
<ellipse fill="#fdb462" stroke="black" cx="895" cy="-104" rx="102.42" ry="18"/>
<text text-anchor="middle" x="895" y="-99.8" font-family="Times,serif" font-size="14.00">EventsPileCardsFacade</text>
</g>
<!-- EventsPileCardsFacade&#45;&gt;DataAccessGameModule -->
<g id="edge4" class="edge">
<title>EventsPileCardsFacade&#45;&gt;DataAccessGameModule</title>
<path fill="none" stroke="black" d="M838.16,-119.08C838.16,-119.08 838.16,-140.76 838.16,-140.76"/>
<polygon fill="black" stroke="black" points="834.66,-140.76 838.16,-150.76 841.66,-140.76 834.66,-140.76"/>
</g>
<!-- GameFacade -->
<g id="node5" class="node">
<title>GameFacade</title>
<ellipse fill="#fdb462" stroke="black" cx="713" cy="-104" rx="61.37" ry="18"/>
<text text-anchor="middle" x="713" y="-99.8" font-family="Times,serif" font-size="14.00">GameFacade</text>
</g>
<!-- GameFacade&#45;&gt;DataAccessGameModule -->
<g id="edge5" class="edge">
<title>GameFacade&#45;&gt;DataAccessGameModule</title>
<path fill="none" stroke="black" d="M749.46,-118.75C749.46,-118.75 749.46,-140.59 749.46,-140.59"/>
<polygon fill="black" stroke="black" points="745.96,-140.59 749.46,-150.59 752.96,-140.59 745.96,-140.59"/>
</g>
<!-- HandsCardsFacade -->
<g id="node6" class="node">
<title>HandsCardsFacade</title>
<ellipse fill="#fdb462" stroke="black" cx="548" cy="-104" rx="85.65" ry="18"/>
<text text-anchor="middle" x="548" y="-99.8" font-family="Times,serif" font-size="14.00">HandsCardsFacade</text>
</g>
<!-- HandsCardsFacade&#45;&gt;DataAccessGameModule -->
<g id="edge6" class="edge">
<title>HandsCardsFacade&#45;&gt;DataAccessGameModule</title>
<path fill="none" stroke="black" d="M548,-122.03C548,-138.4 548,-160 548,-160 548,-160 714.4,-160 714.4,-160"/>
<polygon fill="black" stroke="black" points="714.4,-163.5 724.4,-160 714.4,-156.5 714.4,-163.5"/>
</g>
<!-- LandsPileCardsFacade -->
<g id="node7" class="node">
<title>LandsPileCardsFacade</title>
<ellipse fill="#fdb462" stroke="black" cx="345" cy="-104" rx="99.55" ry="18"/>
<text text-anchor="middle" x="345" y="-99.8" font-family="Times,serif" font-size="14.00">LandsPileCardsFacade</text>
</g>
<!-- LandsPileCardsFacade&#45;&gt;DataAccessGameModule -->
<g id="edge7" class="edge">
<title>LandsPileCardsFacade&#45;&gt;DataAccessGameModule</title>
<path fill="none" stroke="black" d="M345,-122.11C345,-141.34 345,-169 345,-169 345,-169 714.31,-169 714.31,-169"/>
<polygon fill="black" stroke="black" points="714.31,-172.5 724.31,-169 714.31,-165.5 714.31,-172.5"/>
</g>
<!-- StockPilesCardsFacade -->
<g id="node8" class="node">
<title>StockPilesCardsFacade</title>
<ellipse fill="#fdb462" stroke="black" cx="126" cy="-104" rx="101.86" ry="18"/>
<text text-anchor="middle" x="126" y="-99.8" font-family="Times,serif" font-size="14.00">StockPilesCardsFacade</text>
</g>
<!-- StockPilesCardsFacade&#45;&gt;DataAccessGameModule -->
<g id="edge8" class="edge">
<title>StockPilesCardsFacade&#45;&gt;DataAccessGameModule</title>
<path fill="none" stroke="black" d="M126,-122.29C126,-144.21 126,-178 126,-178 126,-178 714.23,-178 714.23,-178"/>
<polygon fill="black" stroke="black" points="714.23,-181.5 724.23,-178 714.23,-174.5 714.23,-181.5"/>
</g>
</g>
</svg>
