<?xml version="1.0" encoding="UTF-8" standalone="no"?>
<!DOCTYPE svg PUBLIC "-//W3C//DTD SVG 1.1//EN"
 "http://www.w3.org/Graphics/SVG/1.1/DTD/svg11.dtd">
<!-- Generated by graphviz version 2.47.0 (20210316.0004)
 -->
<!-- Title: dependencies Pages: 1 -->
<svg width="854pt" height="284pt"
 viewBox="0.00 0.00 854.00 284.00" xmlns="http://www.w3.org/2000/svg" xmlns:xlink="http://www.w3.org/1999/xlink">
<g id="graph0" class="graph" transform="scale(1 1) rotate(0) translate(4 280)">
<title>dependencies</title>
<polygon fill="white" stroke="transparent" points="-4,4 -4,-280 850,-280 850,4 -4,4"/>
<text text-anchor="start" x="402.01" y="-42.4" font-family="Times-12" font-weight="bold" font-size="14.00">Legend</text>
<polygon fill="#ffffb3" stroke="transparent" points="189,-10 189,-30 209,-30 209,-10 189,-10"/>
<text text-anchor="start" x="212.63" y="-15.4" font-family="Times-12" font-size="14.00"> &#160;Declarations</text>
<polygon fill="#8dd3c7" stroke="transparent" points="302,-10 302,-30 322,-30 322,-10 302,-10"/>
<text text-anchor="start" x="325.73" y="-15.4" font-family="Times-12" font-size="14.00"> &#160;Module</text>
<polygon fill="#80b1d3" stroke="transparent" points="388,-10 388,-30 408,-30 408,-10 388,-10"/>
<text text-anchor="start" x="411.78" y="-15.4" font-family="Times-12" font-size="14.00"> &#160;Bootstrap</text>
<polygon fill="#fdb462" stroke="transparent" points="485,-10 485,-30 505,-30 505,-10 485,-10"/>
<text text-anchor="start" x="508.67" y="-15.4" font-family="Times-12" font-size="14.00"> &#160;Providers</text>
<polygon fill="#fb8072" stroke="transparent" points="581,-10 581,-30 601,-30 601,-10 581,-10"/>
<text text-anchor="start" x="604.73" y="-15.4" font-family="Times-12" font-size="14.00"> &#160;Exports</text>
<g id="clust1" class="cluster">
<title>cluster_BoardModule</title>
<polygon fill="none" stroke="black" stroke-dasharray="1,5" points="8,-70 8,-268 838,-268 838,-70 8,-70"/>
</g>
<g id="clust5" class="cluster">
<title>cluster_BoardModule_exports</title>
<polygon fill="none" stroke="black" points="361,-208 361,-260 497,-260 497,-208 361,-208"/>
</g>
<g id="clust4" class="cluster">
<title>cluster_BoardModule_imports</title>
<polygon fill="none" stroke="black" points="156,-78 156,-130 830,-130 830,-78 156,-78"/>
</g>
<g id="clust2" class="cluster">
<title>cluster_BoardModule_declarations</title>
<polygon fill="none" stroke="black" points="16,-78 16,-130 148,-130 148,-78 16,-78"/>
</g>
<!-- BoardComponent -->
<g id="node1" class="node">
<title>BoardComponent</title>
<polygon fill="#ffffb3" stroke="black" points="139.55,-122 24.45,-122 24.45,-86 139.55,-86 139.55,-122"/>
<text text-anchor="middle" x="82" y="-99.8" font-family="Times,serif" font-size="14.00">BoardComponent</text>
</g>
<!-- BoardModule -->
<g id="node2" class="node">
<title>BoardModule</title>
<polygon fill="#8dd3c7" stroke="black" points="475.76,-187 472.76,-191 451.76,-191 448.76,-187 382.24,-187 382.24,-151 475.76,-151 475.76,-187"/>
<text text-anchor="middle" x="429" y="-164.8" font-family="Times,serif" font-size="14.00">BoardModule</text>
</g>
<!-- BoardComponent&#45;&gt;BoardModule -->
<g id="edge1" class="edge">
<title>BoardComponent&#45;&gt;BoardModule</title>
<path fill="none" stroke="black" d="M82,-122.29C82,-144.21 82,-178 82,-178 82,-178 372.2,-178 372.2,-178"/>
<polygon fill="black" stroke="black" points="372.2,-181.5 382.2,-178 372.2,-174.5 372.2,-181.5"/>
</g>
<!-- BoardComponent  -->
<g id="node9" class="node">
<title>BoardComponent </title>
<polygon fill="#fb8072" stroke="black" points="488.54,-252 369.46,-252 369.46,-216 488.54,-216 488.54,-252"/>
<text text-anchor="middle" x="429" y="-229.8" font-family="Times,serif" font-size="14.00">BoardComponent </text>
</g>
<!-- BoardModule&#45;&gt;BoardComponent  -->
<g id="edge8" class="edge">
<title>BoardModule&#45;&gt;BoardComponent </title>
<path fill="none" stroke="black" stroke-dasharray="5,2" d="M429,-187.11C429,-187.11 429,-205.99 429,-205.99"/>
<polygon fill="black" stroke="black" points="425.5,-205.99 429,-215.99 432.5,-205.99 425.5,-205.99"/>
</g>
<!-- ActionsModule -->
<g id="node3" class="node">
<title>ActionsModule</title>
<polygon fill="#8dd3c7" stroke="black" points="821.6,-122 818.6,-126 797.6,-126 794.6,-122 718.4,-122 718.4,-86 821.6,-86 821.6,-122"/>
<text text-anchor="middle" x="770" y="-99.8" font-family="Times,serif" font-size="14.00">ActionsModule</text>
</g>
<!-- ActionsModule&#45;&gt;BoardModule -->
<g id="edge2" class="edge">
<title>ActionsModule&#45;&gt;BoardModule</title>
<path fill="none" stroke="black" d="M770,-122.29C770,-144.21 770,-178 770,-178 770,-178 486.06,-178 486.06,-178"/>
<polygon fill="black" stroke="black" points="486.06,-174.5 476.06,-178 486.06,-181.5 486.06,-174.5"/>
</g>
<!-- DiceModule -->
<g id="node4" class="node">
<title>DiceModule</title>
<polygon fill="#8dd3c7" stroke="black" points="699.98,-122 696.98,-126 675.98,-126 672.98,-122 614.02,-122 614.02,-86 699.98,-86 699.98,-122"/>
<text text-anchor="middle" x="657" y="-99.8" font-family="Times,serif" font-size="14.00">DiceModule</text>
</g>
<!-- DiceModule&#45;&gt;BoardModule -->
<g id="edge3" class="edge">
<title>DiceModule&#45;&gt;BoardModule</title>
<path fill="none" stroke="black" d="M657,-122.11C657,-141.34 657,-169 657,-169 657,-169 485.97,-169 485.97,-169"/>
<polygon fill="black" stroke="black" points="485.97,-165.5 475.97,-169 485.97,-172.5 485.97,-165.5"/>
</g>
<!-- DomainModule -->
<g id="node5" class="node">
<title>DomainModule</title>
<polygon fill="#8dd3c7" stroke="black" points="596.15,-122 593.15,-126 572.15,-126 569.15,-122 491.85,-122 491.85,-86 596.15,-86 596.15,-122"/>
<text text-anchor="middle" x="544" y="-99.8" font-family="Times,serif" font-size="14.00">DomainModule</text>
</g>
<!-- DomainModule&#45;&gt;BoardModule -->
<g id="edge4" class="edge">
<title>DomainModule&#45;&gt;BoardModule</title>
<path fill="none" stroke="black" d="M544,-122.03C544,-138.4 544,-160 544,-160 544,-160 485.77,-160 485.77,-160"/>
<polygon fill="black" stroke="black" points="485.77,-156.5 475.77,-160 485.77,-163.5 485.77,-156.5"/>
</g>
<!-- HandModule -->
<g id="node6" class="node">
<title>HandModule</title>
<polygon fill="#8dd3c7" stroke="black" points="473.87,-122 470.87,-126 449.87,-126 446.87,-122 384.13,-122 384.13,-86 473.87,-86 473.87,-122"/>
<text text-anchor="middle" x="429" y="-99.8" font-family="Times,serif" font-size="14.00">HandModule</text>
</g>
<!-- HandModule&#45;&gt;BoardModule -->
<g id="edge5" class="edge">
<title>HandModule&#45;&gt;BoardModule</title>
<path fill="none" stroke="black" d="M429,-122.11C429,-122.11 429,-140.99 429,-140.99"/>
<polygon fill="black" stroke="black" points="425.5,-140.99 429,-150.99 432.5,-140.99 425.5,-140.99"/>
</g>
<!-- PhasesModule -->
<g id="node7" class="node">
<title>PhasesModule</title>
<polygon fill="#8dd3c7" stroke="black" points="365.65,-122 362.65,-126 341.65,-126 338.65,-122 268.35,-122 268.35,-86 365.65,-86 365.65,-122"/>
<text text-anchor="middle" x="317" y="-99.8" font-family="Times,serif" font-size="14.00">PhasesModule</text>
</g>
<!-- PhasesModule&#45;&gt;BoardModule -->
<g id="edge6" class="edge">
<title>PhasesModule&#45;&gt;BoardModule</title>
<path fill="none" stroke="black" d="M317,-122.03C317,-138.4 317,-160 317,-160 317,-160 372.15,-160 372.15,-160"/>
<polygon fill="black" stroke="black" points="372.15,-163.5 382.15,-160 372.15,-156.5 372.15,-163.5"/>
</g>
<!-- PilesModule -->
<g id="node8" class="node">
<title>PilesModule</title>
<polygon fill="#8dd3c7" stroke="black" points="250.27,-122 247.27,-126 226.27,-126 223.27,-122 163.73,-122 163.73,-86 250.27,-86 250.27,-122"/>
<text text-anchor="middle" x="207" y="-99.8" font-family="Times,serif" font-size="14.00">PilesModule</text>
</g>
<!-- PilesModule&#45;&gt;BoardModule -->
<g id="edge7" class="edge">
<title>PilesModule&#45;&gt;BoardModule</title>
<path fill="none" stroke="black" d="M207,-122.11C207,-141.34 207,-169 207,-169 207,-169 372.19,-169 372.19,-169"/>
<polygon fill="black" stroke="black" points="372.19,-172.5 382.19,-169 372.19,-165.5 372.19,-172.5"/>
</g>
</g>
</svg>
