<?xml version="1.0" encoding="UTF-8" standalone="no"?>
<!DOCTYPE svg PUBLIC "-//W3C//DTD SVG 1.1//EN"
 "http://www.w3.org/Graphics/SVG/1.1/DTD/svg11.dtd">
<!-- Generated by graphviz version 3.0.0 (20220226.1711)
 -->
<!-- Title: dependencies Pages: 1 -->
<svg width="607pt" height="247pt"
 viewBox="0.00 0.00 607.00 246.80" xmlns="http://www.w3.org/2000/svg" xmlns:xlink="http://www.w3.org/1999/xlink">
<g id="graph0" class="graph" transform="scale(1 1) rotate(0) translate(4 242.8)">
<title>dependencies</title>
<polygon fill="white" stroke="transparent" points="-4,4 -4,-242.8 603,-242.8 603,4 -4,4"/>
<text text-anchor="middle" x="299.5" y="-8.2" font-family="sans-serif" font-size="14.00">dependencies</text>
<g id="clust1" class="cluster">
<title>cluster_AppModule</title>
<polygon fill="none" stroke="black" stroke-dasharray="1,5" points="8,-32.8 8,-230.8 591,-230.8 591,-32.8 8,-32.8"/>
</g>
<g id="clust4" class="cluster">
<title>cluster_AppModule_imports</title>
<polygon fill="none" stroke="black" points="146,-40.8 146,-92.8 583,-92.8 583,-40.8 146,-40.8"/>
</g>
<g id="clust6" class="cluster">
<title>cluster_AppModule_bootstrap</title>
<polygon fill="none" stroke="black" points="241,-170.8 241,-222.8 365,-222.8 365,-170.8 241,-170.8"/>
</g>
<g id="clust2" class="cluster">
<title>cluster_AppModule_declarations</title>
<polygon fill="none" stroke="black" points="16,-40.8 16,-92.8 138,-92.8 138,-40.8 16,-40.8"/>
</g>
<!-- AppComponent -->
<g id="node1" class="node">
<title>AppComponent</title>
<polygon fill="#ffffb3" stroke="black" points="129.94,-84.8 24.06,-84.8 24.06,-48.8 129.94,-48.8 129.94,-84.8"/>
<text text-anchor="middle" x="77" y="-62.6" font-family="Times,serif" font-size="14.00">AppComponent</text>
</g>
<!-- AppModule -->
<g id="node2" class="node">
<title>AppModule</title>
<polygon fill="#8dd3c7" stroke="black" points="344.66,-149.8 341.66,-153.8 320.66,-153.8 317.66,-149.8 261.34,-149.8 261.34,-113.8 344.66,-113.8 344.66,-149.8"/>
<text text-anchor="middle" x="303" y="-127.6" font-family="Times,serif" font-size="14.00">AppModule</text>
</g>
<!-- AppComponent&#45;&gt;AppModule -->
<g id="edge1" class="edge">
<title>AppComponent&#45;&gt;AppModule</title>
<path fill="none" stroke="black" d="M77,-84.91C77,-104.14 77,-131.8 77,-131.8 77,-131.8 251.28,-131.8 251.28,-131.8"/>
<polygon fill="black" stroke="black" points="251.28,-135.3 261.28,-131.8 251.28,-128.3 251.28,-135.3"/>
</g>
<!-- AppComponent  -->
<g id="node6" class="node">
<title>AppComponent </title>
<polygon fill="#80b1d3" stroke="black" points="357.44,-214.8 248.56,-214.8 248.56,-178.8 357.44,-178.8 357.44,-214.8"/>
<text text-anchor="middle" x="303" y="-192.6" font-family="Times,serif" font-size="14.00">AppComponent </text>
</g>
<!-- AppModule&#45;&gt;AppComponent  -->
<g id="edge5" class="edge">
<title>AppModule&#45;&gt;AppComponent </title>
<path fill="none" stroke="black" stroke-dasharray="1,5" d="M303,-149.91C303,-149.91 303,-168.79 303,-168.79"/>
<polygon fill="black" stroke="black" points="299.5,-168.79 303,-178.79 306.5,-168.79 299.5,-168.79"/>
</g>
<!-- !environment -->
<g id="node3" class="node">
<title>!environment</title>
<polygon fill="#8dd3c7" stroke="black" points="574.92,-84.8 571.92,-88.8 550.92,-88.8 547.92,-84.8 483.08,-84.8 483.08,-48.8 574.92,-48.8 574.92,-84.8"/>
<text text-anchor="middle" x="529" y="-62.6" font-family="Times,serif" font-size="14.00">!environment</text>
</g>
<!-- !environment&#45;&gt;AppModule -->
<g id="edge2" class="edge">
<title>!environment&#45;&gt;AppModule</title>
<path fill="none" stroke="black" d="M529,-84.91C529,-104.14 529,-131.8 529,-131.8 529,-131.8 354.72,-131.8 354.72,-131.8"/>
<polygon fill="black" stroke="black" points="354.72,-128.3 344.72,-131.8 354.72,-135.3 354.72,-128.3"/>
</g>
<!-- DataAccessGameModule -->
<g id="node4" class="node">
<title>DataAccessGameModule</title>
<polygon fill="#8dd3c7" stroke="black" points="465.56,-84.8 462.56,-88.8 441.56,-88.8 438.56,-84.8 306.44,-84.8 306.44,-48.8 465.56,-48.8 465.56,-84.8"/>
<text text-anchor="middle" x="386" y="-62.6" font-family="Times,serif" font-size="14.00">DataAccessGameModule</text>
</g>
<!-- DataAccessGameModule&#45;&gt;AppModule -->
<g id="edge3" class="edge">
<title>DataAccessGameModule&#45;&gt;AppModule</title>
<path fill="none" stroke="black" d="M325.65,-84.91C325.65,-84.91 325.65,-103.79 325.65,-103.79"/>
<polygon fill="black" stroke="black" points="322.15,-103.79 325.65,-113.79 329.15,-103.79 322.15,-103.79"/>
</g>
<!-- FeatureGameModule -->
<g id="node5" class="node">
<title>FeatureGameModule</title>
<polygon fill="#8dd3c7" stroke="black" points="288.46,-84.8 285.46,-88.8 264.46,-88.8 261.46,-84.8 153.54,-84.8 153.54,-48.8 288.46,-48.8 288.46,-84.8"/>
<text text-anchor="middle" x="221" y="-62.6" font-family="Times,serif" font-size="14.00">FeatureGameModule</text>
</g>
<!-- FeatureGameModule&#45;&gt;AppModule -->
<g id="edge4" class="edge">
<title>FeatureGameModule&#45;&gt;AppModule</title>
<path fill="none" stroke="black" d="M274.82,-84.91C274.82,-84.91 274.82,-103.79 274.82,-103.79"/>
<polygon fill="black" stroke="black" points="271.32,-103.79 274.82,-113.79 278.32,-103.79 271.32,-103.79"/>
</g>
</g>
</svg>
