<?xml version="1.0" encoding="UTF-8" standalone="no"?>
<!DOCTYPE svg PUBLIC "-//W3C//DTD SVG 1.1//EN"
 "http://www.w3.org/Graphics/SVG/1.1/DTD/svg11.dtd">
<!-- Generated by graphviz version 3.0.0 (20220226.1711)
 -->
<!-- Title: dependencies Pages: 1 -->
<svg width="607pt" height="247pt"
 viewBox="0.00 0.00 607.00 246.80" xmlns="http://www.w3.org/2000/svg" xmlns:xlink="http://www.w3.org/1999/xlink">
<g id="graph0" class="graph" transform="scale(1 1) rotate(0) translate(4 242.8)">
<title>dependencies</title>
<polygon fill="white" stroke="transparent" points="-4,4 -4,-242.8 603,-242.8 603,4 -4,4"/>
<text text-anchor="middle" x="299.5" y="-8.2" font-family="sans-serif" font-size="14.00">dependencies</text>
<g id="clust1" class="cluster">
<title>cluster_AppModule</title>
<polygon fill="none" stroke="black" stroke-dasharray="1,5" points="8,-32.8 8,-230.8 591,-230.8 591,-32.8 8,-32.8"/>
</g>
<g id="clust2" class="cluster">
<title>cluster_AppModule_declarations</title>
<polygon fill="none" stroke="black" points="461,-40.8 461,-92.8 583,-92.8 583,-40.8 461,-40.8"/>
</g>
<g id="clust4" class="cluster">
<title>cluster_AppModule_imports</title>
<polygon fill="none" stroke="black" points="16,-40.8 16,-92.8 453,-92.8 453,-40.8 16,-40.8"/>
</g>
<g id="clust6" class="cluster">
<title>cluster_AppModule_bootstrap</title>
<polygon fill="none" stroke="black" points="265,-170.8 265,-222.8 389,-222.8 389,-170.8 265,-170.8"/>
</g>
<!-- AppComponent -->
<g id="node1" class="node">
<title>AppComponent</title>
<polygon fill="#ffffb3" stroke="black" points="574.94,-84.8 469.06,-84.8 469.06,-48.8 574.94,-48.8 574.94,-84.8"/>
<text text-anchor="middle" x="522" y="-62.6" font-family="Times,serif" font-size="14.00">AppComponent</text>
</g>
<!-- AppModule -->
<g id="node2" class="node">
<title>AppModule</title>
<polygon fill="#8dd3c7" stroke="black" points="368.66,-149.8 365.66,-153.8 344.66,-153.8 341.66,-149.8 285.34,-149.8 285.34,-113.8 368.66,-113.8 368.66,-149.8"/>
<text text-anchor="middle" x="327" y="-127.6" font-family="Times,serif" font-size="14.00">AppModule</text>
</g>
<!-- AppComponent&#45;&gt;AppModule -->
<g id="edge1" class="edge">
<title>AppComponent&#45;&gt;AppModule</title>
<path fill="none" stroke="black" d="M522,-84.91C522,-104.14 522,-131.8 522,-131.8 522,-131.8 378.83,-131.8 378.83,-131.8"/>
<polygon fill="black" stroke="black" points="378.83,-128.3 368.83,-131.8 378.83,-135.3 378.83,-128.3"/>
</g>
<!-- AppComponent  -->
<g id="node6" class="node">
<title>AppComponent </title>
<polygon fill="#80b1d3" stroke="black" points="381.44,-214.8 272.56,-214.8 272.56,-178.8 381.44,-178.8 381.44,-214.8"/>
<text text-anchor="middle" x="327" y="-192.6" font-family="Times,serif" font-size="14.00">AppComponent </text>
</g>
<!-- AppModule&#45;&gt;AppComponent  -->
<g id="edge5" class="edge">
<title>AppModule&#45;&gt;AppComponent </title>
<path fill="none" stroke="black" stroke-dasharray="1,5" d="M327,-149.91C327,-149.91 327,-168.79 327,-168.79"/>
<polygon fill="black" stroke="black" points="323.5,-168.79 327,-178.79 330.5,-168.79 323.5,-168.79"/>
</g>
<!-- !environment -->
<g id="node3" class="node">
<title>!environment</title>
<polygon fill="#8dd3c7" stroke="black" points="444.92,-84.8 441.92,-88.8 420.92,-88.8 417.92,-84.8 353.08,-84.8 353.08,-48.8 444.92,-48.8 444.92,-84.8"/>
<text text-anchor="middle" x="399" y="-62.6" font-family="Times,serif" font-size="14.00">!environment</text>
</g>
<!-- !environment&#45;&gt;AppModule -->
<g id="edge2" class="edge">
<title>!environment&#45;&gt;AppModule</title>
<path fill="none" stroke="black" d="M361.06,-84.91C361.06,-84.91 361.06,-103.79 361.06,-103.79"/>
<polygon fill="black" stroke="black" points="357.56,-103.79 361.06,-113.79 364.56,-103.79 357.56,-103.79"/>
</g>
<!-- DataAccessGameModule -->
<g id="node4" class="node">
<title>DataAccessGameModule</title>
<polygon fill="#8dd3c7" stroke="black" points="335.56,-84.8 332.56,-88.8 311.56,-88.8 308.56,-84.8 176.44,-84.8 176.44,-48.8 335.56,-48.8 335.56,-84.8"/>
<text text-anchor="middle" x="256" y="-62.6" font-family="Times,serif" font-size="14.00">DataAccessGameModule</text>
</g>
<!-- DataAccessGameModule&#45;&gt;AppModule -->
<g id="edge3" class="edge">
<title>DataAccessGameModule&#45;&gt;AppModule</title>
<path fill="none" stroke="black" d="M310.35,-84.91C310.35,-84.91 310.35,-103.79 310.35,-103.79"/>
<polygon fill="black" stroke="black" points="306.85,-103.79 310.35,-113.79 313.85,-103.79 306.85,-103.79"/>
</g>
<!-- FeatureGameModule -->
<g id="node5" class="node">
<title>FeatureGameModule</title>
<polygon fill="#8dd3c7" stroke="black" points="158.46,-84.8 155.46,-88.8 134.46,-88.8 131.46,-84.8 23.54,-84.8 23.54,-48.8 158.46,-48.8 158.46,-84.8"/>
<text text-anchor="middle" x="91" y="-62.6" font-family="Times,serif" font-size="14.00">FeatureGameModule</text>
</g>
<!-- FeatureGameModule&#45;&gt;AppModule -->
<g id="edge4" class="edge">
<title>FeatureGameModule&#45;&gt;AppModule</title>
<path fill="none" stroke="black" d="M91,-84.91C91,-104.14 91,-131.8 91,-131.8 91,-131.8 275.08,-131.8 275.08,-131.8"/>
<polygon fill="black" stroke="black" points="275.08,-135.3 285.08,-131.8 275.08,-128.3 275.08,-135.3"/>
</g>
</g>
</svg>
