<?xml version="1.0" encoding="UTF-8" standalone="no"?>
<!DOCTYPE svg PUBLIC "-//W3C//DTD SVG 1.1//EN"
 "http://www.w3.org/Graphics/SVG/1.1/DTD/svg11.dtd">
<!-- Generated by graphviz version 2.47.0 (20210316.0004)
 -->
<!-- Title: dependencies Pages: 1 -->
<svg width="607pt" height="284pt"
 viewBox="0.00 0.00 607.00 284.00" xmlns="http://www.w3.org/2000/svg" xmlns:xlink="http://www.w3.org/1999/xlink">
<g id="graph0" class="graph" transform="scale(1 1) rotate(0) translate(4 280)">
<title>dependencies</title>
<polygon fill="white" stroke="transparent" points="-4,4 -4,-280 603,-280 603,4 -4,4"/>
<text text-anchor="start" x="278.51" y="-42.4" font-family="Times-12" font-weight="bold" font-size="14.00">Legend</text>
<polygon fill="#ffffb3" stroke="transparent" points="65.5,-10 65.5,-30 85.5,-30 85.5,-10 65.5,-10"/>
<text text-anchor="start" x="89.13" y="-15.4" font-family="Times-12" font-size="14.00"> &#160;Declarations</text>
<polygon fill="#8dd3c7" stroke="transparent" points="178.5,-10 178.5,-30 198.5,-30 198.5,-10 178.5,-10"/>
<text text-anchor="start" x="202.23" y="-15.4" font-family="Times-12" font-size="14.00"> &#160;Module</text>
<polygon fill="#80b1d3" stroke="transparent" points="264.5,-10 264.5,-30 284.5,-30 284.5,-10 264.5,-10"/>
<text text-anchor="start" x="288.28" y="-15.4" font-family="Times-12" font-size="14.00"> &#160;Bootstrap</text>
<polygon fill="#fdb462" stroke="transparent" points="361.5,-10 361.5,-30 381.5,-30 381.5,-10 361.5,-10"/>
<text text-anchor="start" x="385.17" y="-15.4" font-family="Times-12" font-size="14.00"> &#160;Providers</text>
<polygon fill="#fb8072" stroke="transparent" points="457.5,-10 457.5,-30 477.5,-30 477.5,-10 457.5,-10"/>
<text text-anchor="start" x="481.23" y="-15.4" font-family="Times-12" font-size="14.00"> &#160;Exports</text>
<g id="clust1" class="cluster">
<title>cluster_AppModule</title>
<polygon fill="none" stroke="black" stroke-dasharray="1,5" points="8,-70 8,-268 591,-268 591,-70 8,-70"/>
</g>
<g id="clust2" class="cluster">
<title>cluster_AppModule_declarations</title>
<polygon fill="none" stroke="black" points="461,-78 461,-130 583,-130 583,-78 461,-78"/>
</g>
<g id="clust6" class="cluster">
<title>cluster_AppModule_bootstrap</title>
<polygon fill="none" stroke="black" points="265,-208 265,-260 389,-260 389,-208 265,-208"/>
</g>
<g id="clust4" class="cluster">
<title>cluster_AppModule_imports</title>
<polygon fill="none" stroke="black" points="16,-78 16,-130 453,-130 453,-78 16,-78"/>
</g>
<!-- AppComponent -->
<g id="node1" class="node">
<title>AppComponent</title>
<polygon fill="#ffffb3" stroke="black" points="574.94,-122 469.06,-122 469.06,-86 574.94,-86 574.94,-122"/>
<text text-anchor="middle" x="522" y="-99.8" font-family="Times,serif" font-size="14.00">AppComponent</text>
</g>
<!-- AppModule -->
<g id="node2" class="node">
<title>AppModule</title>
<polygon fill="#8dd3c7" stroke="black" points="368.66,-187 365.66,-191 344.66,-191 341.66,-187 285.34,-187 285.34,-151 368.66,-151 368.66,-187"/>
<text text-anchor="middle" x="327" y="-164.8" font-family="Times,serif" font-size="14.00">AppModule</text>
</g>
<!-- AppComponent&#45;&gt;AppModule -->
<g id="edge1" class="edge">
<title>AppComponent&#45;&gt;AppModule</title>
<path fill="none" stroke="black" d="M522,-122.11C522,-141.34 522,-169 522,-169 522,-169 378.83,-169 378.83,-169"/>
<polygon fill="black" stroke="black" points="378.83,-165.5 368.83,-169 378.83,-172.5 378.83,-165.5"/>
</g>
<!-- AppComponent  -->
<g id="node6" class="node">
<title>AppComponent </title>
<polygon fill="#80b1d3" stroke="black" points="381.44,-252 272.56,-252 272.56,-216 381.44,-216 381.44,-252"/>
<text text-anchor="middle" x="327" y="-229.8" font-family="Times,serif" font-size="14.00">AppComponent </text>
</g>
<!-- AppModule&#45;&gt;AppComponent  -->
<g id="edge5" class="edge">
<title>AppModule&#45;&gt;AppComponent </title>
<path fill="none" stroke="black" stroke-dasharray="1,5" d="M327,-187.11C327,-187.11 327,-205.99 327,-205.99"/>
<polygon fill="black" stroke="black" points="323.5,-205.99 327,-215.99 330.5,-205.99 323.5,-205.99"/>
</g>
<!-- !environment -->
<g id="node3" class="node">
<title>!environment</title>
<polygon fill="#8dd3c7" stroke="black" points="444.92,-122 441.92,-126 420.92,-126 417.92,-122 353.08,-122 353.08,-86 444.92,-86 444.92,-122"/>
<text text-anchor="middle" x="399" y="-99.8" font-family="Times,serif" font-size="14.00">!environment</text>
</g>
<!-- !environment&#45;&gt;AppModule -->
<g id="edge2" class="edge">
<title>!environment&#45;&gt;AppModule</title>
<path fill="none" stroke="black" d="M361.06,-122.11C361.06,-122.11 361.06,-140.99 361.06,-140.99"/>
<polygon fill="black" stroke="black" points="357.56,-140.99 361.06,-150.99 364.56,-140.99 357.56,-140.99"/>
</g>
<!-- DataAccessGameModule -->
<g id="node4" class="node">
<title>DataAccessGameModule</title>
<polygon fill="#8dd3c7" stroke="black" points="335.54,-122 332.54,-126 311.54,-126 308.54,-122 176.46,-122 176.46,-86 335.54,-86 335.54,-122"/>
<text text-anchor="middle" x="256" y="-99.8" font-family="Times,serif" font-size="14.00">DataAccessGameModule</text>
</g>
<!-- DataAccessGameModule&#45;&gt;AppModule -->
<g id="edge3" class="edge">
<title>DataAccessGameModule&#45;&gt;AppModule</title>
<path fill="none" stroke="black" d="M310.35,-122.11C310.35,-122.11 310.35,-140.99 310.35,-140.99"/>
<polygon fill="black" stroke="black" points="306.85,-140.99 310.35,-150.99 313.85,-140.99 306.85,-140.99"/>
</g>
<!-- FeatureGameModule -->
<g id="node5" class="node">
<title>FeatureGameModule</title>
<polygon fill="#8dd3c7" stroke="black" points="158.45,-122 155.45,-126 134.45,-126 131.45,-122 23.55,-122 23.55,-86 158.45,-86 158.45,-122"/>
<text text-anchor="middle" x="91" y="-99.8" font-family="Times,serif" font-size="14.00">FeatureGameModule</text>
</g>
<!-- FeatureGameModule&#45;&gt;AppModule -->
<g id="edge4" class="edge">
<title>FeatureGameModule&#45;&gt;AppModule</title>
<path fill="none" stroke="black" d="M91,-122.11C91,-141.34 91,-169 91,-169 91,-169 275.08,-169 275.08,-169"/>
<polygon fill="black" stroke="black" points="275.08,-172.5 285.08,-169 275.08,-165.5 275.08,-172.5"/>
</g>
</g>
</svg>
