<?xml version="1.0" encoding="UTF-8" standalone="no"?>
<!DOCTYPE svg PUBLIC "-//W3C//DTD SVG 1.1//EN"
 "http://www.w3.org/Graphics/SVG/1.1/DTD/svg11.dtd">
<!-- Generated by graphviz version 2.47.0 (20210316.0004)
 -->
<!-- Title: dependencies Pages: 1 -->
<svg width="504pt" height="284pt"
 viewBox="0.00 0.00 504.00 284.00" xmlns="http://www.w3.org/2000/svg" xmlns:xlink="http://www.w3.org/1999/xlink">
<g id="graph0" class="graph" transform="scale(1 1) rotate(0) translate(4 280)">
<title>dependencies</title>
<polygon fill="white" stroke="transparent" points="-4,4 -4,-280 500,-280 500,4 -4,4"/>
<text text-anchor="start" x="227.01" y="-42.4" font-family="Times-12" font-weight="bold" font-size="14.00">Legend</text>
<polygon fill="#ffffb3" stroke="transparent" points="14,-10 14,-30 34,-30 34,-10 14,-10"/>
<text text-anchor="start" x="37.63" y="-15.4" font-family="Times-12" font-size="14.00"> &#160;Declarations</text>
<polygon fill="#8dd3c7" stroke="transparent" points="127,-10 127,-30 147,-30 147,-10 127,-10"/>
<text text-anchor="start" x="150.73" y="-15.4" font-family="Times-12" font-size="14.00"> &#160;Module</text>
<polygon fill="#80b1d3" stroke="transparent" points="213,-10 213,-30 233,-30 233,-10 213,-10"/>
<text text-anchor="start" x="236.78" y="-15.4" font-family="Times-12" font-size="14.00"> &#160;Bootstrap</text>
<polygon fill="#fdb462" stroke="transparent" points="310,-10 310,-30 330,-30 330,-10 310,-10"/>
<text text-anchor="start" x="333.67" y="-15.4" font-family="Times-12" font-size="14.00"> &#160;Providers</text>
<polygon fill="#fb8072" stroke="transparent" points="406,-10 406,-30 426,-30 426,-10 406,-10"/>
<text text-anchor="start" x="429.73" y="-15.4" font-family="Times-12" font-size="14.00"> &#160;Exports</text>
<g id="clust1" class="cluster">
<title>cluster_DomainModule</title>
<polygon fill="none" stroke="black" stroke-dasharray="1,5" points="107,-70 107,-268 389,-268 389,-70 107,-70"/>
</g>
<g id="clust5" class="cluster">
<title>cluster_DomainModule_exports</title>
<polygon fill="none" stroke="black" points="175,-208 175,-260 321,-260 321,-208 175,-208"/>
</g>
<g id="clust4" class="cluster">
<title>cluster_DomainModule_imports</title>
<polygon fill="none" stroke="black" points="265,-78 265,-130 381,-130 381,-78 265,-78"/>
</g>
<g id="clust2" class="cluster">
<title>cluster_DomainModule_declarations</title>
<polygon fill="none" stroke="black" points="115,-78 115,-130 257,-130 257,-78 115,-78"/>
</g>
<!-- DomainComponent -->
<g id="node1" class="node">
<title>DomainComponent</title>
<polygon fill="#ffffb3" stroke="black" points="249.44,-122 122.56,-122 122.56,-86 249.44,-86 249.44,-122"/>
<text text-anchor="middle" x="186" y="-99.8" font-family="Times,serif" font-size="14.00">DomainComponent</text>
</g>
<!-- DomainModule -->
<g id="node2" class="node">
<title>DomainModule</title>
<polygon fill="#8dd3c7" stroke="black" points="300.15,-187 297.15,-191 276.15,-191 273.15,-187 195.85,-187 195.85,-151 300.15,-151 300.15,-187"/>
<text text-anchor="middle" x="248" y="-164.8" font-family="Times,serif" font-size="14.00">DomainModule</text>
</g>
<!-- DomainComponent&#45;&gt;DomainModule -->
<g id="edge1" class="edge">
<title>DomainComponent&#45;&gt;DomainModule</title>
<path fill="none" stroke="black" d="M222.45,-122.11C222.45,-122.11 222.45,-140.99 222.45,-140.99"/>
<polygon fill="black" stroke="black" points="218.95,-140.99 222.45,-150.99 225.95,-140.99 218.95,-140.99"/>
</g>
<!-- DomainComponent  -->
<g id="node4" class="node">
<title>DomainComponent </title>
<polygon fill="#fb8072" stroke="black" points="312.93,-252 183.07,-252 183.07,-216 312.93,-216 312.93,-252"/>
<text text-anchor="middle" x="248" y="-229.8" font-family="Times,serif" font-size="14.00">DomainComponent </text>
</g>
<!-- DomainModule&#45;&gt;DomainComponent  -->
<g id="edge3" class="edge">
<title>DomainModule&#45;&gt;DomainComponent </title>
<path fill="none" stroke="black" stroke-dasharray="5,2" d="M248,-187.11C248,-187.11 248,-205.99 248,-205.99"/>
<polygon fill="black" stroke="black" points="244.5,-205.99 248,-215.99 251.5,-205.99 244.5,-205.99"/>
</g>
<!-- UiCardModule -->
<g id="node3" class="node">
<title>UiCardModule</title>
<polygon fill="#8dd3c7" stroke="black" points="373.26,-122 370.26,-126 349.26,-126 346.26,-122 272.74,-122 272.74,-86 373.26,-86 373.26,-122"/>
<text text-anchor="middle" x="323" y="-99.8" font-family="Times,serif" font-size="14.00">UiCardModule</text>
</g>
<!-- UiCardModule&#45;&gt;DomainModule -->
<g id="edge2" class="edge">
<title>UiCardModule&#45;&gt;DomainModule</title>
<path fill="none" stroke="black" d="M286.47,-122.11C286.47,-122.11 286.47,-140.99 286.47,-140.99"/>
<polygon fill="black" stroke="black" points="282.97,-140.99 286.47,-150.99 289.97,-140.99 282.97,-140.99"/>
</g>
</g>
</svg>
