<?xml version="1.0" encoding="UTF-8" standalone="no"?>
<!DOCTYPE svg PUBLIC "-//W3C//DTD SVG 1.1//EN"
 "http://www.w3.org/Graphics/SVG/1.1/DTD/svg11.dtd">
<!-- Generated by graphviz version 3.0.0 (20220226.1711)
 -->
<!-- Title: dependencies Pages: 1 -->
<svg width="306pt" height="247pt"
 viewBox="0.00 0.00 306.00 246.80" xmlns="http://www.w3.org/2000/svg" xmlns:xlink="http://www.w3.org/1999/xlink">
<g id="graph0" class="graph" transform="scale(1 1) rotate(0) translate(4 242.8)">
<title>dependencies</title>
<polygon fill="white" stroke="transparent" points="-4,4 -4,-242.8 302,-242.8 302,4 -4,4"/>
<text text-anchor="middle" x="149" y="-8.2" font-family="sans-serif" font-size="14.00">dependencies</text>
<g id="clust1" class="cluster">
<title>cluster_DomainModule</title>
<polygon fill="none" stroke="black" stroke-dasharray="1,5" points="8,-32.8 8,-230.8 290,-230.8 290,-32.8 8,-32.8"/>
</g>
<g id="clust5" class="cluster">
<title>cluster_DomainModule_exports</title>
<polygon fill="none" stroke="black" points="76,-170.8 76,-222.8 222,-222.8 222,-170.8 76,-170.8"/>
</g>
<g id="clust4" class="cluster">
<title>cluster_DomainModule_imports</title>
<polygon fill="none" stroke="black" points="166,-40.8 166,-92.8 282,-92.8 282,-40.8 166,-40.8"/>
</g>
<g id="clust2" class="cluster">
<title>cluster_DomainModule_declarations</title>
<polygon fill="none" stroke="black" points="16,-40.8 16,-92.8 158,-92.8 158,-40.8 16,-40.8"/>
</g>
<!-- DomainComponent -->
<g id="node1" class="node">
<title>DomainComponent</title>
<polygon fill="#ffffb3" stroke="black" points="150.44,-84.8 23.56,-84.8 23.56,-48.8 150.44,-48.8 150.44,-84.8"/>
<text text-anchor="middle" x="87" y="-62.6" font-family="Times,serif" font-size="14.00">DomainComponent</text>
</g>
<!-- DomainModule -->
<g id="node2" class="node">
<title>DomainModule</title>
<polygon fill="#8dd3c7" stroke="black" points="201.16,-149.8 198.16,-153.8 177.16,-153.8 174.16,-149.8 96.84,-149.8 96.84,-113.8 201.16,-113.8 201.16,-149.8"/>
<text text-anchor="middle" x="149" y="-127.6" font-family="Times,serif" font-size="14.00">DomainModule</text>
</g>
<!-- DomainComponent&#45;&gt;DomainModule -->
<g id="edge1" class="edge">
<title>DomainComponent&#45;&gt;DomainModule</title>
<path fill="none" stroke="black" d="M123.44,-84.91C123.44,-84.91 123.44,-103.79 123.44,-103.79"/>
<polygon fill="black" stroke="black" points="119.94,-103.79 123.44,-113.79 126.94,-103.79 119.94,-103.79"/>
</g>
<!-- DomainComponent  -->
<g id="node4" class="node">
<title>DomainComponent </title>
<polygon fill="#fb8072" stroke="black" points="213.93,-214.8 84.07,-214.8 84.07,-178.8 213.93,-178.8 213.93,-214.8"/>
<text text-anchor="middle" x="149" y="-192.6" font-family="Times,serif" font-size="14.00">DomainComponent </text>
</g>
<!-- DomainModule&#45;&gt;DomainComponent  -->
<g id="edge3" class="edge">
<title>DomainModule&#45;&gt;DomainComponent </title>
<path fill="none" stroke="black" stroke-dasharray="5,2" d="M149,-149.91C149,-149.91 149,-168.79 149,-168.79"/>
<polygon fill="black" stroke="black" points="145.5,-168.79 149,-178.79 152.5,-168.79 145.5,-168.79"/>
</g>
<!-- UiCardModule -->
<g id="node3" class="node">
<title>UiCardModule</title>
<polygon fill="#8dd3c7" stroke="black" points="274.27,-84.8 271.27,-88.8 250.27,-88.8 247.27,-84.8 173.73,-84.8 173.73,-48.8 274.27,-48.8 274.27,-84.8"/>
<text text-anchor="middle" x="224" y="-62.6" font-family="Times,serif" font-size="14.00">UiCardModule</text>
</g>
<!-- UiCardModule&#45;&gt;DomainModule -->
<g id="edge2" class="edge">
<title>UiCardModule&#45;&gt;DomainModule</title>
<path fill="none" stroke="black" d="M187.47,-84.91C187.47,-84.91 187.47,-103.79 187.47,-103.79"/>
<polygon fill="black" stroke="black" points="183.97,-103.79 187.47,-113.79 190.97,-103.79 183.97,-103.79"/>
</g>
</g>
</svg>
