<?xml version="1.0" encoding="UTF-8" standalone="no"?>
<!DOCTYPE svg PUBLIC "-//W3C//DTD SVG 1.1//EN"
 "http://www.w3.org/Graphics/SVG/1.1/DTD/svg11.dtd">
<!-- Generated by graphviz version 3.0.0 (20220226.1711)
 -->
<!-- Title: dependencies Pages: 1 -->
<svg width="174pt" height="247pt"
 viewBox="0.00 0.00 174.00 246.80" xmlns="http://www.w3.org/2000/svg" xmlns:xlink="http://www.w3.org/1999/xlink">
<g id="graph0" class="graph" transform="scale(1 1) rotate(0) translate(4 242.8)">
<title>dependencies</title>
<polygon fill="white" stroke="transparent" points="-4,4 -4,-242.8 170,-242.8 170,4 -4,4"/>
<text text-anchor="middle" x="83" y="-8.2" font-family="sans-serif" font-size="14.00">dependencies</text>
<g id="clust1" class="cluster">
<title>cluster_FeatureGameModule</title>
<polygon fill="none" stroke="black" stroke-dasharray="1,5" points="8,-32.8 8,-230.8 158,-230.8 158,-32.8 8,-32.8"/>
</g>
<g id="clust3" class="cluster">
<title>cluster_FeatureGameModule_imports</title>
<polygon fill="none" stroke="black" points="28,-40.8 28,-92.8 138,-92.8 138,-40.8 28,-40.8"/>
</g>
<g id="clust4" class="cluster">
<title>cluster_FeatureGameModule_exports</title>
<polygon fill="none" stroke="black" points="26,-170.8 26,-222.8 140,-222.8 140,-170.8 26,-170.8"/>
</g>
<!-- BoardModule -->
<g id="node1" class="node">
<title>BoardModule</title>
<polygon fill="#8dd3c7" stroke="black" points="129.77,-84.8 126.77,-88.8 105.77,-88.8 102.77,-84.8 36.23,-84.8 36.23,-48.8 129.77,-48.8 129.77,-84.8"/>
<text text-anchor="middle" x="83" y="-62.6" font-family="Times,serif" font-size="14.00">BoardModule</text>
</g>
<!-- FeatureGameModule -->
<g id="node2" class="node">
<title>FeatureGameModule</title>
<polygon fill="#8dd3c7" stroke="black" points="150.46,-149.8 147.46,-153.8 126.46,-153.8 123.46,-149.8 15.54,-149.8 15.54,-113.8 150.46,-113.8 150.46,-149.8"/>
<text text-anchor="middle" x="83" y="-127.6" font-family="Times,serif" font-size="14.00">FeatureGameModule</text>
</g>
<!-- BoardModule&#45;&gt;FeatureGameModule -->
<g id="edge1" class="edge">
<title>BoardModule&#45;&gt;FeatureGameModule</title>
<path fill="none" stroke="black" d="M83,-84.91C83,-84.91 83,-103.79 83,-103.79"/>
<polygon fill="black" stroke="black" points="79.5,-103.79 83,-113.79 86.5,-103.79 79.5,-103.79"/>
</g>
<!-- BoardModule  -->
<g id="node3" class="node">
<title>BoardModule </title>
<polygon fill="#fb8072" stroke="black" points="131.77,-214.8 34.23,-214.8 34.23,-178.8 131.77,-178.8 131.77,-214.8"/>
<text text-anchor="middle" x="83" y="-192.6" font-family="Times,serif" font-size="14.00">BoardModule </text>
</g>
<!-- FeatureGameModule&#45;&gt;BoardModule  -->
<g id="edge2" class="edge">
<title>FeatureGameModule&#45;&gt;BoardModule </title>
<path fill="none" stroke="black" stroke-dasharray="5,2" d="M83,-149.91C83,-149.91 83,-168.79 83,-168.79"/>
<polygon fill="black" stroke="black" points="79.5,-168.79 83,-178.79 86.5,-168.79 79.5,-168.79"/>
</g>
</g>
</svg>
