<?xml version="1.0" encoding="UTF-8" standalone="no"?>
<!DOCTYPE svg PUBLIC "-//W3C//DTD SVG 1.1//EN"
 "http://www.w3.org/Graphics/SVG/1.1/DTD/svg11.dtd">
<!-- Generated by graphviz version 3.0.0 (20220226.1711)
 -->
<!-- Title: dependencies Pages: 1 -->
<svg width="4076pt" height="473pt"
 viewBox="0.00 0.00 4076.00 472.80" xmlns="http://www.w3.org/2000/svg" xmlns:xlink="http://www.w3.org/1999/xlink">
<g id="graph0" class="graph" transform="scale(1 1) rotate(0) translate(4 468.8)">
<title>dependencies</title>
<polygon fill="white" stroke="transparent" points="-4,4 -4,-468.8 4072,-468.8 4072,4 -4,4"/>
<text text-anchor="middle" x="2034" y="-8.2" font-family="sans-serif" font-size="14.00">dependencies</text>
<g id="clust1" class="cluster">
<title>cluster_ActionsModule</title>
<polygon fill="none" stroke="black" stroke-dasharray="1,5" points="8,-32.8 8,-236.8 168,-236.8 168,-32.8 8,-32.8"/>
</g>
<g id="clust2" class="cluster">
<title>cluster_ActionsModule_declarations</title>
<polygon fill="none" stroke="black" points="19,-40.8 19,-92.8 159,-92.8 159,-40.8 19,-40.8"/>
</g>
<g id="clust5" class="cluster">
<title>cluster_ActionsModule_exports</title>
<polygon fill="none" stroke="black" points="16,-176.8 16,-228.8 160,-228.8 160,-176.8 16,-176.8"/>
</g>
<g id="clust8" class="cluster">
<title>cluster_AppModule</title>
<polygon fill="none" stroke="black" stroke-dasharray="1,5" points="2595,-244.8 2595,-456.8 3179,-456.8 3179,-244.8 2595,-244.8"/>
</g>
<g id="clust9" class="cluster">
<title>cluster_AppModule_declarations</title>
<polygon fill="none" stroke="black" points="2603,-252.8 2603,-304.8 2725,-304.8 2725,-252.8 2603,-252.8"/>
</g>
<g id="clust11" class="cluster">
<title>cluster_AppModule_imports</title>
<polygon fill="none" stroke="black" points="2733,-252.8 2733,-304.8 3171,-304.8 3171,-252.8 2733,-252.8"/>
</g>
<g id="clust13" class="cluster">
<title>cluster_AppModule_bootstrap</title>
<polygon fill="none" stroke="black" points="2790,-396.8 2790,-448.8 2914,-448.8 2914,-396.8 2790,-396.8"/>
</g>
<g id="clust15" class="cluster">
<title>cluster_BoardModule</title>
<polygon fill="none" stroke="black" stroke-dasharray="1,5" points="176,-100.8 176,-312.8 884,-312.8 884,-100.8 176,-100.8"/>
</g>
<g id="clust16" class="cluster">
<title>cluster_BoardModule_declarations</title>
<polygon fill="none" stroke="black" points="184,-108.8 184,-160.8 316,-160.8 316,-108.8 184,-108.8"/>
</g>
<g id="clust18" class="cluster">
<title>cluster_BoardModule_imports</title>
<polygon fill="none" stroke="black" points="324,-108.8 324,-160.8 876,-160.8 876,-108.8 324,-108.8"/>
</g>
<g id="clust19" class="cluster">
<title>cluster_BoardModule_exports</title>
<polygon fill="none" stroke="black" points="477,-252.8 477,-304.8 613,-304.8 613,-252.8 477,-252.8"/>
</g>
<g id="clust22" class="cluster">
<title>cluster_DataAccessGameModule</title>
<polygon fill="none" stroke="black" stroke-dasharray="1,5" points="2378,-168.8 2378,-236.8 4060,-236.8 4060,-168.8 2378,-168.8"/>
</g>
<g id="clust27" class="cluster">
<title>cluster_DataAccessGameModule_providers</title>
<polygon fill="none" stroke="black" points="2386,-176.8 2386,-228.8 4052,-228.8 4052,-176.8 2386,-176.8"/>
</g>
<g id="clust28" class="cluster">
<title>cluster_DiceModule</title>
<polygon fill="none" stroke="black" stroke-dasharray="1,5" points="892,-168.8 892,-236.8 1168,-236.8 1168,-168.8 892,-168.8"/>
</g>
<g id="clust29" class="cluster">
<title>cluster_DiceModule_declarations</title>
<polygon fill="none" stroke="black" points="1036,-176.8 1036,-228.8 1160,-228.8 1160,-176.8 1036,-176.8"/>
</g>
<g id="clust32" class="cluster">
<title>cluster_DiceModule_exports</title>
<polygon fill="none" stroke="black" points="900,-176.8 900,-228.8 1028,-228.8 1028,-176.8 900,-176.8"/>
</g>
<g id="clust35" class="cluster">
<title>cluster_DomainModule</title>
<polygon fill="none" stroke="black" stroke-dasharray="1,5" points="1176,-168.8 1176,-236.8 1488,-236.8 1488,-168.8 1176,-168.8"/>
</g>
<g id="clust36" class="cluster">
<title>cluster_DomainModule_declarations</title>
<polygon fill="none" stroke="black" points="1338,-176.8 1338,-228.8 1480,-228.8 1480,-176.8 1338,-176.8"/>
</g>
<g id="clust39" class="cluster">
<title>cluster_DomainModule_exports</title>
<polygon fill="none" stroke="black" points="1184,-176.8 1184,-228.8 1330,-228.8 1330,-176.8 1184,-176.8"/>
</g>
<g id="clust48" class="cluster">
<title>cluster_FeatureGameModule</title>
<polygon fill="none" stroke="black" stroke-dasharray="1,5" points="3187,-320.8 3187,-388.8 3317,-388.8 3317,-320.8 3187,-320.8"/>
</g>
<g id="clust51" class="cluster">
<title>cluster_FeatureGameModule_exports</title>
<polygon fill="none" stroke="black" points="3195,-328.8 3195,-380.8 3309,-380.8 3309,-328.8 3195,-328.8"/>
</g>
<g id="clust54" class="cluster">
<title>cluster_HandModule</title>
<polygon fill="none" stroke="black" stroke-dasharray="1,5" points="1496,-168.8 1496,-236.8 1780,-236.8 1780,-168.8 1496,-168.8"/>
</g>
<g id="clust55" class="cluster">
<title>cluster_HandModule_declarations</title>
<polygon fill="none" stroke="black" points="1644,-176.8 1644,-228.8 1772,-228.8 1772,-176.8 1644,-176.8"/>
</g>
<g id="clust58" class="cluster">
<title>cluster_HandModule_exports</title>
<polygon fill="none" stroke="black" points="1504,-176.8 1504,-228.8 1636,-228.8 1636,-176.8 1504,-176.8"/>
</g>
<g id="clust61" class="cluster">
<title>cluster_PhasesModule</title>
<polygon fill="none" stroke="black" stroke-dasharray="1,5" points="1788,-168.8 1788,-236.8 2086,-236.8 2086,-168.8 1788,-168.8"/>
</g>
<g id="clust62" class="cluster">
<title>cluster_PhasesModule_declarations</title>
<polygon fill="none" stroke="black" points="1942,-176.8 1942,-228.8 2078,-228.8 2078,-176.8 1942,-176.8"/>
</g>
<g id="clust65" class="cluster">
<title>cluster_PhasesModule_exports</title>
<polygon fill="none" stroke="black" points="1796,-176.8 1796,-228.8 1934,-228.8 1934,-176.8 1796,-176.8"/>
</g>
<g id="clust68" class="cluster">
<title>cluster_PilesModule</title>
<polygon fill="none" stroke="black" stroke-dasharray="1,5" points="2094,-168.8 2094,-236.8 2370,-236.8 2370,-168.8 2094,-168.8"/>
</g>
<g id="clust69" class="cluster">
<title>cluster_PilesModule_declarations</title>
<polygon fill="none" stroke="black" points="2238,-176.8 2238,-228.8 2362,-228.8 2362,-176.8 2238,-176.8"/>
</g>
<g id="clust72" class="cluster">
<title>cluster_PilesModule_exports</title>
<polygon fill="none" stroke="black" points="2102,-176.8 2102,-228.8 2230,-228.8 2230,-176.8 2102,-176.8"/>
</g>
<g id="clust75" class="cluster">
<title>cluster_UiCardModule</title>
<polygon fill="none" stroke="black" stroke-dasharray="1,5" points="2406,-32.8 2406,-160.8 2546,-160.8 2546,-32.8 2406,-32.8"/>
</g>
<g id="clust76" class="cluster">
<title>cluster_UiCardModule_declarations</title>
<polygon fill="none" stroke="black" points="2414,-40.8 2414,-92.8 2538,-92.8 2538,-40.8 2414,-40.8"/>
</g>
<!-- ActionsComponent -->
<g id="node1" class="node">
<title>ActionsComponent</title>
<polygon fill="#ffffb3" stroke="black" points="151.38,-84.8 26.62,-84.8 26.62,-48.8 151.38,-48.8 151.38,-84.8"/>
<text text-anchor="middle" x="89" y="-62.6" font-family="Times,serif" font-size="14.00">ActionsComponent</text>
</g>
<!-- ActionsModule -->
<g id="node2" class="node">
<title>ActionsModule</title>
<polygon fill="#8dd3c7" stroke="black" points="140.6,-152.8 137.6,-156.8 116.6,-156.8 113.6,-152.8 37.4,-152.8 37.4,-116.8 140.6,-116.8 140.6,-152.8"/>
<text text-anchor="middle" x="89" y="-130.6" font-family="Times,serif" font-size="14.00">ActionsModule</text>
</g>
<!-- ActionsComponent&#45;&gt;ActionsModule -->
<g id="edge1" class="edge">
<title>ActionsComponent&#45;&gt;ActionsModule</title>
<path fill="none" stroke="black" d="M89,-85.02C89,-85.02 89,-106.53 89,-106.53"/>
<polygon fill="black" stroke="black" points="85.5,-106.53 89,-116.53 92.5,-106.53 85.5,-106.53"/>
</g>
<!-- ActionsComponent  -->
<g id="node3" class="node">
<title>ActionsComponent </title>
<polygon fill="#fb8072" stroke="black" points="152.38,-220.8 23.62,-220.8 23.62,-184.8 152.38,-184.8 152.38,-220.8"/>
<text text-anchor="middle" x="88" y="-198.6" font-family="Times,serif" font-size="14.00">ActionsComponent </text>
</g>
<!-- ActionsModule&#45;&gt;ActionsComponent  -->
<g id="edge2" class="edge">
<title>ActionsModule&#45;&gt;ActionsComponent </title>
<path fill="none" stroke="black" stroke-dasharray="5,2" d="M89,-153.02C89,-153.02 89,-174.53 89,-174.53"/>
<polygon fill="black" stroke="black" points="85.5,-174.53 89,-184.53 92.5,-174.53 85.5,-174.53"/>
</g>
<!-- BoardModule -->
<g id="node11" class="node">
<title>BoardModule</title>
<polygon fill="#8dd3c7" stroke="black" points="591.77,-220.8 588.77,-224.8 567.77,-224.8 564.77,-220.8 498.23,-220.8 498.23,-184.8 591.77,-184.8 591.77,-220.8"/>
<text text-anchor="middle" x="545" y="-198.6" font-family="Times,serif" font-size="14.00">BoardModule</text>
</g>
<!-- ActionsModule&#45;&gt;BoardModule -->
<g id="edge9" class="edge">
<title>ActionsModule&#45;&gt;BoardModule</title>
<path fill="none" stroke="black" d="M140.75,-134.8C157.67,-134.8 172.21,-134.8 172.21,-134.8 172.21,-134.8 172.21,-211.8 172.21,-211.8 172.21,-211.8 488.16,-211.8 488.16,-211.8"/>
<polygon fill="black" stroke="black" points="488.16,-215.3 498.16,-211.8 488.16,-208.3 488.16,-215.3"/>
</g>
<!-- AppComponent -->
<g id="node4" class="node">
<title>AppComponent</title>
<polygon fill="#ffffb3" stroke="black" points="2716.94,-296.8 2611.06,-296.8 2611.06,-260.8 2716.94,-260.8 2716.94,-296.8"/>
<text text-anchor="middle" x="2664" y="-274.6" font-family="Times,serif" font-size="14.00">AppComponent</text>
</g>
<!-- AppModule -->
<g id="node5" class="node">
<title>AppModule</title>
<polygon fill="#8dd3c7" stroke="black" points="2893.66,-372.8 2890.66,-376.8 2869.66,-376.8 2866.66,-372.8 2810.34,-372.8 2810.34,-336.8 2893.66,-336.8 2893.66,-372.8"/>
<text text-anchor="middle" x="2852" y="-350.6" font-family="Times,serif" font-size="14.00">AppModule</text>
</g>
<!-- AppComponent&#45;&gt;AppModule -->
<g id="edge3" class="edge">
<title>AppComponent&#45;&gt;AppModule</title>
<path fill="none" stroke="black" d="M2664,-296.81C2664,-319.29 2664,-354.8 2664,-354.8 2664,-354.8 2800.28,-354.8 2800.28,-354.8"/>
<polygon fill="black" stroke="black" points="2800.28,-358.3 2810.28,-354.8 2800.28,-351.3 2800.28,-358.3"/>
</g>
<!-- AppComponent  -->
<g id="node9" class="node">
<title>AppComponent </title>
<polygon fill="#80b1d3" stroke="black" points="2906.44,-440.8 2797.56,-440.8 2797.56,-404.8 2906.44,-404.8 2906.44,-440.8"/>
<text text-anchor="middle" x="2852" y="-418.6" font-family="Times,serif" font-size="14.00">AppComponent </text>
</g>
<!-- AppModule&#45;&gt;AppComponent  -->
<g id="edge7" class="edge">
<title>AppModule&#45;&gt;AppComponent </title>
<path fill="none" stroke="black" stroke-dasharray="1,5" d="M2852,-373.02C2852,-373.02 2852,-394.53 2852,-394.53"/>
<polygon fill="black" stroke="black" points="2848.5,-394.53 2852,-404.53 2855.5,-394.53 2848.5,-394.53"/>
</g>
<!-- !environment -->
<g id="node6" class="node">
<title>!environment</title>
<polygon fill="#8dd3c7" stroke="black" points="2832.92,-296.8 2829.92,-300.8 2808.92,-300.8 2805.92,-296.8 2741.08,-296.8 2741.08,-260.8 2832.92,-260.8 2832.92,-296.8"/>
<text text-anchor="middle" x="2787" y="-274.6" font-family="Times,serif" font-size="14.00">!environment</text>
</g>
<!-- !environment&#45;&gt;AppModule -->
<g id="edge4" class="edge">
<title>!environment&#45;&gt;AppModule</title>
<path fill="none" stroke="black" d="M2821.44,-296.81C2821.44,-296.81 2821.44,-326.65 2821.44,-326.65"/>
<polygon fill="black" stroke="black" points="2817.94,-326.65 2821.44,-336.65 2824.94,-326.65 2817.94,-326.65"/>
</g>
<!-- DataAccessGameModule -->
<g id="node7" class="node">
<title>DataAccessGameModule</title>
<polygon fill="#8dd3c7" stroke="black" points="3162.56,-296.8 3159.56,-300.8 3138.56,-300.8 3135.56,-296.8 3003.44,-296.8 3003.44,-260.8 3162.56,-260.8 3162.56,-296.8"/>
<text text-anchor="middle" x="3083" y="-274.6" font-family="Times,serif" font-size="14.00">DataAccessGameModule</text>
</g>
<!-- DataAccessGameModule&#45;&gt;AppModule -->
<g id="edge5" class="edge">
<title>DataAccessGameModule&#45;&gt;AppModule</title>
<path fill="none" stroke="black" d="M3083,-297C3083,-321.16 3083,-360.8 3083,-360.8 3083,-360.8 2903.83,-360.8 2903.83,-360.8"/>
<polygon fill="black" stroke="black" points="2903.83,-357.3 2893.83,-360.8 2903.83,-364.3 2903.83,-357.3"/>
</g>
<!-- FeatureGameModule -->
<g id="node8" class="node">
<title>FeatureGameModule</title>
<polygon fill="#8dd3c7" stroke="black" points="2985.46,-296.8 2982.46,-300.8 2961.46,-300.8 2958.46,-296.8 2850.54,-296.8 2850.54,-260.8 2985.46,-260.8 2985.46,-296.8"/>
<text text-anchor="middle" x="2918" y="-274.6" font-family="Times,serif" font-size="14.00">FeatureGameModule</text>
</g>
<!-- FeatureGameModule&#45;&gt;AppModule -->
<g id="edge6" class="edge">
<title>FeatureGameModule&#45;&gt;AppModule</title>
<path fill="none" stroke="black" d="M2872.18,-296.81C2872.18,-296.81 2872.18,-326.65 2872.18,-326.65"/>
<polygon fill="black" stroke="black" points="2868.68,-326.65 2872.18,-336.65 2875.68,-326.65 2868.68,-326.65"/>
</g>
<!-- BoardModule  -->
<g id="node30" class="node">
<title>BoardModule </title>
<polygon fill="#fb8072" stroke="black" points="3300.77,-372.8 3203.23,-372.8 3203.23,-336.8 3300.77,-336.8 3300.77,-372.8"/>
<text text-anchor="middle" x="3252" y="-350.6" font-family="Times,serif" font-size="14.00">BoardModule </text>
</g>
<!-- FeatureGameModule&#45;&gt;BoardModule  -->
<g id="edge29" class="edge">
<title>FeatureGameModule&#45;&gt;BoardModule </title>
<path fill="none" stroke="black" stroke-dasharray="5,2" d="M2945.98,-296.83C2945.98,-317.57 2945.98,-348.8 2945.98,-348.8 2945.98,-348.8 3193.17,-348.8 3193.17,-348.8"/>
<polygon fill="black" stroke="black" points="3193.17,-352.3 3203.17,-348.8 3193.17,-345.3 3193.17,-352.3"/>
</g>
<!-- BoardComponent -->
<g id="node10" class="node">
<title>BoardComponent</title>
<polygon fill="#ffffb3" stroke="black" points="307.55,-152.8 192.45,-152.8 192.45,-116.8 307.55,-116.8 307.55,-152.8"/>
<text text-anchor="middle" x="250" y="-130.6" font-family="Times,serif" font-size="14.00">BoardComponent</text>
</g>
<!-- BoardComponent&#45;&gt;BoardModule -->
<g id="edge8" class="edge">
<title>BoardComponent&#45;&gt;BoardModule</title>
<path fill="none" stroke="black" d="M250,-153.02C250,-173.17 250,-202.8 250,-202.8 250,-202.8 487.93,-202.8 487.93,-202.8"/>
<polygon fill="black" stroke="black" points="487.93,-206.3 497.93,-202.8 487.93,-199.3 487.93,-206.3"/>
</g>
<!-- BoardModule&#45;&gt;FeatureGameModule -->
<g id="edge28" class="edge">
<title>BoardModule&#45;&gt;FeatureGameModule</title>
<path fill="none" stroke="black" d="M560.63,-220.95C560.63,-234.54 560.63,-250.8 560.63,-250.8 560.63,-250.8 2918,-250.8 2918,-250.8 2918,-250.8 2918,-251.78 2918,-251.78"/>
<polygon fill="black" stroke="black" points="2914.5,-250.59 2918,-260.59 2921.5,-250.59 2914.5,-250.59"/>
</g>
<!-- BoardComponent  -->
<g id="node17" class="node">
<title>BoardComponent </title>
<polygon fill="#fb8072" stroke="black" points="604.54,-296.8 485.46,-296.8 485.46,-260.8 604.54,-260.8 604.54,-296.8"/>
<text text-anchor="middle" x="545" y="-274.6" font-family="Times,serif" font-size="14.00">BoardComponent </text>
</g>
<!-- BoardModule&#45;&gt;BoardComponent  -->
<g id="edge15" class="edge">
<title>BoardModule&#45;&gt;BoardComponent </title>
<path fill="none" stroke="black" stroke-dasharray="5,2" d="M529.37,-220.81C529.37,-220.81 529.37,-250.65 529.37,-250.65"/>
<polygon fill="black" stroke="black" points="525.87,-250.65 529.37,-260.65 532.87,-250.65 525.87,-250.65"/>
</g>
<!-- DiceModule -->
<g id="node12" class="node">
<title>DiceModule</title>
<polygon fill="#8dd3c7" stroke="black" points="417.98,-152.8 414.98,-156.8 393.98,-156.8 390.98,-152.8 332.02,-152.8 332.02,-116.8 417.98,-116.8 417.98,-152.8"/>
<text text-anchor="middle" x="375" y="-130.6" font-family="Times,serif" font-size="14.00">DiceModule</text>
</g>
<!-- DiceModule&#45;&gt;BoardModule -->
<g id="edge10" class="edge">
<title>DiceModule&#45;&gt;BoardModule</title>
<path fill="none" stroke="black" d="M396.49,-152.82C396.49,-170.17 396.49,-193.8 396.49,-193.8 396.49,-193.8 488.01,-193.8 488.01,-193.8"/>
<polygon fill="black" stroke="black" points="488.01,-197.3 498.01,-193.8 488.01,-190.3 488.01,-197.3"/>
</g>
<!-- DiceComponent  -->
<g id="node27" class="node">
<title>DiceComponent </title>
<polygon fill="#fb8072" stroke="black" points="1019.76,-220.8 908.24,-220.8 908.24,-184.8 1019.76,-184.8 1019.76,-220.8"/>
<text text-anchor="middle" x="964" y="-198.6" font-family="Times,serif" font-size="14.00">DiceComponent </text>
</g>
<!-- DiceModule&#45;&gt;DiceComponent  -->
<g id="edge25" class="edge">
<title>DiceModule&#45;&gt;DiceComponent </title>
<path fill="none" stroke="black" stroke-dasharray="5,2" d="M375,-152.84C375,-166.09 375,-181.8 375,-181.8 375,-181.8 964,-181.8 964,-181.8 964,-181.8 964,-182.09 964,-182.09"/>
<polygon fill="black" stroke="black" points="960.5,-174.72 964,-184.72 967.5,-174.72 960.5,-174.72"/>
</g>
<!-- DomainModule -->
<g id="node13" class="node">
<title>DomainModule</title>
<polygon fill="#8dd3c7" stroke="black" points="540.16,-152.8 537.16,-156.8 516.16,-156.8 513.16,-152.8 435.84,-152.8 435.84,-116.8 540.16,-116.8 540.16,-152.8"/>
<text text-anchor="middle" x="488" y="-130.6" font-family="Times,serif" font-size="14.00">DomainModule</text>
</g>
<!-- DomainModule&#45;&gt;BoardModule -->
<g id="edge11" class="edge">
<title>DomainModule&#45;&gt;BoardModule</title>
<path fill="none" stroke="black" d="M508.67,-153.02C508.67,-153.02 508.67,-174.53 508.67,-174.53"/>
<polygon fill="black" stroke="black" points="505.17,-174.53 508.67,-184.53 512.17,-174.53 505.17,-174.53"/>
</g>
<!-- DomainComponent  -->
<g id="node29" class="node">
<title>DomainComponent </title>
<polygon fill="#fb8072" stroke="black" points="1321.93,-220.8 1192.07,-220.8 1192.07,-184.8 1321.93,-184.8 1321.93,-220.8"/>
<text text-anchor="middle" x="1257" y="-198.6" font-family="Times,serif" font-size="14.00">DomainComponent </text>
</g>
<!-- DomainModule&#45;&gt;DomainComponent  -->
<g id="edge27" class="edge">
<title>DomainModule&#45;&gt;DomainComponent </title>
<path fill="none" stroke="black" stroke-dasharray="5,2" d="M529.78,-152.93C529.78,-163.51 529.78,-174.8 529.78,-174.8 529.78,-174.8 1257,-174.8 1257,-174.8 1257,-174.8 1257,-175.78 1257,-175.78"/>
<polygon fill="black" stroke="black" points="1253.5,-174.59 1257,-184.59 1260.5,-174.59 1253.5,-174.59"/>
</g>
<!-- HandModule -->
<g id="node14" class="node">
<title>HandModule</title>
<polygon fill="#8dd3c7" stroke="black" points="647.88,-152.8 644.88,-156.8 623.88,-156.8 620.88,-152.8 558.12,-152.8 558.12,-116.8 647.88,-116.8 647.88,-152.8"/>
<text text-anchor="middle" x="603" y="-130.6" font-family="Times,serif" font-size="14.00">HandModule</text>
</g>
<!-- HandModule&#45;&gt;BoardModule -->
<g id="edge12" class="edge">
<title>HandModule&#45;&gt;BoardModule</title>
<path fill="none" stroke="black" d="M574.97,-153.02C574.97,-153.02 574.97,-174.53 574.97,-174.53"/>
<polygon fill="black" stroke="black" points="571.47,-174.53 574.97,-184.53 578.47,-174.53 571.47,-174.53"/>
</g>
<!-- HandComponent  -->
<g id="node32" class="node">
<title>HandComponent </title>
<polygon fill="#fb8072" stroke="black" points="1627.66,-220.8 1512.34,-220.8 1512.34,-184.8 1627.66,-184.8 1627.66,-220.8"/>
<text text-anchor="middle" x="1570" y="-198.6" font-family="Times,serif" font-size="14.00">HandComponent </text>
</g>
<!-- HandModule&#45;&gt;HandComponent  -->
<g id="edge31" class="edge">
<title>HandModule&#45;&gt;HandComponent </title>
<path fill="none" stroke="black" stroke-dasharray="5,2" d="M633.47,-152.84C633.47,-160.55 633.47,-167.8 633.47,-167.8 633.47,-167.8 1570,-167.8 1570,-167.8 1570,-167.8 1570,-174.48 1570,-174.48"/>
<polygon fill="black" stroke="black" points="1566.5,-174.48 1570,-184.48 1573.5,-174.48 1566.5,-174.48"/>
</g>
<!-- PhasesModule -->
<g id="node15" class="node">
<title>PhasesModule</title>
<polygon fill="#8dd3c7" stroke="black" points="763.66,-152.8 760.66,-156.8 739.66,-156.8 736.66,-152.8 666.34,-152.8 666.34,-116.8 763.66,-116.8 763.66,-152.8"/>
<text text-anchor="middle" x="715" y="-130.6" font-family="Times,serif" font-size="14.00">PhasesModule</text>
</g>
<!-- PhasesModule&#45;&gt;BoardModule -->
<g id="edge13" class="edge">
<title>PhasesModule&#45;&gt;BoardModule</title>
<path fill="none" stroke="black" d="M739.42,-153.07C739.42,-171.36 739.42,-196.8 739.42,-196.8 739.42,-196.8 602.06,-196.8 602.06,-196.8"/>
<polygon fill="black" stroke="black" points="602.06,-193.3 592.06,-196.8 602.06,-200.3 602.06,-193.3"/>
</g>
<!-- PhasesComponent  -->
<g id="node34" class="node">
<title>PhasesComponent </title>
<polygon fill="#fb8072" stroke="black" points="1926.44,-220.8 1803.56,-220.8 1803.56,-184.8 1926.44,-184.8 1926.44,-220.8"/>
<text text-anchor="middle" x="1865" y="-198.6" font-family="Times,serif" font-size="14.00">PhasesComponent </text>
</g>
<!-- PhasesModule&#45;&gt;PhasesComponent  -->
<g id="edge33" class="edge">
<title>PhasesModule&#45;&gt;PhasesComponent </title>
<path fill="none" stroke="black" stroke-dasharray="5,2" d="M715,-152.86C715,-157.29 715,-160.8 715,-160.8 715,-160.8 1865,-160.8 1865,-160.8 1865,-160.8 1865,-174.74 1865,-174.74"/>
<polygon fill="black" stroke="black" points="1861.5,-174.74 1865,-184.74 1868.5,-174.74 1861.5,-174.74"/>
</g>
<!-- PilesModule -->
<g id="node16" class="node">
<title>PilesModule</title>
<polygon fill="#8dd3c7" stroke="black" points="868.28,-152.8 865.28,-156.8 844.28,-156.8 841.28,-152.8 781.72,-152.8 781.72,-116.8 868.28,-116.8 868.28,-152.8"/>
<text text-anchor="middle" x="825" y="-130.6" font-family="Times,serif" font-size="14.00">PilesModule</text>
</g>
<!-- PilesModule&#45;&gt;BoardModule -->
<g id="edge14" class="edge">
<title>PilesModule&#45;&gt;BoardModule</title>
<path fill="none" stroke="black" d="M825,-153.09C825,-175.01 825,-208.8 825,-208.8 825,-208.8 601.87,-208.8 601.87,-208.8"/>
<polygon fill="black" stroke="black" points="601.87,-205.3 591.87,-208.8 601.87,-212.3 601.87,-205.3"/>
</g>
<!-- PilesComponent  -->
<g id="node36" class="node">
<title>PilesComponent </title>
<polygon fill="#fb8072" stroke="black" points="2222.06,-220.8 2109.94,-220.8 2109.94,-184.8 2222.06,-184.8 2222.06,-220.8"/>
<text text-anchor="middle" x="2166" y="-198.6" font-family="Times,serif" font-size="14.00">PilesComponent </text>
</g>
<!-- PilesModule&#45;&gt;PilesComponent  -->
<g id="edge35" class="edge">
<title>PilesModule&#45;&gt;PilesComponent </title>
<path fill="none" stroke="black" stroke-dasharray="5,2" d="M868.48,-140.8C1098.8,-140.8 2166,-140.8 2166,-140.8 2166,-140.8 2166,-174.53 2166,-174.53"/>
<polygon fill="black" stroke="black" points="2162.5,-174.53 2166,-184.53 2169.5,-174.53 2162.5,-174.53"/>
</g>
<!-- DiscardPileCardsFacade -->
<g id="node18" class="node">
<title>DiscardPileCardsFacade</title>
<ellipse fill="#fdb462" stroke="black" cx="3938" cy="-202.8" rx="105.93" ry="18"/>
<text text-anchor="middle" x="3938" y="-198.6" font-family="Times,serif" font-size="14.00">DiscardPileCardsFacade</text>
</g>
<!-- DiscardPileCardsFacade&#45;&gt;DataAccessGameModule -->
<g id="edge16" class="edge">
<title>DiscardPileCardsFacade&#45;&gt;DataAccessGameModule</title>
<path fill="none" stroke="black" d="M3938,-220.83C3938,-245.78 3938,-287.8 3938,-287.8 3938,-287.8 3172.67,-287.8 3172.67,-287.8"/>
<polygon fill="black" stroke="black" points="3172.67,-284.3 3162.67,-287.8 3172.67,-291.3 3172.67,-284.3"/>
</g>
<!-- DomainsCardsFacade -->
<g id="node19" class="node">
<title>DomainsCardsFacade</title>
<ellipse fill="#fdb462" stroke="black" cx="3718" cy="-202.8" rx="95.56" ry="18"/>
<text text-anchor="middle" x="3718" y="-198.6" font-family="Times,serif" font-size="14.00">DomainsCardsFacade</text>
</g>
<!-- DomainsCardsFacade&#45;&gt;DataAccessGameModule -->
<g id="edge17" class="edge">
<title>DomainsCardsFacade&#45;&gt;DataAccessGameModule</title>
<path fill="none" stroke="black" d="M3718,-220.81C3718,-243.29 3718,-278.8 3718,-278.8 3718,-278.8 3172.78,-278.8 3172.78,-278.8"/>
<polygon fill="black" stroke="black" points="3172.78,-275.3 3162.78,-278.8 3172.78,-282.3 3172.78,-275.3"/>
</g>
<!-- EventsPileCardsFacade -->
<g id="node20" class="node">
<title>EventsPileCardsFacade</title>
<ellipse fill="#fdb462" stroke="black" cx="3502" cy="-202.8" rx="102.43" ry="18"/>
<text text-anchor="middle" x="3502" y="-198.6" font-family="Times,serif" font-size="14.00">EventsPileCardsFacade</text>
</g>
<!-- EventsPileCardsFacade&#45;&gt;DataAccessGameModule -->
<g id="edge18" class="edge">
<title>EventsPileCardsFacade&#45;&gt;DataAccessGameModule</title>
<path fill="none" stroke="black" d="M3502,-221.11C3502,-240.95 3502,-269.8 3502,-269.8 3502,-269.8 3172.8,-269.8 3172.8,-269.8"/>
<polygon fill="black" stroke="black" points="3172.8,-266.3 3162.8,-269.8 3172.8,-273.3 3172.8,-266.3"/>
</g>
<!-- FaceUpPilesCardsFacade -->
<g id="node21" class="node">
<title>FaceUpPilesCardsFacade</title>
<ellipse fill="#fdb462" stroke="black" cx="3272" cy="-202.8" rx="109.95" ry="18"/>
<text text-anchor="middle" x="3272" y="-198.6" font-family="Times,serif" font-size="14.00">FaceUpPilesCardsFacade</text>
</g>
<!-- FaceUpPilesCardsFacade&#45;&gt;DataAccessGameModule -->
<g id="edge19" class="edge">
<title>FaceUpPilesCardsFacade&#45;&gt;DataAccessGameModule</title>
<path fill="none" stroke="black" d="M3162.28,-202.8C3156.7,-202.8 3153.36,-202.8 3153.36,-202.8 3153.36,-202.8 3153.36,-250.79 3153.36,-250.79"/>
<polygon fill="black" stroke="black" points="3149.86,-250.79 3153.36,-260.79 3156.86,-250.79 3149.86,-250.79"/>
</g>
<!-- GameFacade -->
<g id="node22" class="node">
<title>GameFacade</title>
<ellipse fill="#fdb462" stroke="black" cx="3083" cy="-202.8" rx="61.38" ry="18"/>
<text text-anchor="middle" x="3083" y="-198.6" font-family="Times,serif" font-size="14.00">GameFacade</text>
</g>
<!-- GameFacade&#45;&gt;DataAccessGameModule -->
<g id="edge20" class="edge">
<title>GameFacade&#45;&gt;DataAccessGameModule</title>
<path fill="none" stroke="black" d="M3083,-220.81C3083,-220.81 3083,-250.65 3083,-250.65"/>
<polygon fill="black" stroke="black" points="3079.5,-250.65 3083,-260.65 3086.5,-250.65 3079.5,-250.65"/>
</g>
<!-- HandsCardsFacade -->
<g id="node23" class="node">
<title>HandsCardsFacade</title>
<ellipse fill="#fdb462" stroke="black" cx="2918" cy="-202.8" rx="85.67" ry="18"/>
<text text-anchor="middle" x="2918" y="-198.6" font-family="Times,serif" font-size="14.00">HandsCardsFacade</text>
</g>
<!-- HandsCardsFacade&#45;&gt;DataAccessGameModule -->
<g id="edge21" class="edge">
<title>HandsCardsFacade&#45;&gt;DataAccessGameModule</title>
<path fill="none" stroke="black" d="M3003.71,-202.8C3011.81,-202.8 3017.07,-202.8 3017.07,-202.8 3017.07,-202.8 3017.07,-250.79 3017.07,-250.79"/>
<polygon fill="black" stroke="black" points="3013.57,-250.79 3017.07,-260.79 3020.57,-250.79 3013.57,-250.79"/>
</g>
<!-- LandsPileCardsFacade -->
<g id="node24" class="node">
<title>LandsPileCardsFacade</title>
<ellipse fill="#fdb462" stroke="black" cx="2715" cy="-202.8" rx="99.57" ry="18"/>
<text text-anchor="middle" x="2715" y="-198.6" font-family="Times,serif" font-size="14.00">LandsPileCardsFacade</text>
</g>
<!-- LandsPileCardsFacade&#45;&gt;DataAccessGameModule -->
<g id="edge22" class="edge">
<title>LandsPileCardsFacade&#45;&gt;DataAccessGameModule</title>
<path fill="none" stroke="black" d="M2777.91,-216.8C2777.91,-223.8 2777.91,-230.8 2777.91,-230.8 2777.91,-230.8 3012.57,-230.8 3012.57,-230.8 3012.57,-230.8 3012.57,-250.65 3012.57,-250.65"/>
<polygon fill="black" stroke="black" points="3009.07,-250.65 3012.57,-260.65 3016.07,-250.65 3009.07,-250.65"/>
</g>
<!-- StockPilesCardsFacade -->
<g id="node25" class="node">
<title>StockPilesCardsFacade</title>
<ellipse fill="#fdb462" stroke="black" cx="2496" cy="-202.8" rx="101.88" ry="18"/>
<text text-anchor="middle" x="2496" y="-198.6" font-family="Times,serif" font-size="14.00">StockPilesCardsFacade</text>
</g>
<!-- StockPilesCardsFacade&#45;&gt;DataAccessGameModule -->
<g id="edge23" class="edge">
<title>StockPilesCardsFacade&#45;&gt;DataAccessGameModule</title>
<path fill="none" stroke="black" d="M2496,-220.91C2496,-230.7 2496,-240.8 2496,-240.8 2496,-240.8 3008.08,-240.8 3008.08,-240.8 3008.08,-240.8 3008.08,-250.69 3008.08,-250.69"/>
<polygon fill="black" stroke="black" points="3004.58,-250.69 3008.08,-260.69 3011.58,-250.69 3004.58,-250.69"/>
</g>
<!-- DiceComponent -->
<g id="node26" class="node">
<title>DiceComponent</title>
<polygon fill="#ffffb3" stroke="black" points="1151.76,-220.8 1044.24,-220.8 1044.24,-184.8 1151.76,-184.8 1151.76,-220.8"/>
<text text-anchor="middle" x="1098" y="-198.6" font-family="Times,serif" font-size="14.00">DiceComponent</text>
</g>
<!-- DiceComponent&#45;&gt;DiceModule -->
<g id="edge24" class="edge">
<title>DiceComponent&#45;&gt;DiceModule</title>
<path fill="none" stroke="black" d="M1098,-184.63C1098,-180.75 1098,-177.8 1098,-177.8 1098,-177.8 353.51,-177.8 353.51,-177.8 353.51,-177.8 353.51,-163.29 353.51,-163.29"/>
<polygon fill="black" stroke="black" points="357.01,-163.29 353.51,-153.29 350.01,-163.29 357.01,-163.29"/>
</g>
<!-- DomainComponent -->
<g id="node28" class="node">
<title>DomainComponent</title>
<polygon fill="#ffffb3" stroke="black" points="1472.44,-220.8 1345.56,-220.8 1345.56,-184.8 1472.44,-184.8 1472.44,-220.8"/>
<text text-anchor="middle" x="1409" y="-198.6" font-family="Times,serif" font-size="14.00">DomainComponent</text>
</g>
<!-- DomainComponent&#45;&gt;DomainModule -->
<g id="edge26" class="edge">
<title>DomainComponent&#45;&gt;DomainModule</title>
<path fill="none" stroke="black" d="M1409,-184.56C1409,-177.37 1409,-170.8 1409,-170.8 1409,-170.8 519.22,-170.8 519.22,-170.8 519.22,-170.8 519.22,-163.22 519.22,-163.22"/>
<polygon fill="black" stroke="black" points="522.72,-163.22 519.22,-153.22 515.72,-163.22 522.72,-163.22"/>
</g>
<!-- HandComponent -->
<g id="node31" class="node">
<title>HandComponent</title>
<polygon fill="#ffffb3" stroke="black" points="1763.66,-220.8 1652.34,-220.8 1652.34,-184.8 1763.66,-184.8 1763.66,-220.8"/>
<text text-anchor="middle" x="1708" y="-198.6" font-family="Times,serif" font-size="14.00">HandComponent</text>
</g>
<!-- HandComponent&#45;&gt;HandModule -->
<g id="edge30" class="edge">
<title>HandComponent&#45;&gt;HandModule</title>
<path fill="none" stroke="black" d="M1708,-184.67C1708,-174.49 1708,-163.8 1708,-163.8 1708,-163.8 618.99,-163.8 618.99,-163.8 618.99,-163.8 618.99,-162.72 618.99,-162.72"/>
<polygon fill="black" stroke="black" points="622.49,-163 618.99,-153 615.49,-163 622.49,-163"/>
</g>
<!-- PhasesComponent -->
<g id="node33" class="node">
<title>PhasesComponent</title>
<polygon fill="#ffffb3" stroke="black" points="2069.94,-220.8 1950.06,-220.8 1950.06,-184.8 2069.94,-184.8 2069.94,-220.8"/>
<text text-anchor="middle" x="2010" y="-198.6" font-family="Times,serif" font-size="14.00">PhasesComponent</text>
</g>
<!-- PhasesComponent&#45;&gt;PhasesModule -->
<g id="edge32" class="edge">
<title>PhasesComponent&#45;&gt;PhasesModule</title>
<path fill="none" stroke="black" d="M2010,-184.62C2010,-171.76 2010,-156.8 2010,-156.8 2010,-156.8 690.58,-156.8 690.58,-156.8 690.58,-156.8 690.58,-156.42 690.58,-156.42"/>
<polygon fill="black" stroke="black" points="694.08,-162.97 690.58,-152.97 687.08,-162.97 694.08,-162.97"/>
</g>
<!-- PilesComponent -->
<g id="node35" class="node">
<title>PilesComponent</title>
<polygon fill="#ffffb3" stroke="black" points="2354.06,-220.8 2245.94,-220.8 2245.94,-184.8 2354.06,-184.8 2354.06,-220.8"/>
<text text-anchor="middle" x="2300" y="-198.6" font-family="Times,serif" font-size="14.00">PilesComponent</text>
</g>
<!-- PilesComponent&#45;&gt;PilesModule -->
<g id="edge34" class="edge">
<title>PilesComponent&#45;&gt;PilesModule</title>
<path fill="none" stroke="black" d="M2300,-184.51C2300,-162.59 2300,-128.8 2300,-128.8 2300,-128.8 878.35,-128.8 878.35,-128.8"/>
<polygon fill="black" stroke="black" points="878.35,-125.3 868.35,-128.8 878.35,-132.3 878.35,-125.3"/>
</g>
<!-- CardComponent -->
<g id="node37" class="node">
<title>CardComponent</title>
<polygon fill="#ffffb3" stroke="black" points="2530.05,-84.8 2421.95,-84.8 2421.95,-48.8 2530.05,-48.8 2530.05,-84.8"/>
<text text-anchor="middle" x="2476" y="-62.6" font-family="Times,serif" font-size="14.00">CardComponent</text>
</g>
<!-- UiCardModule -->
<g id="node38" class="node">
<title>UiCardModule</title>
<polygon fill="#8dd3c7" stroke="black" points="2526.27,-152.8 2523.27,-156.8 2502.27,-156.8 2499.27,-152.8 2425.73,-152.8 2425.73,-116.8 2526.27,-116.8 2526.27,-152.8"/>
<text text-anchor="middle" x="2476" y="-130.6" font-family="Times,serif" font-size="14.00">UiCardModule</text>
</g>
<!-- CardComponent&#45;&gt;UiCardModule -->
<g id="edge36" class="edge">
<title>CardComponent&#45;&gt;UiCardModule</title>
<path fill="none" stroke="black" d="M2476,-85.02C2476,-85.02 2476,-106.53 2476,-106.53"/>
<polygon fill="black" stroke="black" points="2472.5,-106.53 2476,-116.53 2479.5,-106.53 2472.5,-106.53"/>
</g>
</g>
</svg>
