<?xml version="1.0" encoding="UTF-8" standalone="no"?>
<!DOCTYPE svg PUBLIC "-//W3C//DTD SVG 1.1//EN"
 "http://www.w3.org/Graphics/SVG/1.1/DTD/svg11.dtd">
<!-- Generated by graphviz version 3.0.0 (20220226.1711)
 -->
<!-- Title: dependencies Pages: 1 -->
<svg width="1854pt" height="323pt"
 viewBox="0.00 0.00 1854.00 322.80" xmlns="http://www.w3.org/2000/svg" xmlns:xlink="http://www.w3.org/1999/xlink">
<g id="graph0" class="graph" transform="scale(1 1) rotate(0) translate(4 318.8)">
<title>dependencies</title>
<polygon fill="white" stroke="transparent" points="-4,4 -4,-318.8 1850,-318.8 1850,4 -4,4"/>
<text text-anchor="middle" x="923" y="-8.2" font-family="sans-serif" font-size="14.00">dependencies</text>
<g id="clust1" class="cluster">
<title>cluster_AppModule</title>
<polygon fill="none" stroke="black" stroke-dasharray="1,5" points="711,-108.8 711,-306.8 1142,-306.8 1142,-108.8 711,-108.8"/>
</g>
<g id="clust2" class="cluster">
<title>cluster_AppModule_declarations</title>
<polygon fill="none" stroke="black" points="1012,-116.8 1012,-168.8 1134,-168.8 1134,-116.8 1012,-116.8"/>
</g>
<g id="clust4" class="cluster">
<title>cluster_AppModule_imports</title>
<polygon fill="none" stroke="black" points="719,-116.8 719,-168.8 1004,-168.8 1004,-116.8 719,-116.8"/>
</g>
<g id="clust6" class="cluster">
<title>cluster_AppModule_bootstrap</title>
<polygon fill="none" stroke="black" points="888,-246.8 888,-298.8 1012,-298.8 1012,-246.8 888,-246.8"/>
</g>
<g id="clust8" class="cluster">
<title>cluster_DataAccessGameModule</title>
<polygon fill="none" stroke="black" stroke-dasharray="1,5" points="8,-32.8 8,-100.8 1690,-100.8 1690,-32.8 8,-32.8"/>
</g>
<g id="clust13" class="cluster">
<title>cluster_DataAccessGameModule_providers</title>
<polygon fill="none" stroke="black" points="16,-40.8 16,-92.8 1682,-92.8 1682,-40.8 16,-40.8"/>
</g>
<g id="clust20" class="cluster">
<title>cluster_UiCardModule</title>
<polygon fill="none" stroke="black" stroke-dasharray="1,5" points="1698,-32.8 1698,-168.8 1838,-168.8 1838,-32.8 1698,-32.8"/>
</g>
<g id="clust21" class="cluster">
<title>cluster_UiCardModule_declarations</title>
<polygon fill="none" stroke="black" points="1706,-40.8 1706,-92.8 1830,-92.8 1830,-40.8 1706,-40.8"/>
</g>
<!-- AppComponent -->
<g id="node1" class="node">
<title>AppComponent</title>
<polygon fill="#ffffb3" stroke="black" points="1125.94,-160.8 1020.06,-160.8 1020.06,-124.8 1125.94,-124.8 1125.94,-160.8"/>
<text text-anchor="middle" x="1073" y="-138.6" font-family="Times,serif" font-size="14.00">AppComponent</text>
</g>
<!-- AppModule -->
<g id="node2" class="node">
<title>AppModule</title>
<polygon fill="#8dd3c7" stroke="black" points="991.66,-225.8 988.66,-229.8 967.66,-229.8 964.66,-225.8 908.34,-225.8 908.34,-189.8 991.66,-189.8 991.66,-225.8"/>
<text text-anchor="middle" x="950" y="-203.6" font-family="Times,serif" font-size="14.00">AppModule</text>
</g>
<!-- AppComponent&#45;&gt;AppModule -->
<g id="edge1" class="edge">
<title>AppComponent&#45;&gt;AppModule</title>
<path fill="none" stroke="black" d="M1073,-160.91C1073,-180.14 1073,-207.8 1073,-207.8 1073,-207.8 1001.99,-207.8 1001.99,-207.8"/>
<polygon fill="black" stroke="black" points="1001.99,-204.3 991.99,-207.8 1001.99,-211.3 1001.99,-204.3"/>
</g>
<!-- AppComponent  -->
<g id="node5" class="node">
<title>AppComponent </title>
<polygon fill="#80b1d3" stroke="black" points="1004.44,-290.8 895.56,-290.8 895.56,-254.8 1004.44,-254.8 1004.44,-290.8"/>
<text text-anchor="middle" x="950" y="-268.6" font-family="Times,serif" font-size="14.00">AppComponent </text>
</g>
<!-- AppModule&#45;&gt;AppComponent  -->
<g id="edge4" class="edge">
<title>AppModule&#45;&gt;AppComponent </title>
<path fill="none" stroke="black" stroke-dasharray="1,5" d="M950,-225.91C950,-225.91 950,-244.79 950,-244.79"/>
<polygon fill="black" stroke="black" points="946.5,-244.79 950,-254.79 953.5,-244.79 946.5,-244.79"/>
</g>
<!-- !environment -->
<g id="node3" class="node">
<title>!environment</title>
<polygon fill="#8dd3c7" stroke="black" points="995.92,-160.8 992.92,-164.8 971.92,-164.8 968.92,-160.8 904.08,-160.8 904.08,-124.8 995.92,-124.8 995.92,-160.8"/>
<text text-anchor="middle" x="950" y="-138.6" font-family="Times,serif" font-size="14.00">!environment</text>
</g>
<!-- !environment&#45;&gt;AppModule -->
<g id="edge2" class="edge">
<title>!environment&#45;&gt;AppModule</title>
<path fill="none" stroke="black" d="M950,-160.91C950,-160.91 950,-179.79 950,-179.79"/>
<polygon fill="black" stroke="black" points="946.5,-179.79 950,-189.79 953.5,-179.79 946.5,-179.79"/>
</g>
<!-- DataAccessGameModule -->
<g id="node4" class="node">
<title>DataAccessGameModule</title>
<polygon fill="#8dd3c7" stroke="black" points="886.56,-160.8 883.56,-164.8 862.56,-164.8 859.56,-160.8 727.44,-160.8 727.44,-124.8 886.56,-124.8 886.56,-160.8"/>
<text text-anchor="middle" x="807" y="-138.6" font-family="Times,serif" font-size="14.00">DataAccessGameModule</text>
</g>
<!-- DataAccessGameModule&#45;&gt;AppModule -->
<g id="edge3" class="edge">
<title>DataAccessGameModule&#45;&gt;AppModule</title>
<path fill="none" stroke="black" d="M807,-160.91C807,-180.14 807,-207.8 807,-207.8 807,-207.8 898.25,-207.8 898.25,-207.8"/>
<polygon fill="black" stroke="black" points="898.25,-211.3 908.25,-207.8 898.25,-204.3 898.25,-211.3"/>
</g>
<!-- DiscardPileCardsFacade -->
<g id="node6" class="node">
<title>DiscardPileCardsFacade</title>
<ellipse fill="#fdb462" stroke="black" cx="1568" cy="-66.8" rx="105.93" ry="18"/>
<text text-anchor="middle" x="1568" y="-62.6" font-family="Times,serif" font-size="14.00">DiscardPileCardsFacade</text>
</g>
<!-- DiscardPileCardsFacade&#45;&gt;DataAccessGameModule -->
<g id="edge5" class="edge">
<title>DiscardPileCardsFacade&#45;&gt;DataAccessGameModule</title>
<path fill="none" stroke="black" d="M1568,-84.95C1568,-98.54 1568,-114.8 1568,-114.8 1568,-114.8 867.68,-114.8 867.68,-114.8 867.68,-114.8 867.68,-115.78 867.68,-115.78"/>
<polygon fill="black" stroke="black" points="864.18,-114.59 867.68,-124.59 871.18,-114.59 864.18,-114.59"/>
</g>
<!-- DomainsCardsFacade -->
<g id="node7" class="node">
<title>DomainsCardsFacade</title>
<ellipse fill="#fdb462" stroke="black" cx="1348" cy="-66.8" rx="95.56" ry="18"/>
<text text-anchor="middle" x="1348" y="-62.6" font-family="Times,serif" font-size="14.00">DomainsCardsFacade</text>
</g>
<!-- DomainsCardsFacade&#45;&gt;DataAccessGameModule -->
<g id="edge6" class="edge">
<title>DomainsCardsFacade&#45;&gt;DataAccessGameModule</title>
<path fill="none" stroke="black" d="M1348,-84.91C1348,-94.7 1348,-104.8 1348,-104.8 1348,-104.8 848.83,-104.8 848.83,-104.8 848.83,-104.8 848.83,-114.69 848.83,-114.69"/>
<polygon fill="black" stroke="black" points="845.33,-114.69 848.83,-124.69 852.33,-114.69 845.33,-114.69"/>
</g>
<!-- EventsPileCardsFacade -->
<g id="node8" class="node">
<title>EventsPileCardsFacade</title>
<ellipse fill="#fdb462" stroke="black" cx="1132" cy="-66.8" rx="102.43" ry="18"/>
<text text-anchor="middle" x="1132" y="-62.6" font-family="Times,serif" font-size="14.00">EventsPileCardsFacade</text>
</g>
<!-- EventsPileCardsFacade&#45;&gt;DataAccessGameModule -->
<g id="edge7" class="edge">
<title>EventsPileCardsFacade&#45;&gt;DataAccessGameModule</title>
<path fill="none" stroke="black" d="M1077.75,-82.11C1077.75,-88.65 1077.75,-94.8 1077.75,-94.8 1077.75,-94.8 829.98,-94.8 829.98,-94.8 829.98,-94.8 829.98,-114.65 829.98,-114.65"/>
<polygon fill="black" stroke="black" points="826.48,-114.65 829.98,-124.65 833.48,-114.65 826.48,-114.65"/>
</g>
<!-- FaceUpPilesCardsFacade -->
<g id="node9" class="node">
<title>FaceUpPilesCardsFacade</title>
<ellipse fill="#fdb462" stroke="black" cx="902" cy="-66.8" rx="109.95" ry="18"/>
<text text-anchor="middle" x="902" y="-62.6" font-family="Times,serif" font-size="14.00">FaceUpPilesCardsFacade</text>
</g>
<!-- FaceUpPilesCardsFacade&#45;&gt;DataAccessGameModule -->
<g id="edge8" class="edge">
<title>FaceUpPilesCardsFacade&#45;&gt;DataAccessGameModule</title>
<path fill="none" stroke="black" d="M811.13,-77.05C811.13,-77.05 811.13,-114.57 811.13,-114.57"/>
<polygon fill="black" stroke="black" points="807.63,-114.57 811.13,-124.57 814.63,-114.57 807.63,-114.57"/>
</g>
<!-- GameFacade -->
<g id="node10" class="node">
<title>GameFacade</title>
<ellipse fill="#fdb462" stroke="black" cx="713" cy="-66.8" rx="61.38" ry="18"/>
<text text-anchor="middle" x="713" y="-62.6" font-family="Times,serif" font-size="14.00">GameFacade</text>
</g>
<!-- GameFacade&#45;&gt;DataAccessGameModule -->
<g id="edge9" class="edge">
<title>GameFacade&#45;&gt;DataAccessGameModule</title>
<path fill="none" stroke="black" d="M750.96,-81.1C750.96,-81.1 750.96,-114.53 750.96,-114.53"/>
<polygon fill="black" stroke="black" points="747.46,-114.53 750.96,-124.53 754.46,-114.53 747.46,-114.53"/>
</g>
<!-- HandsCardsFacade -->
<g id="node11" class="node">
<title>HandsCardsFacade</title>
<ellipse fill="#fdb462" stroke="black" cx="548" cy="-66.8" rx="85.67" ry="18"/>
<text text-anchor="middle" x="548" y="-62.6" font-family="Times,serif" font-size="14.00">HandsCardsFacade</text>
</g>
<!-- HandsCardsFacade&#45;&gt;DataAccessGameModule -->
<g id="edge10" class="edge">
<title>HandsCardsFacade&#45;&gt;DataAccessGameModule</title>
<path fill="none" stroke="black" d="M548,-85.11C548,-104.95 548,-133.8 548,-133.8 548,-133.8 717.18,-133.8 717.18,-133.8"/>
<polygon fill="black" stroke="black" points="717.18,-137.3 727.18,-133.8 717.18,-130.3 717.18,-137.3"/>
</g>
<!-- LandsPileCardsFacade -->
<g id="node12" class="node">
<title>LandsPileCardsFacade</title>
<ellipse fill="#fdb462" stroke="black" cx="345" cy="-66.8" rx="99.57" ry="18"/>
<text text-anchor="middle" x="345" y="-62.6" font-family="Times,serif" font-size="14.00">LandsPileCardsFacade</text>
</g>
<!-- LandsPileCardsFacade&#45;&gt;DataAccessGameModule -->
<g id="edge11" class="edge">
<title>LandsPileCardsFacade&#45;&gt;DataAccessGameModule</title>
<path fill="none" stroke="black" d="M345,-84.81C345,-107.29 345,-142.8 345,-142.8 345,-142.8 717.32,-142.8 717.32,-142.8"/>
<polygon fill="black" stroke="black" points="717.32,-146.3 727.32,-142.8 717.32,-139.3 717.32,-146.3"/>
</g>
<!-- StockPilesCardsFacade -->
<g id="node13" class="node">
<title>StockPilesCardsFacade</title>
<ellipse fill="#fdb462" stroke="black" cx="126" cy="-66.8" rx="101.88" ry="18"/>
<text text-anchor="middle" x="126" y="-62.6" font-family="Times,serif" font-size="14.00">StockPilesCardsFacade</text>
</g>
<!-- StockPilesCardsFacade&#45;&gt;DataAccessGameModule -->
<g id="edge12" class="edge">
<title>StockPilesCardsFacade&#45;&gt;DataAccessGameModule</title>
<path fill="none" stroke="black" d="M126,-84.83C126,-109.78 126,-151.8 126,-151.8 126,-151.8 717.21,-151.8 717.21,-151.8"/>
<polygon fill="black" stroke="black" points="717.21,-155.3 727.21,-151.8 717.21,-148.3 717.21,-155.3"/>
</g>
<!-- CardComponent -->
<g id="node14" class="node">
<title>CardComponent</title>
<polygon fill="#ffffb3" stroke="black" points="1822.05,-84.8 1713.95,-84.8 1713.95,-48.8 1822.05,-48.8 1822.05,-84.8"/>
<text text-anchor="middle" x="1768" y="-62.6" font-family="Times,serif" font-size="14.00">CardComponent</text>
</g>
<!-- UiCardModule -->
<g id="node15" class="node">
<title>UiCardModule</title>
<polygon fill="#8dd3c7" stroke="black" points="1818.27,-160.8 1815.27,-164.8 1794.27,-164.8 1791.27,-160.8 1717.73,-160.8 1717.73,-124.8 1818.27,-124.8 1818.27,-160.8"/>
<text text-anchor="middle" x="1768" y="-138.6" font-family="Times,serif" font-size="14.00">UiCardModule</text>
</g>
<!-- CardComponent&#45;&gt;UiCardModule -->
<g id="edge13" class="edge">
<title>CardComponent&#45;&gt;UiCardModule</title>
<path fill="none" stroke="black" d="M1768,-84.81C1768,-84.81 1768,-114.65 1768,-114.65"/>
<polygon fill="black" stroke="black" points="1764.5,-114.65 1768,-124.65 1771.5,-114.65 1764.5,-114.65"/>
</g>
</g>
</svg>
