<?xml version="1.0" encoding="UTF-8" standalone="no"?>
<!DOCTYPE svg PUBLIC "-//W3C//DTD SVG 1.1//EN"
 "http://www.w3.org/Graphics/SVG/1.1/DTD/svg11.dtd">
<!-- Generated by graphviz version 3.0.0 (20220226.1711)
 -->
<!-- Title: dependencies Pages: 1 -->
<svg width="3966pt" height="625pt"
 viewBox="0.00 0.00 3966.00 624.80" xmlns="http://www.w3.org/2000/svg" xmlns:xlink="http://www.w3.org/1999/xlink">
<g id="graph0" class="graph" transform="scale(1 1) rotate(0) translate(4 620.8)">
<title>dependencies</title>
<polygon fill="white" stroke="transparent" points="-4,4 -4,-620.8 3962,-620.8 3962,4 -4,4"/>
<text text-anchor="middle" x="1979" y="-8.2" font-family="sans-serif" font-size="14.00">dependencies</text>
<g id="clust1" class="cluster">
<title>cluster_ActionsModule</title>
<polygon fill="none" stroke="black" stroke-dasharray="1,5" points="8,-176.8 8,-388.8 168,-388.8 168,-176.8 8,-176.8"/>
</g>
<g id="clust2" class="cluster">
<title>cluster_ActionsModule_declarations</title>
<polygon fill="none" stroke="black" points="19,-184.8 19,-236.8 159,-236.8 159,-184.8 19,-184.8"/>
</g>
<g id="clust5" class="cluster">
<title>cluster_ActionsModule_exports</title>
<polygon fill="none" stroke="black" points="16,-328.8 16,-380.8 160,-380.8 160,-328.8 16,-328.8"/>
</g>
<g id="clust8" class="cluster">
<title>cluster_AppModule</title>
<polygon fill="none" stroke="black" stroke-dasharray="1,5" points="2540,-396.8 2540,-608.8 3124,-608.8 3124,-396.8 2540,-396.8"/>
</g>
<g id="clust9" class="cluster">
<title>cluster_AppModule_declarations</title>
<polygon fill="none" stroke="black" points="2548,-404.8 2548,-456.8 2670,-456.8 2670,-404.8 2548,-404.8"/>
</g>
<g id="clust11" class="cluster">
<title>cluster_AppModule_imports</title>
<polygon fill="none" stroke="black" points="2678,-404.8 2678,-456.8 3116,-456.8 3116,-404.8 2678,-404.8"/>
</g>
<g id="clust13" class="cluster">
<title>cluster_AppModule_bootstrap</title>
<polygon fill="none" stroke="black" points="2735,-548.8 2735,-600.8 2859,-600.8 2859,-548.8 2735,-548.8"/>
</g>
<g id="clust15" class="cluster">
<title>cluster_BoardModule</title>
<polygon fill="none" stroke="black" stroke-dasharray="1,5" points="294,-252.8 294,-464.8 1002,-464.8 1002,-252.8 294,-252.8"/>
</g>
<g id="clust16" class="cluster">
<title>cluster_BoardModule_declarations</title>
<polygon fill="none" stroke="black" points="302,-260.8 302,-312.8 434,-312.8 434,-260.8 302,-260.8"/>
</g>
<g id="clust18" class="cluster">
<title>cluster_BoardModule_imports</title>
<polygon fill="none" stroke="black" points="442,-260.8 442,-312.8 994,-312.8 994,-260.8 442,-260.8"/>
</g>
<g id="clust19" class="cluster">
<title>cluster_BoardModule_exports</title>
<polygon fill="none" stroke="black" points="585,-404.8 585,-456.8 721,-456.8 721,-404.8 585,-404.8"/>
</g>
<g id="clust22" class="cluster">
<title>cluster_CardBackModule</title>
<polygon fill="none" stroke="black" stroke-dasharray="1,5" points="176,-32.8 176,-244.8 348,-244.8 348,-32.8 176,-32.8"/>
</g>
<g id="clust23" class="cluster">
<title>cluster_CardBackModule_declarations</title>
<polygon fill="none" stroke="black" points="185,-40.8 185,-92.8 339,-92.8 339,-40.8 185,-40.8"/>
</g>
<g id="clust26" class="cluster">
<title>cluster_CardBackModule_exports</title>
<polygon fill="none" stroke="black" points="184,-184.8 184,-236.8 340,-236.8 340,-184.8 184,-184.8"/>
</g>
<g id="clust29" class="cluster">
<title>cluster_DataAccessGameModule</title>
<polygon fill="none" stroke="black" stroke-dasharray="1,5" points="2212,-320.8 2212,-388.8 3950,-388.8 3950,-320.8 2212,-320.8"/>
</g>
<g id="clust34" class="cluster">
<title>cluster_DataAccessGameModule_providers</title>
<polygon fill="none" stroke="black" points="2220,-328.8 2220,-380.8 3942,-380.8 3942,-328.8 2220,-328.8"/>
</g>
<g id="clust35" class="cluster">
<title>cluster_DiceModule</title>
<polygon fill="none" stroke="black" stroke-dasharray="1,5" points="1010,-320.8 1010,-388.8 1286,-388.8 1286,-320.8 1010,-320.8"/>
</g>
<g id="clust36" class="cluster">
<title>cluster_DiceModule_declarations</title>
<polygon fill="none" stroke="black" points="1154,-328.8 1154,-380.8 1278,-380.8 1278,-328.8 1154,-328.8"/>
</g>
<g id="clust39" class="cluster">
<title>cluster_DiceModule_exports</title>
<polygon fill="none" stroke="black" points="1018,-328.8 1018,-380.8 1146,-380.8 1146,-328.8 1018,-328.8"/>
</g>
<g id="clust42" class="cluster">
<title>cluster_DomainModule</title>
<polygon fill="none" stroke="black" stroke-dasharray="1,5" points="1294,-320.8 1294,-388.8 1606,-388.8 1606,-320.8 1294,-320.8"/>
</g>
<g id="clust43" class="cluster">
<title>cluster_DomainModule_declarations</title>
<polygon fill="none" stroke="black" points="1456,-328.8 1456,-380.8 1598,-380.8 1598,-328.8 1456,-328.8"/>
</g>
<g id="clust46" class="cluster">
<title>cluster_DomainModule_exports</title>
<polygon fill="none" stroke="black" points="1302,-328.8 1302,-380.8 1448,-380.8 1448,-328.8 1302,-328.8"/>
</g>
<g id="clust55" class="cluster">
<title>cluster_FeatureGameModule</title>
<polygon fill="none" stroke="black" stroke-dasharray="1,5" points="3132,-472.8 3132,-540.8 3262,-540.8 3262,-472.8 3132,-472.8"/>
</g>
<g id="clust58" class="cluster">
<title>cluster_FeatureGameModule_exports</title>
<polygon fill="none" stroke="black" points="3140,-480.8 3140,-532.8 3254,-532.8 3254,-480.8 3140,-480.8"/>
</g>
<g id="clust61" class="cluster">
<title>cluster_HandModule</title>
<polygon fill="none" stroke="black" stroke-dasharray="1,5" points="1614,-320.8 1614,-388.8 1898,-388.8 1898,-320.8 1614,-320.8"/>
</g>
<g id="clust62" class="cluster">
<title>cluster_HandModule_declarations</title>
<polygon fill="none" stroke="black" points="1762,-328.8 1762,-380.8 1890,-380.8 1890,-328.8 1762,-328.8"/>
</g>
<g id="clust65" class="cluster">
<title>cluster_HandModule_exports</title>
<polygon fill="none" stroke="black" points="1622,-328.8 1622,-380.8 1754,-380.8 1754,-328.8 1622,-328.8"/>
</g>
<g id="clust68" class="cluster">
<title>cluster_PhasesModule</title>
<polygon fill="none" stroke="black" stroke-dasharray="1,5" points="1906,-320.8 1906,-388.8 2204,-388.8 2204,-320.8 1906,-320.8"/>
</g>
<g id="clust69" class="cluster">
<title>cluster_PhasesModule_declarations</title>
<polygon fill="none" stroke="black" points="2060,-328.8 2060,-380.8 2196,-380.8 2196,-328.8 2060,-328.8"/>
</g>
<g id="clust72" class="cluster">
<title>cluster_PhasesModule_exports</title>
<polygon fill="none" stroke="black" points="1914,-328.8 1914,-380.8 2052,-380.8 2052,-328.8 1914,-328.8"/>
</g>
<g id="clust75" class="cluster">
<title>cluster_PilesModule</title>
<polygon fill="none" stroke="black" stroke-dasharray="1,5" points="356,-176.8 356,-244.8 756,-244.8 756,-176.8 356,-176.8"/>
</g>
<g id="clust76" class="cluster">
<title>cluster_PilesModule_declarations</title>
<polygon fill="none" stroke="black" points="624,-184.8 624,-236.8 748,-236.8 748,-184.8 624,-184.8"/>
</g>
<g id="clust78" class="cluster">
<title>cluster_PilesModule_imports</title>
<polygon fill="none" stroke="black" points="500,-184.8 500,-236.8 616,-236.8 616,-184.8 500,-184.8"/>
</g>
<g id="clust79" class="cluster">
<title>cluster_PilesModule_exports</title>
<polygon fill="none" stroke="black" points="364,-184.8 364,-236.8 492,-236.8 492,-184.8 364,-184.8"/>
</g>
<g id="clust82" class="cluster">
<title>cluster_UiCardModule</title>
<polygon fill="none" stroke="black" stroke-dasharray="1,5" points="419,-100.8 419,-168.8 703,-168.8 703,-100.8 419,-100.8"/>
</g>
<g id="clust83" class="cluster">
<title>cluster_UiCardModule_declarations</title>
<polygon fill="none" stroke="black" points="571,-108.8 571,-160.8 695,-160.8 695,-108.8 571,-108.8"/>
</g>
<g id="clust86" class="cluster">
<title>cluster_UiCardModule_exports</title>
<polygon fill="none" stroke="black" points="427,-108.8 427,-160.8 563,-160.8 563,-108.8 427,-108.8"/>
</g>
<!-- ActionsComponent -->
<g id="node1" class="node">
<title>ActionsComponent</title>
<polygon fill="#ffffb3" stroke="black" points="151.38,-228.8 26.62,-228.8 26.62,-192.8 151.38,-192.8 151.38,-228.8"/>
<text text-anchor="middle" x="89" y="-206.6" font-family="Times,serif" font-size="14.00">ActionsComponent</text>
</g>
<!-- ActionsModule -->
<g id="node2" class="node">
<title>ActionsModule</title>
<polygon fill="#8dd3c7" stroke="black" points="140.6,-304.8 137.6,-308.8 116.6,-308.8 113.6,-304.8 37.4,-304.8 37.4,-268.8 140.6,-268.8 140.6,-304.8"/>
<text text-anchor="middle" x="89" y="-282.6" font-family="Times,serif" font-size="14.00">ActionsModule</text>
</g>
<!-- ActionsComponent&#45;&gt;ActionsModule -->
<g id="edge1" class="edge">
<title>ActionsComponent&#45;&gt;ActionsModule</title>
<path fill="none" stroke="black" d="M89,-228.81C89,-228.81 89,-258.65 89,-258.65"/>
<polygon fill="black" stroke="black" points="85.5,-258.65 89,-268.65 92.5,-258.65 85.5,-258.65"/>
</g>
<!-- ActionsComponent  -->
<g id="node3" class="node">
<title>ActionsComponent </title>
<polygon fill="#fb8072" stroke="black" points="152.38,-372.8 23.62,-372.8 23.62,-336.8 152.38,-336.8 152.38,-372.8"/>
<text text-anchor="middle" x="88" y="-350.6" font-family="Times,serif" font-size="14.00">ActionsComponent </text>
</g>
<!-- ActionsModule&#45;&gt;ActionsComponent  -->
<g id="edge2" class="edge">
<title>ActionsModule&#45;&gt;ActionsComponent </title>
<path fill="none" stroke="black" stroke-dasharray="5,2" d="M89,-305.02C89,-305.02 89,-326.53 89,-326.53"/>
<polygon fill="black" stroke="black" points="85.5,-326.53 89,-336.53 92.5,-326.53 85.5,-326.53"/>
</g>
<!-- BoardModule -->
<g id="node11" class="node">
<title>BoardModule</title>
<polygon fill="#8dd3c7" stroke="black" points="699.77,-372.8 696.77,-376.8 675.77,-376.8 672.77,-372.8 606.23,-372.8 606.23,-336.8 699.77,-336.8 699.77,-372.8"/>
<text text-anchor="middle" x="653" y="-350.6" font-family="Times,serif" font-size="14.00">BoardModule</text>
</g>
<!-- ActionsModule&#45;&gt;BoardModule -->
<g id="edge9" class="edge">
<title>ActionsModule&#45;&gt;BoardModule</title>
<path fill="none" stroke="black" d="M140.55,-286.8C157.41,-286.8 171.89,-286.8 171.89,-286.8 171.89,-286.8 171.89,-363.8 171.89,-363.8 171.89,-363.8 595.99,-363.8 595.99,-363.8"/>
<polygon fill="black" stroke="black" points="595.99,-367.3 605.99,-363.8 595.99,-360.3 595.99,-367.3"/>
</g>
<!-- AppComponent -->
<g id="node4" class="node">
<title>AppComponent</title>
<polygon fill="#ffffb3" stroke="black" points="2661.94,-448.8 2556.06,-448.8 2556.06,-412.8 2661.94,-412.8 2661.94,-448.8"/>
<text text-anchor="middle" x="2609" y="-426.6" font-family="Times,serif" font-size="14.00">AppComponent</text>
</g>
<!-- AppModule -->
<g id="node5" class="node">
<title>AppModule</title>
<polygon fill="#8dd3c7" stroke="black" points="2838.66,-524.8 2835.66,-528.8 2814.66,-528.8 2811.66,-524.8 2755.34,-524.8 2755.34,-488.8 2838.66,-488.8 2838.66,-524.8"/>
<text text-anchor="middle" x="2797" y="-502.6" font-family="Times,serif" font-size="14.00">AppModule</text>
</g>
<!-- AppComponent&#45;&gt;AppModule -->
<g id="edge3" class="edge">
<title>AppComponent&#45;&gt;AppModule</title>
<path fill="none" stroke="black" d="M2609,-448.81C2609,-471.29 2609,-506.8 2609,-506.8 2609,-506.8 2745.28,-506.8 2745.28,-506.8"/>
<polygon fill="black" stroke="black" points="2745.28,-510.3 2755.28,-506.8 2745.28,-503.3 2745.28,-510.3"/>
</g>
<!-- AppComponent  -->
<g id="node9" class="node">
<title>AppComponent </title>
<polygon fill="#80b1d3" stroke="black" points="2851.44,-592.8 2742.56,-592.8 2742.56,-556.8 2851.44,-556.8 2851.44,-592.8"/>
<text text-anchor="middle" x="2797" y="-570.6" font-family="Times,serif" font-size="14.00">AppComponent </text>
</g>
<!-- AppModule&#45;&gt;AppComponent  -->
<g id="edge7" class="edge">
<title>AppModule&#45;&gt;AppComponent </title>
<path fill="none" stroke="black" stroke-dasharray="1,5" d="M2797,-525.02C2797,-525.02 2797,-546.53 2797,-546.53"/>
<polygon fill="black" stroke="black" points="2793.5,-546.53 2797,-556.53 2800.5,-546.53 2793.5,-546.53"/>
</g>
<!-- !environment -->
<g id="node6" class="node">
<title>!environment</title>
<polygon fill="#8dd3c7" stroke="black" points="2777.92,-448.8 2774.92,-452.8 2753.92,-452.8 2750.92,-448.8 2686.08,-448.8 2686.08,-412.8 2777.92,-412.8 2777.92,-448.8"/>
<text text-anchor="middle" x="2732" y="-426.6" font-family="Times,serif" font-size="14.00">!environment</text>
</g>
<!-- !environment&#45;&gt;AppModule -->
<g id="edge4" class="edge">
<title>!environment&#45;&gt;AppModule</title>
<path fill="none" stroke="black" d="M2766.44,-448.81C2766.44,-448.81 2766.44,-478.65 2766.44,-478.65"/>
<polygon fill="black" stroke="black" points="2762.94,-478.65 2766.44,-488.65 2769.94,-478.65 2762.94,-478.65"/>
</g>
<!-- DataAccessGameModule -->
<g id="node7" class="node">
<title>DataAccessGameModule</title>
<polygon fill="#8dd3c7" stroke="black" points="3107.56,-448.8 3104.56,-452.8 3083.56,-452.8 3080.56,-448.8 2948.44,-448.8 2948.44,-412.8 3107.56,-412.8 3107.56,-448.8"/>
<text text-anchor="middle" x="3028" y="-426.6" font-family="Times,serif" font-size="14.00">DataAccessGameModule</text>
</g>
<!-- DataAccessGameModule&#45;&gt;AppModule -->
<g id="edge5" class="edge">
<title>DataAccessGameModule&#45;&gt;AppModule</title>
<path fill="none" stroke="black" d="M3028,-449C3028,-473.16 3028,-512.8 3028,-512.8 3028,-512.8 2848.83,-512.8 2848.83,-512.8"/>
<polygon fill="black" stroke="black" points="2848.83,-509.3 2838.83,-512.8 2848.83,-516.3 2848.83,-509.3"/>
</g>
<!-- FeatureGameModule -->
<g id="node8" class="node">
<title>FeatureGameModule</title>
<polygon fill="#8dd3c7" stroke="black" points="2930.46,-448.8 2927.46,-452.8 2906.46,-452.8 2903.46,-448.8 2795.54,-448.8 2795.54,-412.8 2930.46,-412.8 2930.46,-448.8"/>
<text text-anchor="middle" x="2863" y="-426.6" font-family="Times,serif" font-size="14.00">FeatureGameModule</text>
</g>
<!-- FeatureGameModule&#45;&gt;AppModule -->
<g id="edge6" class="edge">
<title>FeatureGameModule&#45;&gt;AppModule</title>
<path fill="none" stroke="black" d="M2817.18,-448.81C2817.18,-448.81 2817.18,-478.65 2817.18,-478.65"/>
<polygon fill="black" stroke="black" points="2813.68,-478.65 2817.18,-488.65 2820.68,-478.65 2813.68,-478.65"/>
</g>
<!-- BoardModule  -->
<g id="node33" class="node">
<title>BoardModule </title>
<polygon fill="#fb8072" stroke="black" points="3245.77,-524.8 3148.23,-524.8 3148.23,-488.8 3245.77,-488.8 3245.77,-524.8"/>
<text text-anchor="middle" x="3197" y="-502.6" font-family="Times,serif" font-size="14.00">BoardModule </text>
</g>
<!-- FeatureGameModule&#45;&gt;BoardModule  -->
<g id="edge31" class="edge">
<title>FeatureGameModule&#45;&gt;BoardModule </title>
<path fill="none" stroke="black" stroke-dasharray="5,2" d="M2890.98,-448.83C2890.98,-469.57 2890.98,-500.8 2890.98,-500.8 2890.98,-500.8 3138.17,-500.8 3138.17,-500.8"/>
<polygon fill="black" stroke="black" points="3138.17,-504.3 3148.17,-500.8 3138.17,-497.3 3138.17,-504.3"/>
</g>
<!-- BoardComponent -->
<g id="node10" class="node">
<title>BoardComponent</title>
<polygon fill="#ffffb3" stroke="black" points="425.55,-304.8 310.45,-304.8 310.45,-268.8 425.55,-268.8 425.55,-304.8"/>
<text text-anchor="middle" x="368" y="-282.6" font-family="Times,serif" font-size="14.00">BoardComponent</text>
</g>
<!-- BoardComponent&#45;&gt;BoardModule -->
<g id="edge8" class="edge">
<title>BoardComponent&#45;&gt;BoardModule</title>
<path fill="none" stroke="black" d="M368,-305.02C368,-325.17 368,-354.8 368,-354.8 368,-354.8 595.94,-354.8 595.94,-354.8"/>
<polygon fill="black" stroke="black" points="595.94,-358.3 605.94,-354.8 595.94,-351.3 595.94,-358.3"/>
</g>
<!-- BoardModule&#45;&gt;FeatureGameModule -->
<g id="edge30" class="edge">
<title>BoardModule&#45;&gt;FeatureGameModule</title>
<path fill="none" stroke="black" d="M668.63,-372.85C668.63,-387.17 668.63,-404.8 668.63,-404.8 668.63,-404.8 2821,-404.8 2821,-404.8 2821,-404.8 2821,-405.59 2821,-405.59"/>
<polygon fill="black" stroke="black" points="2817.5,-402.74 2821,-412.74 2824.5,-402.74 2817.5,-402.74"/>
</g>
<!-- BoardComponent  -->
<g id="node17" class="node">
<title>BoardComponent </title>
<polygon fill="#fb8072" stroke="black" points="712.54,-448.8 593.46,-448.8 593.46,-412.8 712.54,-412.8 712.54,-448.8"/>
<text text-anchor="middle" x="653" y="-426.6" font-family="Times,serif" font-size="14.00">BoardComponent </text>
</g>
<!-- BoardModule&#45;&gt;BoardComponent  -->
<g id="edge15" class="edge">
<title>BoardModule&#45;&gt;BoardComponent </title>
<path fill="none" stroke="black" stroke-dasharray="5,2" d="M637.37,-372.81C637.37,-372.81 637.37,-402.65 637.37,-402.65"/>
<polygon fill="black" stroke="black" points="633.87,-402.65 637.37,-412.65 640.87,-402.65 633.87,-402.65"/>
</g>
<!-- DiceModule -->
<g id="node12" class="node">
<title>DiceModule</title>
<polygon fill="#8dd3c7" stroke="black" points="639.98,-304.8 636.98,-308.8 615.98,-308.8 612.98,-304.8 554.02,-304.8 554.02,-268.8 639.98,-268.8 639.98,-304.8"/>
<text text-anchor="middle" x="597" y="-282.6" font-family="Times,serif" font-size="14.00">DiceModule</text>
</g>
<!-- DiceModule&#45;&gt;BoardModule -->
<g id="edge10" class="edge">
<title>DiceModule&#45;&gt;BoardModule</title>
<path fill="none" stroke="black" d="M614.59,-305.02C614.59,-305.02 614.59,-326.53 614.59,-326.53"/>
<polygon fill="black" stroke="black" points="611.09,-326.53 614.59,-336.53 618.09,-326.53 611.09,-326.53"/>
</g>
<!-- DiceComponent  -->
<g id="node30" class="node">
<title>DiceComponent </title>
<polygon fill="#fb8072" stroke="black" points="1137.76,-372.8 1026.24,-372.8 1026.24,-336.8 1137.76,-336.8 1137.76,-372.8"/>
<text text-anchor="middle" x="1082" y="-350.6" font-family="Times,serif" font-size="14.00">DiceComponent </text>
</g>
<!-- DiceModule&#45;&gt;DiceComponent  -->
<g id="edge27" class="edge">
<title>DiceModule&#45;&gt;DiceComponent </title>
<path fill="none" stroke="black" stroke-dasharray="5,2" d="M631.52,-304.98C631.52,-317.84 631.52,-332.8 631.52,-332.8 631.52,-332.8 1082,-332.8 1082,-332.8 1082,-332.8 1082,-333.18 1082,-333.18"/>
<polygon fill="black" stroke="black" points="1078.5,-326.63 1082,-336.63 1085.5,-326.63 1078.5,-326.63"/>
</g>
<!-- DomainModule -->
<g id="node13" class="node">
<title>DomainModule</title>
<polygon fill="#8dd3c7" stroke="black" points="762.16,-304.8 759.16,-308.8 738.16,-308.8 735.16,-304.8 657.84,-304.8 657.84,-268.8 762.16,-268.8 762.16,-304.8"/>
<text text-anchor="middle" x="710" y="-282.6" font-family="Times,serif" font-size="14.00">DomainModule</text>
</g>
<!-- DomainModule&#45;&gt;BoardModule -->
<g id="edge11" class="edge">
<title>DomainModule&#45;&gt;BoardModule</title>
<path fill="none" stroke="black" d="M678.78,-305.02C678.78,-305.02 678.78,-326.53 678.78,-326.53"/>
<polygon fill="black" stroke="black" points="675.28,-326.53 678.78,-336.53 682.28,-326.53 675.28,-326.53"/>
</g>
<!-- DomainComponent  -->
<g id="node32" class="node">
<title>DomainComponent </title>
<polygon fill="#fb8072" stroke="black" points="1439.93,-372.8 1310.07,-372.8 1310.07,-336.8 1439.93,-336.8 1439.93,-372.8"/>
<text text-anchor="middle" x="1375" y="-350.6" font-family="Times,serif" font-size="14.00">DomainComponent </text>
</g>
<!-- DomainModule&#45;&gt;DomainComponent  -->
<g id="edge29" class="edge">
<title>DomainModule&#45;&gt;DomainComponent </title>
<path fill="none" stroke="black" stroke-dasharray="5,2" d="M745.73,-304.87C745.73,-314.26 745.73,-323.8 745.73,-323.8 745.73,-323.8 1375,-323.8 1375,-323.8 1375,-323.8 1375,-326.77 1375,-326.77"/>
<polygon fill="black" stroke="black" points="1371.5,-326.77 1375,-336.77 1378.5,-326.77 1371.5,-326.77"/>
</g>
<!-- HandModule -->
<g id="node14" class="node">
<title>HandModule</title>
<polygon fill="#8dd3c7" stroke="black" points="869.88,-304.8 866.88,-308.8 845.88,-308.8 842.88,-304.8 780.12,-304.8 780.12,-268.8 869.88,-268.8 869.88,-304.8"/>
<text text-anchor="middle" x="825" y="-282.6" font-family="Times,serif" font-size="14.00">HandModule</text>
</g>
<!-- HandModule&#45;&gt;BoardModule -->
<g id="edge12" class="edge">
<title>HandModule&#45;&gt;BoardModule</title>
<path fill="none" stroke="black" d="M847.47,-305.07C847.47,-323.36 847.47,-348.8 847.47,-348.8 847.47,-348.8 710.08,-348.8 710.08,-348.8"/>
<polygon fill="black" stroke="black" points="710.08,-345.3 700.08,-348.8 710.08,-352.3 710.08,-345.3"/>
</g>
<!-- HandComponent  -->
<g id="node35" class="node">
<title>HandComponent </title>
<polygon fill="#fb8072" stroke="black" points="1745.66,-372.8 1630.34,-372.8 1630.34,-336.8 1745.66,-336.8 1745.66,-372.8"/>
<text text-anchor="middle" x="1688" y="-350.6" font-family="Times,serif" font-size="14.00">HandComponent </text>
</g>
<!-- HandModule&#45;&gt;HandComponent  -->
<g id="edge33" class="edge">
<title>HandModule&#45;&gt;HandComponent </title>
<path fill="none" stroke="black" stroke-dasharray="5,2" d="M825,-305.01C825,-310.35 825,-314.8 825,-314.8 825,-314.8 1688,-314.8 1688,-314.8 1688,-314.8 1688,-326.67 1688,-326.67"/>
<polygon fill="black" stroke="black" points="1684.5,-326.67 1688,-336.67 1691.5,-326.67 1684.5,-326.67"/>
</g>
<!-- PhasesModule -->
<g id="node15" class="node">
<title>PhasesModule</title>
<polygon fill="#8dd3c7" stroke="black" points="985.66,-304.8 982.66,-308.8 961.66,-308.8 958.66,-304.8 888.34,-304.8 888.34,-268.8 985.66,-268.8 985.66,-304.8"/>
<text text-anchor="middle" x="937" y="-282.6" font-family="Times,serif" font-size="14.00">PhasesModule</text>
</g>
<!-- PhasesModule&#45;&gt;BoardModule -->
<g id="edge13" class="edge">
<title>PhasesModule&#45;&gt;BoardModule</title>
<path fill="none" stroke="black" d="M937,-305.09C937,-327.01 937,-360.8 937,-360.8 937,-360.8 709.9,-360.8 709.9,-360.8"/>
<polygon fill="black" stroke="black" points="709.9,-357.3 699.9,-360.8 709.9,-364.3 709.9,-357.3"/>
</g>
<!-- PhasesComponent  -->
<g id="node37" class="node">
<title>PhasesComponent </title>
<polygon fill="#fb8072" stroke="black" points="2044.44,-372.8 1921.56,-372.8 1921.56,-336.8 2044.44,-336.8 2044.44,-372.8"/>
<text text-anchor="middle" x="1983" y="-350.6" font-family="Times,serif" font-size="14.00">PhasesComponent </text>
</g>
<!-- PhasesModule&#45;&gt;PhasesComponent  -->
<g id="edge35" class="edge">
<title>PhasesModule&#45;&gt;PhasesComponent </title>
<path fill="none" stroke="black" stroke-dasharray="5,2" d="M985.7,-292.8C1191.96,-292.8 1983,-292.8 1983,-292.8 1983,-292.8 1983,-326.53 1983,-326.53"/>
<polygon fill="black" stroke="black" points="1979.5,-326.53 1983,-336.53 1986.5,-326.53 1979.5,-326.53"/>
</g>
<!-- PilesModule -->
<g id="node16" class="node">
<title>PilesModule</title>
<polygon fill="#8dd3c7" stroke="black" points="536.28,-304.8 533.28,-308.8 512.28,-308.8 509.28,-304.8 449.72,-304.8 449.72,-268.8 536.28,-268.8 536.28,-304.8"/>
<text text-anchor="middle" x="493" y="-282.6" font-family="Times,serif" font-size="14.00">PilesModule</text>
</g>
<!-- PilesModule&#45;&gt;BoardModule -->
<g id="edge14" class="edge">
<title>PilesModule&#45;&gt;BoardModule</title>
<path fill="none" stroke="black" d="M493,-304.82C493,-322.17 493,-345.8 493,-345.8 493,-345.8 595.86,-345.8 595.86,-345.8"/>
<polygon fill="black" stroke="black" points="595.86,-349.3 605.86,-345.8 595.86,-342.3 595.86,-349.3"/>
</g>
<!-- PilesComponent  -->
<g id="node40" class="node">
<title>PilesComponent </title>
<polygon fill="#fb8072" stroke="black" points="484.06,-228.8 371.94,-228.8 371.94,-192.8 484.06,-192.8 484.06,-228.8"/>
<text text-anchor="middle" x="428" y="-206.6" font-family="Times,serif" font-size="14.00">PilesComponent </text>
</g>
<!-- PilesModule&#45;&gt;PilesComponent  -->
<g id="edge38" class="edge">
<title>PilesModule&#45;&gt;PilesComponent </title>
<path fill="none" stroke="black" stroke-dasharray="5,2" d="M466.82,-268.79C466.82,-268.79 466.82,-238.95 466.82,-238.95"/>
<polygon fill="black" stroke="black" points="470.32,-238.95 466.82,-228.95 463.32,-238.95 470.32,-238.95"/>
</g>
<!-- CardBackComponent -->
<g id="node18" class="node">
<title>CardBackComponent</title>
<polygon fill="#ffffb3" stroke="black" points="330.81,-84.8 193.19,-84.8 193.19,-48.8 330.81,-48.8 330.81,-84.8"/>
<text text-anchor="middle" x="262" y="-62.6" font-family="Times,serif" font-size="14.00">CardBackComponent</text>
</g>
<!-- CardBackModule -->
<g id="node19" class="node">
<title>CardBackModule</title>
<polygon fill="#8dd3c7" stroke="black" points="319.53,-152.8 316.53,-156.8 295.53,-156.8 292.53,-152.8 204.47,-152.8 204.47,-116.8 319.53,-116.8 319.53,-152.8"/>
<text text-anchor="middle" x="262" y="-130.6" font-family="Times,serif" font-size="14.00">CardBackModule</text>
</g>
<!-- CardBackComponent&#45;&gt;CardBackModule -->
<g id="edge16" class="edge">
<title>CardBackComponent&#45;&gt;CardBackModule</title>
<path fill="none" stroke="black" d="M262,-85.02C262,-85.02 262,-106.53 262,-106.53"/>
<polygon fill="black" stroke="black" points="258.5,-106.53 262,-116.53 265.5,-106.53 258.5,-106.53"/>
</g>
<!-- CardBackComponent  -->
<g id="node20" class="node">
<title>CardBackComponent </title>
<polygon fill="#fb8072" stroke="black" points="332.31,-228.8 191.69,-228.8 191.69,-192.8 332.31,-192.8 332.31,-228.8"/>
<text text-anchor="middle" x="262" y="-206.6" font-family="Times,serif" font-size="14.00">CardBackComponent </text>
</g>
<!-- CardBackModule&#45;&gt;CardBackComponent  -->
<g id="edge17" class="edge">
<title>CardBackModule&#45;&gt;CardBackComponent </title>
<path fill="none" stroke="black" stroke-dasharray="5,2" d="M242.74,-152.81C242.74,-152.81 242.74,-182.65 242.74,-182.65"/>
<polygon fill="black" stroke="black" points="239.24,-182.65 242.74,-192.65 246.24,-182.65 239.24,-182.65"/>
</g>
<!-- UiCardModule -->
<g id="node39" class="node">
<title>UiCardModule</title>
<polygon fill="#8dd3c7" stroke="black" points="608.27,-228.8 605.27,-232.8 584.27,-232.8 581.27,-228.8 507.73,-228.8 507.73,-192.8 608.27,-192.8 608.27,-228.8"/>
<text text-anchor="middle" x="558" y="-206.6" font-family="Times,serif" font-size="14.00">UiCardModule</text>
</g>
<!-- CardBackModule&#45;&gt;UiCardModule -->
<g id="edge40" class="edge">
<title>CardBackModule&#45;&gt;UiCardModule</title>
<path fill="none" stroke="black" d="M281.26,-152.91C281.26,-162.7 281.26,-172.8 281.26,-172.8 281.26,-172.8 523.25,-172.8 523.25,-172.8 523.25,-172.8 523.25,-182.69 523.25,-182.69"/>
<polygon fill="black" stroke="black" points="519.75,-182.69 523.25,-192.69 526.75,-182.69 519.75,-182.69"/>
</g>
<!-- AgglomerationPilesCardsFacade -->
<g id="node21" class="node">
<title>AgglomerationPilesCardsFacade</title>
<ellipse fill="#fdb462" stroke="black" cx="3028" cy="-354.8" rx="138.31" ry="18"/>
<text text-anchor="middle" x="3028" y="-350.6" font-family="Times,serif" font-size="14.00">AgglomerationPilesCardsFacade</text>
</g>
<!-- AgglomerationPilesCardsFacade&#45;&gt;DataAccessGameModule -->
<g id="edge18" class="edge">
<title>AgglomerationPilesCardsFacade&#45;&gt;DataAccessGameModule</title>
<path fill="none" stroke="black" d="M3075.72,-372.05C3075.72,-372.05 3075.72,-402.56 3075.72,-402.56"/>
<polygon fill="black" stroke="black" points="3072.22,-402.56 3075.72,-412.56 3079.22,-402.56 3072.22,-402.56"/>
</g>
<!-- DiscardPileCardsFacade -->
<g id="node22" class="node">
<title>DiscardPileCardsFacade</title>
<ellipse fill="#fdb462" stroke="black" cx="2766" cy="-354.8" rx="105.93" ry="18"/>
<text text-anchor="middle" x="2766" y="-350.6" font-family="Times,serif" font-size="14.00">DiscardPileCardsFacade</text>
</g>
<!-- DiscardPileCardsFacade&#45;&gt;DataAccessGameModule -->
<g id="edge19" class="edge">
<title>DiscardPileCardsFacade&#45;&gt;DataAccessGameModule</title>
<path fill="none" stroke="black" d="M2846.48,-366.58C2846.48,-373.46 2846.48,-380.8 2846.48,-380.8 2846.48,-380.8 3043.91,-380.8 3043.91,-380.8 3043.91,-380.8 3043.91,-402.75 3043.91,-402.75"/>
<polygon fill="black" stroke="black" points="3040.41,-402.75 3043.91,-412.75 3047.41,-402.75 3040.41,-402.75"/>
</g>
<!-- DomainsCardsFacade -->
<g id="node23" class="node">
<title>DomainsCardsFacade</title>
<ellipse fill="#fdb462" stroke="black" cx="2546" cy="-354.8" rx="95.56" ry="18"/>
<text text-anchor="middle" x="2546" y="-350.6" font-family="Times,serif" font-size="14.00">DomainsCardsFacade</text>
</g>
<!-- DomainsCardsFacade&#45;&gt;DataAccessGameModule -->
<g id="edge20" class="edge">
<title>DomainsCardsFacade&#45;&gt;DataAccessGameModule</title>
<path fill="none" stroke="black" d="M2599.03,-369.81C2599.03,-378.92 2599.03,-388.8 2599.03,-388.8 2599.03,-388.8 3012.09,-388.8 3012.09,-388.8 3012.09,-388.8 3012.09,-402.74 3012.09,-402.74"/>
<polygon fill="black" stroke="black" points="3008.59,-402.74 3012.09,-412.74 3015.59,-402.74 3008.59,-402.74"/>
</g>
<!-- EventsPileCardsFacade -->
<g id="node24" class="node">
<title>EventsPileCardsFacade</title>
<ellipse fill="#fdb462" stroke="black" cx="2330" cy="-354.8" rx="102.43" ry="18"/>
<text text-anchor="middle" x="2330" y="-350.6" font-family="Times,serif" font-size="14.00">EventsPileCardsFacade</text>
</g>
<!-- EventsPileCardsFacade&#45;&gt;DataAccessGameModule -->
<g id="edge21" class="edge">
<title>EventsPileCardsFacade&#45;&gt;DataAccessGameModule</title>
<path fill="none" stroke="black" d="M2330,-372.86C2330,-384.24 2330,-396.8 2330,-396.8 2330,-396.8 2980.28,-396.8 2980.28,-396.8 2980.28,-396.8 2980.28,-402.61 2980.28,-402.61"/>
<polygon fill="black" stroke="black" points="2976.78,-402.61 2980.28,-412.61 2983.78,-402.61 2976.78,-402.61"/>
</g>
<!-- GameFacade -->
<g id="node25" class="node">
<title>GameFacade</title>
<ellipse fill="#fdb462" stroke="black" cx="3873" cy="-354.8" rx="61.38" ry="18"/>
<text text-anchor="middle" x="3873" y="-350.6" font-family="Times,serif" font-size="14.00">GameFacade</text>
</g>
<!-- GameFacade&#45;&gt;DataAccessGameModule -->
<g id="edge22" class="edge">
<title>GameFacade&#45;&gt;DataAccessGameModule</title>
<path fill="none" stroke="black" d="M3873,-372.83C3873,-398.31 3873,-441.8 3873,-441.8 3873,-441.8 3117.88,-441.8 3117.88,-441.8"/>
<polygon fill="black" stroke="black" points="3117.88,-438.3 3107.88,-441.8 3117.88,-445.3 3117.88,-438.3"/>
</g>
<!-- HandsCardsFacade -->
<g id="node26" class="node">
<title>HandsCardsFacade</title>
<ellipse fill="#fdb462" stroke="black" cx="3708" cy="-354.8" rx="85.67" ry="18"/>
<text text-anchor="middle" x="3708" y="-350.6" font-family="Times,serif" font-size="14.00">HandsCardsFacade</text>
</g>
<!-- HandsCardsFacade&#45;&gt;DataAccessGameModule -->
<g id="edge23" class="edge">
<title>HandsCardsFacade&#45;&gt;DataAccessGameModule</title>
<path fill="none" stroke="black" d="M3708,-372.95C3708,-396.56 3708,-434.8 3708,-434.8 3708,-434.8 3117.67,-434.8 3117.67,-434.8"/>
<polygon fill="black" stroke="black" points="3117.67,-431.3 3107.67,-434.8 3117.67,-438.3 3117.67,-431.3"/>
</g>
<!-- LandsPileCardsFacade -->
<g id="node27" class="node">
<title>LandsPileCardsFacade</title>
<ellipse fill="#fdb462" stroke="black" cx="3505" cy="-354.8" rx="99.57" ry="18"/>
<text text-anchor="middle" x="3505" y="-350.6" font-family="Times,serif" font-size="14.00">LandsPileCardsFacade</text>
</g>
<!-- LandsPileCardsFacade&#45;&gt;DataAccessGameModule -->
<g id="edge24" class="edge">
<title>LandsPileCardsFacade&#45;&gt;DataAccessGameModule</title>
<path fill="none" stroke="black" d="M3505,-372.84C3505,-394.46 3505,-427.8 3505,-427.8 3505,-427.8 3117.57,-427.8 3117.57,-427.8"/>
<polygon fill="black" stroke="black" points="3117.57,-424.3 3107.57,-427.8 3117.57,-431.3 3117.57,-424.3"/>
</g>
<!-- StockPilesCardsFacade -->
<g id="node28" class="node">
<title>StockPilesCardsFacade</title>
<ellipse fill="#fdb462" stroke="black" cx="3286" cy="-354.8" rx="101.88" ry="18"/>
<text text-anchor="middle" x="3286" y="-350.6" font-family="Times,serif" font-size="14.00">StockPilesCardsFacade</text>
</g>
<!-- StockPilesCardsFacade&#45;&gt;DataAccessGameModule -->
<g id="edge25" class="edge">
<title>StockPilesCardsFacade&#45;&gt;DataAccessGameModule</title>
<path fill="none" stroke="black" d="M3214.97,-367.84C3214.97,-387.07 3214.97,-420.8 3214.97,-420.8 3214.97,-420.8 3117.56,-420.8 3117.56,-420.8"/>
<polygon fill="black" stroke="black" points="3117.56,-417.3 3107.56,-420.8 3117.56,-424.3 3117.56,-417.3"/>
</g>
<!-- DiceComponent -->
<g id="node29" class="node">
<title>DiceComponent</title>
<polygon fill="#ffffb3" stroke="black" points="1269.76,-372.8 1162.24,-372.8 1162.24,-336.8 1269.76,-336.8 1269.76,-372.8"/>
<text text-anchor="middle" x="1216" y="-350.6" font-family="Times,serif" font-size="14.00">DiceComponent</text>
</g>
<!-- DiceComponent&#45;&gt;DiceModule -->
<g id="edge26" class="edge">
<title>DiceComponent&#45;&gt;DiceModule</title>
<path fill="none" stroke="black" d="M1216,-336.64C1216,-331.76 1216,-327.8 1216,-327.8 1216,-327.8 623.05,-327.8 623.05,-327.8 623.05,-327.8 623.05,-314.9 623.05,-314.9"/>
<polygon fill="black" stroke="black" points="626.55,-314.9 623.05,-304.9 619.55,-314.9 626.55,-314.9"/>
</g>
<!-- DomainComponent -->
<g id="node31" class="node">
<title>DomainComponent</title>
<polygon fill="#ffffb3" stroke="black" points="1590.44,-372.8 1463.56,-372.8 1463.56,-336.8 1590.44,-336.8 1590.44,-372.8"/>
<text text-anchor="middle" x="1527" y="-350.6" font-family="Times,serif" font-size="14.00">DomainComponent</text>
</g>
<!-- DomainComponent&#45;&gt;DomainModule -->
<g id="edge28" class="edge">
<title>DomainComponent&#45;&gt;DomainModule</title>
<path fill="none" stroke="black" d="M1527,-336.38C1527,-327.52 1527,-318.8 1527,-318.8 1527,-318.8 729.12,-318.8 729.12,-318.8 729.12,-318.8 729.12,-315.04 729.12,-315.04"/>
<polygon fill="black" stroke="black" points="732.62,-315.04 729.12,-305.04 725.62,-315.04 732.62,-315.04"/>
</g>
<!-- HandComponent -->
<g id="node34" class="node">
<title>HandComponent</title>
<polygon fill="#ffffb3" stroke="black" points="1881.66,-372.8 1770.34,-372.8 1770.34,-336.8 1881.66,-336.8 1881.66,-372.8"/>
<text text-anchor="middle" x="1826" y="-350.6" font-family="Times,serif" font-size="14.00">HandComponent</text>
</g>
<!-- HandComponent&#45;&gt;HandModule -->
<g id="edge32" class="edge">
<title>HandComponent&#45;&gt;HandModule</title>
<path fill="none" stroke="black" d="M1826,-336.76C1826,-324.24 1826,-309.8 1826,-309.8 1826,-309.8 802.53,-309.8 802.53,-309.8 802.53,-309.8 802.53,-309.31 802.53,-309.31"/>
<polygon fill="black" stroke="black" points="806.03,-314.92 802.53,-304.92 799.03,-314.92 806.03,-314.92"/>
</g>
<!-- PhasesComponent -->
<g id="node36" class="node">
<title>PhasesComponent</title>
<polygon fill="#ffffb3" stroke="black" points="2187.94,-372.8 2068.06,-372.8 2068.06,-336.8 2187.94,-336.8 2187.94,-372.8"/>
<text text-anchor="middle" x="2128" y="-350.6" font-family="Times,serif" font-size="14.00">PhasesComponent</text>
</g>
<!-- PhasesComponent&#45;&gt;PhasesModule -->
<g id="edge34" class="edge">
<title>PhasesComponent&#45;&gt;PhasesModule</title>
<path fill="none" stroke="black" d="M2128,-336.51C2128,-314.59 2128,-280.8 2128,-280.8 2128,-280.8 995.91,-280.8 995.91,-280.8"/>
<polygon fill="black" stroke="black" points="995.91,-277.3 985.91,-280.8 995.91,-284.3 995.91,-277.3"/>
</g>
<!-- PilesComponent -->
<g id="node38" class="node">
<title>PilesComponent</title>
<polygon fill="#ffffb3" stroke="black" points="740.06,-228.8 631.94,-228.8 631.94,-192.8 740.06,-192.8 740.06,-228.8"/>
<text text-anchor="middle" x="686" y="-206.6" font-family="Times,serif" font-size="14.00">PilesComponent</text>
</g>
<!-- PilesComponent&#45;&gt;PilesModule -->
<g id="edge36" class="edge">
<title>PilesComponent&#45;&gt;PilesModule</title>
<path fill="none" stroke="black" d="M635.86,-228.91C635.86,-238.7 635.86,-248.8 635.86,-248.8 635.86,-248.8 526.8,-248.8 526.8,-248.8 526.8,-248.8 526.8,-258.69 526.8,-258.69"/>
<polygon fill="black" stroke="black" points="523.3,-258.69 526.8,-268.69 530.3,-258.69 523.3,-258.69"/>
</g>
<!-- UiCardModule&#45;&gt;PilesModule -->
<g id="edge37" class="edge">
<title>UiCardModule&#45;&gt;PilesModule</title>
<path fill="none" stroke="black" d="M517.21,-228.81C517.21,-228.81 517.21,-258.65 517.21,-258.65"/>
<polygon fill="black" stroke="black" points="513.71,-258.65 517.21,-268.65 520.71,-258.65 513.71,-258.65"/>
</g>
<!-- CardBackModule  -->
<g id="node42" class="node">
<title>CardBackModule </title>
<polygon fill="#fb8072" stroke="black" points="554.53,-152.8 435.47,-152.8 435.47,-116.8 554.53,-116.8 554.53,-152.8"/>
<text text-anchor="middle" x="495" y="-130.6" font-family="Times,serif" font-size="14.00">CardBackModule </text>
</g>
<!-- UiCardModule&#45;&gt;CardBackModule  -->
<g id="edge41" class="edge">
<title>UiCardModule&#45;&gt;CardBackModule </title>
<path fill="none" stroke="black" stroke-dasharray="5,2" d="M538.88,-192.79C538.88,-192.79 538.88,-162.95 538.88,-162.95"/>
<polygon fill="black" stroke="black" points="542.38,-162.95 538.88,-152.95 535.38,-162.95 542.38,-162.95"/>
</g>
<!-- CardComponent -->
<g id="node41" class="node">
<title>CardComponent</title>
<polygon fill="#ffffb3" stroke="black" points="687.05,-152.8 578.95,-152.8 578.95,-116.8 687.05,-116.8 687.05,-152.8"/>
<text text-anchor="middle" x="633" y="-130.6" font-family="Times,serif" font-size="14.00">CardComponent</text>
</g>
<!-- CardComponent&#45;&gt;UiCardModule -->
<g id="edge39" class="edge">
<title>CardComponent&#45;&gt;UiCardModule</title>
<path fill="none" stroke="black" d="M593.56,-152.81C593.56,-152.81 593.56,-182.65 593.56,-182.65"/>
<polygon fill="black" stroke="black" points="590.06,-182.65 593.56,-192.65 597.06,-182.65 590.06,-182.65"/>
</g>
</g>
</svg>
