<?xml version="1.0" encoding="UTF-8" standalone="no"?>
<!DOCTYPE svg PUBLIC "-//W3C//DTD SVG 1.1//EN"
 "http://www.w3.org/Graphics/SVG/1.1/DTD/svg11.dtd">
<!-- Generated by graphviz version 3.0.0 (20220226.1711)
 -->
<!-- Title: dependencies Pages: 1 -->
<svg width="172pt" height="247pt"
 viewBox="0.00 0.00 172.00 246.80" xmlns="http://www.w3.org/2000/svg" xmlns:xlink="http://www.w3.org/1999/xlink">
<g id="graph0" class="graph" transform="scale(1 1) rotate(0) translate(4 242.8)">
<title>dependencies</title>
<polygon fill="white" stroke="transparent" points="-4,4 -4,-242.8 168,-242.8 168,4 -4,4"/>
<text text-anchor="middle" x="82" y="-8.2" font-family="sans-serif" font-size="14.00">dependencies</text>
<g id="clust1" class="cluster">
<title>cluster_HandModule</title>
<polygon fill="none" stroke="black" stroke-dasharray="1,5" points="8,-32.8 8,-230.8 156,-230.8 156,-32.8 8,-32.8"/>
</g>
<g id="clust2" class="cluster">
<title>cluster_HandModule_declarations</title>
<polygon fill="none" stroke="black" points="18,-40.8 18,-92.8 146,-92.8 146,-40.8 18,-40.8"/>
</g>
<g id="clust5" class="cluster">
<title>cluster_HandModule_exports</title>
<polygon fill="none" stroke="black" points="16,-170.8 16,-222.8 148,-222.8 148,-170.8 16,-170.8"/>
</g>
<!-- HandComponent -->
<g id="node1" class="node">
<title>HandComponent</title>
<polygon fill="#ffffb3" stroke="black" points="137.66,-84.8 26.34,-84.8 26.34,-48.8 137.66,-48.8 137.66,-84.8"/>
<text text-anchor="middle" x="82" y="-62.6" font-family="Times,serif" font-size="14.00">HandComponent</text>
</g>
<!-- HandModule -->
<g id="node2" class="node">
<title>HandModule</title>
<polygon fill="#8dd3c7" stroke="black" points="126.88,-149.8 123.88,-153.8 102.88,-153.8 99.88,-149.8 37.12,-149.8 37.12,-113.8 126.88,-113.8 126.88,-149.8"/>
<text text-anchor="middle" x="82" y="-127.6" font-family="Times,serif" font-size="14.00">HandModule</text>
</g>
<!-- HandComponent&#45;&gt;HandModule -->
<g id="edge1" class="edge">
<title>HandComponent&#45;&gt;HandModule</title>
<path fill="none" stroke="black" d="M82,-84.91C82,-84.91 82,-103.79 82,-103.79"/>
<polygon fill="black" stroke="black" points="78.5,-103.79 82,-113.79 85.5,-103.79 78.5,-103.79"/>
</g>
<!-- HandComponent  -->
<g id="node3" class="node">
<title>HandComponent </title>
<polygon fill="#fb8072" stroke="black" points="139.66,-214.8 24.34,-214.8 24.34,-178.8 139.66,-178.8 139.66,-214.8"/>
<text text-anchor="middle" x="82" y="-192.6" font-family="Times,serif" font-size="14.00">HandComponent </text>
</g>
<!-- HandModule&#45;&gt;HandComponent  -->
<g id="edge2" class="edge">
<title>HandModule&#45;&gt;HandComponent </title>
<path fill="none" stroke="black" stroke-dasharray="5,2" d="M82,-149.91C82,-149.91 82,-168.79 82,-168.79"/>
<polygon fill="black" stroke="black" points="78.5,-168.79 82,-178.79 85.5,-168.79 78.5,-168.79"/>
</g>
</g>
</svg>
